<svg width="22" height="14" viewBox="0 0 50 34" fill="none" xmlns="http://www.w3.org/2000/svg">
<path d="M2.84091 20.3095L40.3409 20.3095L32.1023 28.9405C30.9659 30.131 30.9659 31.9167 32.1023 33.1071C33.2386 34.2976 34.9432 34.2976 36.0795 33.1071L49.1477 19.4167C50.2841 18.2262 50.2841 16.4405 49.1477 15.25L36.0795 1.55952C34.9432 0.369043 33.2386 0.369043 32.1023 1.55952C30.9659 2.75 30.9659 4.53571 32.1023 5.72619L40.3409 14.3571L2.84091 14.3571C1.42045 14.3571 -1.61316e-06 15.5476 -1.45705e-06 17.3333C-1.30093e-06 19.119 1.42045 20.3095 2.84091 20.3095Z" fill="#808080"/>
</svg>
