<svg width="24" height="25" viewBox="0 0 24 25" fill="none" xmlns="http://www.w3.org/2000/svg">
<path d="M5.70426 6.24497C4.86798 6.24497 4.18555 5.56616 4.18555 4.72625V2.01871C4.18555 1.18243 4.86435 0.5 5.70426 0.5C6.54434 0.5 7.22297 1.17881 7.22297 2.01871V4.72988C7.22297 5.56616 6.54054 6.24497 5.70426 6.24497Z" fill="#8B39E5"/>
<path d="M18.049 6.24497C17.2127 6.24497 16.5303 5.56616 16.5303 4.72625V2.01871C16.5303 1.18243 17.2091 0.5 18.049 0.5C18.8853 0.5 19.5677 1.17881 19.5677 2.01871V4.72988C19.5677 5.56616 18.8853 6.24497 18.049 6.24497Z" fill="#8B39E5"/>
<path d="M21.1499 3.91992V4.72615C21.1499 6.43614 19.7586 7.8273 18.0488 7.8273C16.3876 7.8273 15.0376 6.5111 14.9625 4.86859H8.79004C8.71511 6.5111 7.36506 7.8273 5.70373 7.8273C3.99374 7.8273 2.60258 6.43601 2.60258 4.72615V3.91992C1.05761 4.71872 0 6.32742 0 8.18746V19.6846C0.00017263 22.3433 2.15646 24.4998 4.81517 24.4998H18.9376C21.5963 24.4998 23.7528 22.3435 23.7528 19.6846V8.18746C23.7528 6.32742 22.6953 4.72239 21.1504 3.91992H21.1499ZM14.8012 19.8425H4.39871C3.97867 19.8425 3.64114 19.5011 3.64114 19.0849C3.64114 18.6649 3.98246 18.3273 4.39871 18.3273L14.8012 18.3275C15.2212 18.3275 15.5587 18.6688 15.5587 19.0851C15.5585 19.5013 15.2174 19.8425 14.8012 19.8425V19.8425ZM19.3534 16.2125H4.39827C3.97823 16.2125 3.6407 15.8712 3.6407 15.4549C3.6407 15.0387 3.98201 14.6974 4.39827 14.6974H19.3569C19.7769 14.6974 20.1145 15.0387 20.1145 15.4549C20.1145 15.8712 19.7731 16.2125 19.3531 16.2125H19.3534ZM19.3534 12.5863H4.39827C3.97823 12.5863 3.6407 12.245 3.6407 11.8288C3.6407 11.4087 3.98201 11.0712 4.39827 11.0712H19.3569C19.7769 11.0712 20.1145 11.4125 20.1145 11.8288C20.1145 12.245 19.7731 12.5863 19.3531 12.5863H19.3534Z" fill="#8B39E5"/>
</svg>
