<svg width="29" height="24" viewBox="0 0 29 24" fill="none" xmlns="http://www.w3.org/2000/svg">
<g clip-path="url(#clip0_979_12496)">
<path d="M27.9656 23.4384C26.8781 23.1576 25.4863 22.9209 23.8691 22.7338L23.8691 5.28973C23.8691 5.17964 23.7959 5.07505 23.6888 5.03652L19.9924 3.65487L19.9868 3.65487C19.9755 3.64936 19.9586 3.64386 19.9417 3.64386C19.9361 3.64386 19.9361 3.64386 19.9304 3.64386C19.9135 3.64386 19.8966 3.63835 19.8853 3.63835C19.8797 3.63835 19.8797 3.63835 19.8741 3.63835C19.8628 3.63835 19.8459 3.63835 19.8346 3.64386L19.829 3.64386C19.8121 3.64936 19.8008 3.65487 19.7839 3.66037C19.7783 3.66037 19.7783 3.66588 19.7726 3.66588C19.767 3.66588 19.7614 3.67138 19.7557 3.67138L17.5244 4.8989L17.5244 1.67872C17.5244 1.56863 17.4511 1.46404 17.3441 1.42551L13.6476 0.0438577L13.642 0.0438577C13.6307 0.0383531 13.6138 0.0328487 13.5969 0.0328487L13.5913 0.0328487C13.5744 0.0328487 13.5575 0.0273437 13.5462 0.0273437C13.5406 0.0273437 13.5406 0.0273437 13.5349 0.0273437C13.5237 0.0273437 13.5068 0.0273441 13.4955 0.0328487L13.4899 0.0328487C13.473 0.0383532 13.4617 0.0438572 13.4448 0.0493617C13.4391 0.0493617 13.4391 0.0548667 13.4335 0.0548667C13.4279 0.0548667 13.4222 0.0603716 13.4166 0.0603716L9.9005 1.98147C9.81035 2.03101 9.75963 2.11909 9.75963 2.21817L9.75963 6.76496L8.19316 6.18147L8.18753 6.18147C8.17626 6.17597 8.15936 6.17046 8.14245 6.17046L8.13682 6.17046C8.11991 6.17046 8.10301 6.16496 8.09174 6.16496C8.0861 6.16496 8.0861 6.16496 8.08047 6.16496C8.0692 6.16496 8.05229 6.16496 8.04102 6.17046L8.03539 6.17046C8.01849 6.17597 8.00722 6.18147 7.99031 6.18698C7.98468 6.18698 7.98468 6.19248 7.97904 6.19248C7.97341 6.19248 7.96777 6.19799 7.96214 6.19799L4.45167 8.11909C4.36151 8.16863 4.3108 8.2567 4.3108 8.35578L4.3108 22.7393C2.69361 22.9264 1.30182 23.1631 0.21431 23.4439C0.0678054 23.4824 -0.0223512 23.631 0.0170923 23.7741C0.0565358 23.9173 0.208675 24.0053 0.355179 23.9668C3.20638 23.2292 8.46927 22.7778 14.0871 22.7778C19.705 22.7778 24.9679 23.2347 27.8248 23.9613C27.8473 23.9668 27.8698 23.9723 27.898 23.9723C28.022 23.9723 28.1347 23.8897 28.1685 23.7686C28.2023 23.6255 28.1178 23.4769 27.9656 23.4384ZM23.3169 5.47689L23.3169 22.6732C22.3365 22.5686 21.2828 22.4806 20.1727 22.4145L20.1727 4.30441L23.3169 5.47689ZM8.37348 6.82551L11.5177 7.99799L11.5177 22.2659C10.4358 22.2934 9.3821 22.3319 8.37348 22.3925L8.37348 6.82551ZM13.8279 22.2384L13.8279 0.687894L16.9722 1.86037L16.9722 5.20166L16.2509 5.59799C16.1607 5.64753 16.11 5.7356 16.11 5.83468L16.11 22.2604C15.4451 22.2494 14.7746 22.2439 14.0928 22.2439C13.997 22.2384 13.9125 22.2384 13.8279 22.2384Z" fill="#8B39E5"/>
<path d="M27.9656 23.4384C26.8781 23.1576 25.4863 22.9209 23.8691 22.7338L23.8691 5.28973C23.8691 5.17964 23.7959 5.07505 23.6888 5.03652L19.9924 3.65487L19.9868 3.65487C19.9755 3.64936 19.9586 3.64386 19.9417 3.64386C19.9361 3.64386 19.9361 3.64386 19.9304 3.64386C19.9135 3.64386 19.8966 3.63835 19.8853 3.63835C19.8797 3.63835 19.8797 3.63835 19.8741 3.63835C19.8628 3.63835 19.8459 3.63835 19.8346 3.64386L19.829 3.64386C19.8121 3.64936 19.8008 3.65487 19.7839 3.66037C19.7783 3.66037 19.7783 3.66588 19.7726 3.66588C19.767 3.66588 19.7614 3.67138 19.7557 3.67138L17.5244 4.8989L17.5244 1.67872C17.5244 1.56863 17.4511 1.46404 17.3441 1.42551L13.6476 0.0438577L13.642 0.0438577C13.6307 0.0383531 13.6138 0.0328487 13.5969 0.0328487L13.5913 0.0328487C13.5744 0.0328487 13.5575 0.0273437 13.5462 0.0273437C13.5406 0.0273437 13.5406 0.0273437 13.5349 0.0273437C13.5237 0.0273437 13.5068 0.0273441 13.4955 0.0328487L13.4899 0.0328487C13.473 0.0383532 13.4617 0.0438572 13.4448 0.0493617C13.4391 0.0493617 13.4391 0.0548667 13.4335 0.0548667C13.4279 0.0548667 13.4222 0.0603716 13.4166 0.0603716L9.9005 1.98147C9.81035 2.03101 9.75963 2.11909 9.75963 2.21817L9.75963 6.76496L8.19316 6.18147L8.18753 6.18147C8.17626 6.17597 8.15936 6.17046 8.14245 6.17046L8.13682 6.17046C8.11991 6.17046 8.10301 6.16496 8.09174 6.16496C8.0861 6.16496 8.0861 6.16496 8.08047 6.16496C8.0692 6.16496 8.05229 6.16496 8.04102 6.17046L8.03539 6.17046C8.01849 6.17597 8.00722 6.18147 7.99031 6.18698C7.98468 6.18698 7.98468 6.19248 7.97904 6.19248C7.97341 6.19248 7.96777 6.19799 7.96214 6.19799L4.45167 8.11909C4.36151 8.16863 4.3108 8.2567 4.3108 8.35578L4.3108 22.7393C2.69361 22.9264 1.30182 23.1631 0.21431 23.4439C0.0678054 23.4824 -0.0223512 23.631 0.0170923 23.7741C0.0565358 23.9173 0.208675 24.0053 0.355179 23.9668C3.20638 23.2292 8.46927 22.7778 14.0871 22.7778C19.705 22.7778 24.9679 23.2347 27.8248 23.9613C27.8473 23.9668 27.8698 23.9723 27.898 23.9723C28.022 23.9723 28.1347 23.8897 28.1685 23.7686C28.2023 23.6255 28.1178 23.4769 27.9656 23.4384ZM23.3169 5.47689L23.3169 22.6732C22.3365 22.5686 21.2828 22.4806 20.1727 22.4145L20.1727 4.30441L23.3169 5.47689ZM8.37348 6.82551L11.5177 7.99799L11.5177 22.2659C10.4358 22.2934 9.3821 22.3319 8.37348 22.3925L8.37348 6.82551ZM13.8279 22.2384L13.8279 0.687894L16.9722 1.86037L16.9722 5.20166L16.2509 5.59799C16.1607 5.64753 16.11 5.7356 16.11 5.83468L16.11 22.2604C15.4451 22.2494 14.7746 22.2439 14.0928 22.2439C13.997 22.2384 13.9125 22.2384 13.8279 22.2384Z" fill="#8B39E5"/>
</g>
<defs>
<clipPath id="clip0_979_12496">
<rect width="28.1739" height="24" fill="white"/>
</clipPath>
</defs>
</svg>
