<svg width="44" height="24" viewBox="0 0 44 24" fill="none" xmlns="http://www.w3.org/2000/svg">
<g clip-path="url(#clip0_915_11423)">
<path d="M6.36523 7.22949H11.5494V23.6766H6.36523V7.22949Z" fill="#8B39E5"/>
<path d="M6.36523 7.22949H11.5494V23.6766H6.36523V7.22949Z" fill="#8B39E5"/>
<path d="M6.36523 7.22949H11.5494V23.6766H6.36523V7.22949Z" stroke="url(#paint0_linear_915_11423)" stroke-width="0.590475" stroke-linecap="round" stroke-linejoin="round"/>
<path d="M12.6344 1.79297H18.8484V11.3913H14.0769V23.6529H12.6343L12.6344 1.79297Z" fill="#8B39E5"/>
<path d="M12.6344 1.79297H18.8484V11.3913H14.0769V23.6529H12.6343L12.6344 1.79297Z" fill="#8B39E5"/>
<path d="M12.6344 1.79297H18.8484V11.3913H14.0769V23.6529H12.6343L12.6344 1.79297Z" stroke="url(#paint1_linear_915_11423)" stroke-width="0.590475" stroke-linecap="round" stroke-linejoin="round"/>
<path d="M15.4087 12.833H20.5158V23.6531H15.4087V12.833Z" fill="#8B39E5"/>
<path d="M15.4087 12.833H20.5158V23.6531H15.4087V12.833Z" fill="#8B39E5"/>
<path d="M15.4087 12.833H20.5158V23.6531H15.4087V12.833Z" stroke="url(#paint2_linear_915_11423)" stroke-width="0.590475" stroke-linecap="round" stroke-linejoin="round"/>
<path d="M20.2358 4.7334H27.8369V23.6527H21.8448V11.3912H20.236L20.2358 4.7334Z" fill="#8B39E5"/>
<path d="M20.2358 4.7334H27.8369V23.6527H21.8448V11.3912H20.236L20.2358 4.7334Z" fill="#8B39E5"/>
<path d="M20.2358 4.7334H27.8369V23.6527H21.8448V11.3912H20.236L20.2358 4.7334Z" stroke="url(#paint3_linear_915_11423)" stroke-width="0.590475" stroke-linecap="round" stroke-linejoin="round"/>
<path d="M29.1133 9.44922H34.6059V14.3318H31.8874V23.6528H29.1133V9.44922Z" fill="#8B39E5"/>
<path d="M29.1133 9.44922H34.6059V14.3318H31.8874V23.6528H29.1133V9.44922Z" fill="#8B39E5"/>
<path d="M29.1133 9.44922H34.6059V14.3318H31.8874V23.6528H29.1133V9.44922Z" stroke="url(#paint4_linear_915_11423)" stroke-width="0.590475" stroke-linecap="round" stroke-linejoin="round"/>
<path d="M33.0522 15.8291H37.1592V23.672H33.0522V15.8291Z" fill="#8B39E5"/>
<path d="M33.0522 15.8291H37.1592V23.672H33.0522V15.8291Z" fill="#8B39E5"/>
<path d="M33.0522 15.8291H37.1592V23.672H33.0522V15.8291Z" stroke="url(#paint5_linear_915_11423)" stroke-width="0.590475" stroke-linecap="round" stroke-linejoin="round"/>
<path d="M30.833 8.28418H33.8481V9.46689H30.833V8.28418Z" fill="#8B39E5"/>
<path d="M30.833 8.28418H33.8481V9.46689H30.833V8.28418Z" fill="#8B39E5"/>
<path d="M30.833 8.28418H33.8481V9.46689H30.833V8.28418Z" stroke="url(#paint6_linear_915_11423)" stroke-width="0.590475" stroke-linecap="round" stroke-linejoin="round"/>
<path d="M13.356 0.460938H16.4904V1.78457H13.356V0.460938Z" fill="#8B39E5"/>
<path d="M13.356 0.460938H16.4904V1.78457H13.356V0.460938Z" fill="#8B39E5"/>
<path d="M13.356 0.460938H16.4904V1.78457H13.356V0.460938Z" stroke="url(#paint7_linear_915_11423)" stroke-width="0.590475" stroke-linecap="round" stroke-linejoin="round"/>
<path d="M22.3447 3.45703H25.7289V4.73317H22.3447V3.45703Z" fill="#8B39E5"/>
<path d="M22.3447 3.45703H25.7289V4.73317H22.3447V3.45703Z" fill="#8B39E5"/>
<path d="M22.3447 3.45703H25.7289V4.73317H22.3447V3.45703Z" stroke="url(#paint8_linear_915_11423)" stroke-width="0.590475" stroke-linecap="round" stroke-linejoin="round"/>
<path d="M0.262207 23.6523H43.3162H0.262207Z" fill="#8B39E5"/>
<path d="M0.262207 23.6523H43.3162H0.262207Z" fill="#8B39E5"/>
<path d="M0.262207 23.6523H43.3162" stroke="url(#paint9_linear_915_11423)" stroke-width="0.590475"/>
<path d="M3.70163 20.7673V20.8227C3.70163 21.4885 3.25779 22.0434 2.75855 22.0434C2.20356 22.0434 1.81546 21.4884 1.81546 20.8227V20.7673C1.59354 20.4343 1.48242 20.0462 1.48242 19.6577C1.48242 18.7146 2.03741 17.9932 2.75856 17.9932C3.47972 17.9932 4.0347 18.7143 4.0347 19.6577C4.0347 20.0462 3.92358 20.4346 3.70166 20.7673H3.70163Z" fill="#8B39E5"/>
<path d="M3.70163 20.7673V20.8227C3.70163 21.4885 3.25779 22.0434 2.75855 22.0434C2.20356 22.0434 1.81546 21.4884 1.81546 20.8227V20.7673C1.59354 20.4343 1.48242 20.0462 1.48242 19.6577C1.48242 18.7146 2.03741 17.9932 2.75856 17.9932C3.47972 17.9932 4.0347 18.7143 4.0347 19.6577C4.0347 20.0462 3.92358 20.4346 3.70166 20.7673H3.70163Z" fill="#8B39E5"/>
<path d="M3.70163 20.7673V20.8227C3.70163 21.4885 3.25779 22.0434 2.75855 22.0434C2.20356 22.0434 1.81546 21.4884 1.81546 20.8227V20.7673C1.59354 20.4343 1.48242 20.0462 1.48242 19.6577C1.48242 18.7146 2.03741 17.9932 2.75856 17.9932C3.47972 17.9932 4.0347 18.7143 4.0347 19.6577C4.0347 20.0462 3.92358 20.4346 3.70166 20.7673H3.70163Z" stroke="url(#paint10_linear_915_11423)" stroke-width="0.590475" stroke-linecap="round" stroke-linejoin="round"/>
<path d="M2.75867 22.043V23.6521V22.043Z" fill="#8B39E5"/>
<path d="M2.75867 22.043V23.6521V22.043Z" fill="#8B39E5"/>
<path d="M2.75867 22.043V23.6521" stroke="url(#paint11_linear_915_11423)" stroke-width="0.590475" stroke-linecap="round" stroke-linejoin="round"/>
<path d="M41.2636 20.7673V20.8227C41.2636 21.4885 40.8752 22.0434 40.3206 22.0434C39.8213 22.0434 39.3775 21.4884 39.3775 20.8227V20.7673C39.1556 20.4343 39.0444 20.0462 39.0444 19.6577C39.0444 18.7146 39.5994 17.9932 40.3206 17.9932C41.0417 17.9932 41.5967 18.7143 41.5967 19.6577C41.5967 20.0462 41.4856 20.4346 41.2637 20.7673H41.2636Z" fill="#8B39E5"/>
<path d="M41.2636 20.7673V20.8227C41.2636 21.4885 40.8752 22.0434 40.3206 22.0434C39.8213 22.0434 39.3775 21.4884 39.3775 20.8227V20.7673C39.1556 20.4343 39.0444 20.0462 39.0444 19.6577C39.0444 18.7146 39.5994 17.9932 40.3206 17.9932C41.0417 17.9932 41.5967 18.7143 41.5967 19.6577C41.5967 20.0462 41.4856 20.4346 41.2637 20.7673H41.2636Z" fill="#8B39E5"/>
<path d="M41.2636 20.7673V20.8227C41.2636 21.4885 40.8752 22.0434 40.3206 22.0434C39.8213 22.0434 39.3775 21.4884 39.3775 20.8227V20.7673C39.1556 20.4343 39.0444 20.0462 39.0444 19.6577C39.0444 18.7146 39.5994 17.9932 40.3206 17.9932C41.0417 17.9932 41.5967 18.7143 41.5967 19.6577C41.5967 20.0462 41.4856 20.4346 41.2637 20.7673H41.2636Z" stroke="url(#paint12_linear_915_11423)" stroke-width="0.590475" stroke-linecap="round" stroke-linejoin="round"/>
<path d="M40.3213 22.043V23.6521V22.043Z" fill="#8B39E5"/>
<path d="M40.3213 22.043V23.6521V22.043Z" fill="#8B39E5"/>
<path d="M40.3213 22.043V23.6521" stroke="url(#paint13_linear_915_11423)" stroke-width="0.590475" stroke-linecap="round" stroke-linejoin="round"/>
<path d="M16.4077 14.3867H17.5776V15.5566H16.4077V14.3867Z" fill="#8B39E5"/>
<path d="M16.4077 14.3867H17.5776V15.5566H16.4077V14.3867Z" fill="#8B39E5"/>
<path d="M16.4077 14.3867H17.5776V15.5566H16.4077V14.3867Z" stroke="url(#paint14_linear_915_11423)" stroke-width="0.590475" stroke-linecap="round" stroke-linejoin="round"/>
<path d="M18.349 14.3867H19.5189V15.5566H18.349V14.3867Z" fill="#8B39E5"/>
<path d="M18.349 14.3867H19.5189V15.5566H18.349V14.3867Z" fill="#8B39E5"/>
<path d="M18.349 14.3867H19.5189V15.5566H18.349V14.3867Z" stroke="url(#paint15_linear_915_11423)" stroke-width="0.590475" stroke-linecap="round" stroke-linejoin="round"/>
<path d="M16.4077 19.1025H17.5776V20.2724H16.4077V19.1025Z" fill="#8B39E5"/>
<path d="M16.4077 19.1025H17.5776V20.2724H16.4077V19.1025Z" fill="#8B39E5"/>
<path d="M16.4077 19.1025H17.5776V20.2724H16.4077V19.1025Z" stroke="url(#paint16_linear_915_11423)" stroke-width="0.590475" stroke-linecap="round" stroke-linejoin="round"/>
<path d="M18.349 19.1025H19.5189V20.2724H18.349V19.1025Z" fill="#8B39E5"/>
<path d="M18.349 19.1025H19.5189V20.2724H18.349V19.1025Z" fill="#8B39E5"/>
<path d="M18.349 19.1025H19.5189V20.2724H18.349V19.1025Z" stroke="url(#paint17_linear_915_11423)" stroke-width="0.590475" stroke-linecap="round" stroke-linejoin="round"/>
<path d="M16.4077 16.7168H17.5776V17.8867H16.4077V16.7168Z" fill="#8B39E5"/>
<path d="M16.4077 16.7168H17.5776V17.8867H16.4077V16.7168Z" fill="#8B39E5"/>
<path d="M16.4077 16.7168H17.5776V17.8867H16.4077V16.7168Z" stroke="url(#paint18_linear_915_11423)" stroke-width="0.590475" stroke-linecap="round" stroke-linejoin="round"/>
<path d="M18.349 16.7168H19.5189V17.8867H18.349V16.7168Z" fill="#8B39E5"/>
<path d="M18.349 16.7168H19.5189V17.8867H18.349V16.7168Z" fill="#8B39E5"/>
<path d="M18.349 16.7168H19.5189V17.8867H18.349V16.7168Z" stroke="url(#paint19_linear_915_11423)" stroke-width="0.590475" stroke-linecap="round" stroke-linejoin="round"/>
<path d="M16.4077 21.3779H17.5776V22.5478H16.4077V21.3779Z" fill="#8B39E5"/>
<path d="M16.4077 21.3779H17.5776V22.5478H16.4077V21.3779Z" fill="#8B39E5"/>
<path d="M16.4077 21.3779H17.5776V22.5478H16.4077V21.3779Z" stroke="url(#paint20_linear_915_11423)" stroke-width="0.590475" stroke-linecap="round" stroke-linejoin="round"/>
<path d="M18.349 21.3779H19.5189V22.5478H18.349V21.3779Z" fill="#8B39E5"/>
<path d="M18.349 21.3779H19.5189V22.5478H18.349V21.3779Z" fill="#8B39E5"/>
<path d="M18.349 21.3779H19.5189V22.5478H18.349V21.3779Z" stroke="url(#paint21_linear_915_11423)" stroke-width="0.590475" stroke-linecap="round" stroke-linejoin="round"/>
<path d="M33.7734 16.6621H34.7909V17.6796H33.7734V16.6621Z" fill="#8B39E5"/>
<path d="M33.7734 16.6621H34.7909V17.6796H33.7734V16.6621Z" fill="#8B39E5"/>
<path d="M33.7734 16.6621H34.7909V17.6796H33.7734V16.6621Z" stroke="url(#paint22_linear_915_11423)" stroke-width="0.590475" stroke-linecap="round" stroke-linejoin="round"/>
<path d="M35.4375 16.6621H36.455V17.6796H35.4375V16.6621Z" fill="#8B39E5"/>
<path d="M35.4375 16.6621H36.455V17.6796H35.4375V16.6621Z" fill="#8B39E5"/>
<path d="M35.4375 16.6621H36.455V17.6796H35.4375V16.6621Z" stroke="url(#paint23_linear_915_11423)" stroke-width="0.590475" stroke-linecap="round" stroke-linejoin="round"/>
<path d="M33.7734 18.6592H34.7909V19.6767H33.7734V18.6592Z" fill="#8B39E5"/>
<path d="M33.7734 18.6592H34.7909V19.6767H33.7734V18.6592Z" fill="#8B39E5"/>
<path d="M33.7734 18.6592H34.7909V19.6767H33.7734V18.6592Z" stroke="url(#paint24_linear_915_11423)" stroke-width="0.590475" stroke-linecap="round" stroke-linejoin="round"/>
<path d="M35.4375 18.6592H36.455V19.6767H35.4375V18.6592Z" fill="#8B39E5"/>
<path d="M35.4375 18.6592H36.455V19.6767H35.4375V18.6592Z" fill="#8B39E5"/>
<path d="M35.4375 18.6592H36.455V19.6767H35.4375V18.6592Z" stroke="url(#paint25_linear_915_11423)" stroke-width="0.590475" stroke-linecap="round" stroke-linejoin="round"/>
<path d="M33.7734 20.6562H34.7909V21.6737H33.7734V20.6562Z" fill="#8B39E5"/>
<path d="M33.7734 20.6562H34.7909V21.6737H33.7734V20.6562Z" fill="#8B39E5"/>
<path d="M33.7734 20.6562H34.7909V21.6737H33.7734V20.6562Z" stroke="url(#paint26_linear_915_11423)" stroke-width="0.590475" stroke-linecap="round" stroke-linejoin="round"/>
<path d="M35.4375 20.6562H36.455V21.6737H35.4375V20.6562Z" fill="#8B39E5"/>
<path d="M35.4375 20.6562H36.455V21.6737H35.4375V20.6562Z" fill="#8B39E5"/>
<path d="M35.4375 20.6562H36.455V21.6737H35.4375V20.6562Z" stroke="url(#paint27_linear_915_11423)" stroke-width="0.590475" stroke-linecap="round" stroke-linejoin="round"/>
<path d="M6.41802 7.28228H11.5277V23.5991H6.41802V7.28228Z" fill="#8B39E5"/>
<path d="M6.41802 7.28228H11.5277V23.5991H6.41802V7.28228Z" fill="#8B39E5"/>
<path d="M6.41802 7.28228H11.5277V23.5991H6.41802V7.28228Z" stroke="url(#paint28_linear_915_11423)" stroke-width="0.105566"/>
<path d="M14.0769 11.3385H14.0241V11.3913V23.6003H12.6871V1.84575H18.7955V11.3385H14.0769Z" fill="#8B39E5"/>
<path d="M14.0769 11.3385H14.0241V11.3913V23.6003H12.6871V1.84575H18.7955V11.3385H14.0769Z" fill="#8B39E5"/>
<path d="M14.0769 11.3385H14.0241V11.3913V23.6003H12.6871V1.84575H18.7955V11.3385H14.0769Z" stroke="url(#paint29_linear_915_11423)" stroke-width="0.105566"/>
<path d="M21.8975 11.391V11.3382H21.8447H20.2886V4.78619L27.784 4.78668V23.6H21.8975V11.391Z" fill="#8B39E5"/>
<path d="M21.8975 11.391V11.3382H21.8447H20.2886V4.78619L27.784 4.78668V23.6H21.8975V11.391Z" fill="#8B39E5"/>
<path d="M21.8975 11.391V11.3382H21.8447H20.2886V4.78619L27.784 4.78668V23.6H21.8975V11.391Z" stroke="url(#paint30_linear_915_11423)" stroke-width="0.105566"/>
<path d="M31.888 14.2785H31.8352V14.3313V23.5991H29.1666V9.50103L34.5536 9.50152V14.2785H31.888Z" fill="#8B39E5"/>
<path d="M31.888 14.2785H31.8352V14.3313V23.5991H29.1666V9.50103L34.5536 9.50152V14.2785H31.888Z" fill="#8B39E5"/>
<path d="M31.888 14.2785H31.8352V14.3313V23.5991H29.1666V9.50103L34.5536 9.50152V14.2785H31.888Z" stroke="url(#paint31_linear_915_11423)" stroke-width="0.105566"/>
<path d="M33.7763 8.33599V9.39543H30.8858V8.33599H33.7763Z" fill="#8B39E5"/>
<path d="M33.7763 8.33599V9.39543H30.8858V8.33599H33.7763Z" fill="#8B39E5"/>
<path d="M33.7763 8.33599V9.39543H30.8858V8.33599H33.7763Z" stroke="url(#paint32_linear_915_11423)" stroke-width="0.105566"/>
<path d="M25.6761 3.50981V4.68036H22.3975V3.50981H25.6761Z" fill="#8B39E5"/>
<path d="M25.6761 3.50981V4.68036H22.3975V3.50981H25.6761Z" fill="#8B39E5"/>
<path d="M25.6761 3.50981V4.68036H22.3975V3.50981H25.6761Z" stroke="url(#paint33_linear_915_11423)" stroke-width="0.105566"/>
<path d="M13.4087 0.513721H16.4103V1.73965H13.4087V0.513721Z" fill="#8B39E5"/>
<path d="M13.4087 0.513721H16.4103V1.73965H13.4087V0.513721Z" fill="#8B39E5"/>
<path d="M13.4087 0.513721H16.4103V1.73965H13.4087V0.513721Z" stroke="url(#paint34_linear_915_11423)" stroke-width="0.105566"/>
</g>
<defs>
<linearGradient id="paint0_linear_915_11423" x1="11.7642" y1="20.6676" x2="4.86445" y2="20.533" gradientUnits="userSpaceOnUse">
<stop stop-color="#6D89CF"/>
<stop offset="1" stop-color="#EEEEFF" stop-opacity="0"/>
</linearGradient>
<linearGradient id="paint1_linear_915_11423" x1="19.1059" y1="19.6537" x2="10.8347" y2="19.5081" gradientUnits="userSpaceOnUse">
<stop stop-color="#6D89CF"/>
<stop offset="1" stop-color="#EEEEFF" stop-opacity="0"/>
</linearGradient>
<linearGradient id="paint2_linear_915_11423" x1="20.7274" y1="21.6736" x2="13.9334" y2="21.475" gradientUnits="userSpaceOnUse">
<stop stop-color="#6D89CF"/>
<stop offset="1" stop-color="#EEEEFF" stop-opacity="0"/>
</linearGradient>
<linearGradient id="paint3_linear_915_11423" x1="28.1518" y1="20.1915" x2="18.0378" y2="19.9399" gradientUnits="userSpaceOnUse">
<stop stop-color="#6D89CF"/>
<stop offset="1" stop-color="#EEEEFF" stop-opacity="0"/>
</linearGradient>
<linearGradient id="paint4_linear_915_11423" x1="34.8335" y1="21.0543" x2="27.5246" y2="20.8793" gradientUnits="userSpaceOnUse">
<stop stop-color="#6D89CF"/>
<stop offset="1" stop-color="#EEEEFF" stop-opacity="0"/>
</linearGradient>
<linearGradient id="paint5_linear_915_11423" x1="37.3294" y1="22.2372" x2="31.8669" y2="22.0601" gradientUnits="userSpaceOnUse">
<stop stop-color="#6D89CF"/>
<stop offset="1" stop-color="#EEEEFF" stop-opacity="0"/>
</linearGradient>
<linearGradient id="paint6_linear_915_11423" x1="33.9731" y1="9.25051" x2="30.0562" y2="8.63225" gradientUnits="userSpaceOnUse">
<stop stop-color="#6D89CF"/>
<stop offset="1" stop-color="#EEEEFF" stop-opacity="0"/>
</linearGradient>
<linearGradient id="paint7_linear_915_11423" x1="16.6202" y1="1.54242" x2="12.5348" y2="0.943406" gradientUnits="userSpaceOnUse">
<stop stop-color="#6D89CF"/>
<stop offset="1" stop-color="#EEEEFF" stop-opacity="0"/>
</linearGradient>
<linearGradient id="paint8_linear_915_11423" x1="25.8691" y1="4.49971" x2="21.4816" y2="3.77929" gradientUnits="userSpaceOnUse">
<stop stop-color="#6D89CF"/>
<stop offset="1" stop-color="#EEEEFF" stop-opacity="0"/>
</linearGradient>
<linearGradient id="paint9_linear_915_11423" x1="45.1002" y1="24.4694" x2="38.0287" y2="5.61848" gradientUnits="userSpaceOnUse">
<stop stop-color="#6D89CF"/>
<stop offset="1" stop-color="#EEEEFF" stop-opacity="0"/>
</linearGradient>
<linearGradient id="paint10_linear_915_11423" x1="4.14046" y1="21.3024" x2="0.747416" y2="21.1701" gradientUnits="userSpaceOnUse">
<stop stop-color="#6D89CF"/>
<stop offset="1" stop-color="#EEEEFF" stop-opacity="0"/>
</linearGradient>
<linearGradient id="paint11_linear_915_11423" x1="3.8001" y1="23.3577" x2="2.47063" y2="23.3066" gradientUnits="userSpaceOnUse">
<stop stop-color="#6D89CF"/>
<stop offset="1" stop-color="#EEEEFF" stop-opacity="0"/>
</linearGradient>
<linearGradient id="paint12_linear_915_11423" x1="41.7025" y1="21.3024" x2="38.3094" y2="21.1701" gradientUnits="userSpaceOnUse">
<stop stop-color="#6D89CF"/>
<stop offset="1" stop-color="#EEEEFF" stop-opacity="0"/>
</linearGradient>
<linearGradient id="paint13_linear_915_11423" x1="41.3627" y1="23.3577" x2="40.0333" y2="23.3066" gradientUnits="userSpaceOnUse">
<stop stop-color="#6D89CF"/>
<stop offset="1" stop-color="#EEEEFF" stop-opacity="0"/>
</linearGradient>
<linearGradient id="paint14_linear_915_11423" x1="17.6261" y1="15.3426" x2="16.0744" y2="15.2465" gradientUnits="userSpaceOnUse">
<stop stop-color="#6D89CF"/>
<stop offset="1" stop-color="#EEEEFF" stop-opacity="0"/>
</linearGradient>
<linearGradient id="paint15_linear_915_11423" x1="19.5674" y1="15.3426" x2="18.0157" y2="15.2465" gradientUnits="userSpaceOnUse">
<stop stop-color="#6D89CF"/>
<stop offset="1" stop-color="#EEEEFF" stop-opacity="0"/>
</linearGradient>
<linearGradient id="paint16_linear_915_11423" x1="17.6261" y1="20.0584" x2="16.0744" y2="19.9623" gradientUnits="userSpaceOnUse">
<stop stop-color="#6D89CF"/>
<stop offset="1" stop-color="#EEEEFF" stop-opacity="0"/>
</linearGradient>
<linearGradient id="paint17_linear_915_11423" x1="19.5674" y1="20.0584" x2="18.0157" y2="19.9623" gradientUnits="userSpaceOnUse">
<stop stop-color="#6D89CF"/>
<stop offset="1" stop-color="#EEEEFF" stop-opacity="0"/>
</linearGradient>
<linearGradient id="paint18_linear_915_11423" x1="17.6261" y1="17.6727" x2="16.0744" y2="17.5766" gradientUnits="userSpaceOnUse">
<stop stop-color="#6D89CF"/>
<stop offset="1" stop-color="#EEEEFF" stop-opacity="0"/>
</linearGradient>
<linearGradient id="paint19_linear_915_11423" x1="19.5674" y1="17.6727" x2="18.0157" y2="17.5766" gradientUnits="userSpaceOnUse">
<stop stop-color="#6D89CF"/>
<stop offset="1" stop-color="#EEEEFF" stop-opacity="0"/>
</linearGradient>
<linearGradient id="paint20_linear_915_11423" x1="17.6261" y1="22.3338" x2="16.0744" y2="22.2377" gradientUnits="userSpaceOnUse">
<stop stop-color="#6D89CF"/>
<stop offset="1" stop-color="#EEEEFF" stop-opacity="0"/>
</linearGradient>
<linearGradient id="paint21_linear_915_11423" x1="19.5674" y1="22.3338" x2="18.0157" y2="22.2377" gradientUnits="userSpaceOnUse">
<stop stop-color="#6D89CF"/>
<stop offset="1" stop-color="#EEEEFF" stop-opacity="0"/>
</linearGradient>
<linearGradient id="paint22_linear_915_11423" x1="34.8331" y1="17.4934" x2="33.4835" y2="17.4099" gradientUnits="userSpaceOnUse">
<stop stop-color="#6D89CF"/>
<stop offset="1" stop-color="#EEEEFF" stop-opacity="0"/>
</linearGradient>
<linearGradient id="paint23_linear_915_11423" x1="36.4971" y1="17.4934" x2="35.1476" y2="17.4099" gradientUnits="userSpaceOnUse">
<stop stop-color="#6D89CF"/>
<stop offset="1" stop-color="#EEEEFF" stop-opacity="0"/>
</linearGradient>
<linearGradient id="paint24_linear_915_11423" x1="34.8331" y1="19.4905" x2="33.4835" y2="19.407" gradientUnits="userSpaceOnUse">
<stop stop-color="#6D89CF"/>
<stop offset="1" stop-color="#EEEEFF" stop-opacity="0"/>
</linearGradient>
<linearGradient id="paint25_linear_915_11423" x1="36.4971" y1="19.4905" x2="35.1476" y2="19.407" gradientUnits="userSpaceOnUse">
<stop stop-color="#6D89CF"/>
<stop offset="1" stop-color="#EEEEFF" stop-opacity="0"/>
</linearGradient>
<linearGradient id="paint26_linear_915_11423" x1="34.8331" y1="21.4876" x2="33.4835" y2="21.404" gradientUnits="userSpaceOnUse">
<stop stop-color="#6D89CF"/>
<stop offset="1" stop-color="#EEEEFF" stop-opacity="0"/>
</linearGradient>
<linearGradient id="paint27_linear_915_11423" x1="36.4971" y1="21.4876" x2="35.1476" y2="21.404" gradientUnits="userSpaceOnUse">
<stop stop-color="#6D89CF"/>
<stop offset="1" stop-color="#EEEEFF" stop-opacity="0"/>
</linearGradient>
<linearGradient id="paint28_linear_915_11423" x1="11.7965" y1="20.6474" x2="4.85549" y2="20.511" gradientUnits="userSpaceOnUse">
<stop stop-color="#6D89CF"/>
<stop offset="1" stop-color="#EEEEFF" stop-opacity="0"/>
</linearGradient>
<linearGradient id="paint29_linear_915_11423" x1="19.1057" y1="19.6539" x2="10.8348" y2="19.5083" gradientUnits="userSpaceOnUse">
<stop stop-color="#6D89CF"/>
<stop offset="1" stop-color="#EEEEFF" stop-opacity="0"/>
</linearGradient>
<linearGradient id="paint30_linear_915_11423" x1="28.1517" y1="20.1915" x2="18.0378" y2="19.9399" gradientUnits="userSpaceOnUse">
<stop stop-color="#6D89CF"/>
<stop offset="1" stop-color="#EEEEFF" stop-opacity="0"/>
</linearGradient>
<linearGradient id="paint31_linear_915_11423" x1="34.834" y1="21.0534" x2="27.5251" y2="20.8784" gradientUnits="userSpaceOnUse">
<stop stop-color="#6D89CF"/>
<stop offset="1" stop-color="#EEEEFF" stop-opacity="0"/>
</linearGradient>
<linearGradient id="paint32_linear_915_11423" x1="33.9532" y1="9.23508" x2="30.0628" y2="8.61559" gradientUnits="userSpaceOnUse">
<stop stop-color="#6D89CF"/>
<stop offset="1" stop-color="#EEEEFF" stop-opacity="0"/>
</linearGradient>
<linearGradient id="paint33_linear_915_11423" x1="25.8691" y1="4.49968" x2="21.4816" y2="3.77925" gradientUnits="userSpaceOnUse">
<stop stop-color="#6D89CF"/>
<stop offset="1" stop-color="#EEEEFF" stop-opacity="0"/>
</linearGradient>
<linearGradient id="paint34_linear_915_11423" x1="16.5919" y1="1.54884" x2="12.5395" y2="0.963316" gradientUnits="userSpaceOnUse">
<stop stop-color="#6D89CF"/>
<stop offset="1" stop-color="#EEEEFF" stop-opacity="0"/>
</linearGradient>
<clipPath id="clip0_915_11423">
<rect width="43.7203" height="24" fill="white"/>
</clipPath>
</defs>
</svg>
