<svg width="24" height="24" viewBox="0 0 24 24" fill="none" xmlns="http://www.w3.org/2000/svg">
<path d="M1.5361 24H18.4321C19.2961 24 19.9681 23.328 19.9681 22.464V19.776L19.8722 19.8719L18.1441 21.2158C17.2802 21.8879 15.9361 21.4079 15.8402 20.2558C15.8402 20.1599 15.6482 17.6639 15.6482 17.8557V17.5678C15.6482 17.4718 16.2241 16.1277 16.1282 16.3198H2.68822C2.40025 16.3198 2.20819 16.1277 2.20819 15.8397C2.20819 15.5518 2.40023 15.3597 2.68822 15.3597H16.512C17.184 13.7277 20.16 6.71959 19.968 7.1038V1.53597C19.968 0.672044 19.2959 0 18.432 0H1.53597C0.672044 0 0 0.672044 0 1.53597V22.4639C0 23.3278 0.672044 23.9999 1.53597 23.9999L1.5361 24ZM2.68817 19.2001H9.12024C9.40821 19.2001 9.60027 19.3922 9.60027 19.6802C9.60027 19.9681 9.40823 20.1602 9.12024 20.1602H2.68817C2.4002 20.1602 2.20814 19.9682 2.20814 19.6802C2.20814 19.3922 2.49611 19.2001 2.68817 19.2001ZM5.28008 3.84001H14.6882C14.9761 3.84001 15.1682 4.03205 15.1682 4.32004C15.1682 4.60801 14.9762 4.80007 14.6882 4.80007H5.28008C5.08804 4.80007 4.80004 4.60804 4.80004 4.32004C4.80004 4.03207 5.08801 3.84001 5.28008 3.84001ZM2.68817 7.68009H17.2799C17.5679 7.68009 17.7599 7.87195 17.7599 8.16012C17.7599 8.44809 17.5679 8.64015 17.2799 8.64015H2.68817C2.49613 8.64015 2.20814 8.44811 2.20814 8.16012C2.20814 7.87197 2.49611 7.68009 2.68817 7.68009ZM2.68817 11.52H17.2799C17.5679 11.52 17.7599 11.712 17.7599 12C17.7599 12.288 17.5679 12.48 17.2799 12.48H2.68817C2.4002 12.48 2.20814 12.288 2.20814 12C2.20814 11.712 2.49611 11.52 2.68817 11.52Z" fill="#C7C7C7"/>
<path d="M16.7994 20.1603C16.7994 20.3523 16.8954 20.4483 17.0874 20.5444C17.1833 20.6403 17.4715 20.5444 17.5674 20.4485L19.1034 19.2005L16.6074 18.1445L16.7994 20.1603Z" fill="#C7C7C7"/>
<path d="M16.7998 17.2801L19.6799 18.4322L23.2318 9.79203L20.4478 8.64014L16.7998 17.2801Z" fill="#C7C7C7"/>
<path d="M23.0403 6.24031C22.3682 5.95234 21.4082 6.24031 21.0243 7.10424L20.7363 7.77628L23.6164 8.92836L23.9044 8.25631C24.1923 7.48835 23.8083 6.52829 23.0403 6.24036V6.24031Z" fill="#C7C7C7"/>
</svg>
