<svg width="18" height="12" viewBox="0 0 18 12" fill="none" xmlns="http://www.w3.org/2000/svg">
<path d="M17.9758 10.6749L17.407 8.17229C17.1416 7.01583 16.1179 6.20068 14.9424 6.20068C14.7907 6.20068 14.6581 6.27646 14.5633 6.39032L13.5964 7.79328C13.4637 7.96387 13.2173 7.96387 13.0845 7.79328L12.1177 6.39032C12.0419 6.27659 11.8902 6.20068 11.7386 6.20068C10.5632 6.20068 9.52042 7.01583 9.27392 8.17229L8.70514 10.6749C8.57236 11.2437 9.0085 11.7745 9.57729 11.7745H17.1038C17.6724 11.7745 18.1084 11.2436 17.9758 10.6749H17.9758Z" fill="#C7C7C7"/>
<path d="M13.3316 5.8203C14.6586 5.8203 15.7393 4.7396 15.7393 3.41255V2.40775C15.7393 1.0807 14.6586 0 13.3316 0C12.0045 0 10.9238 1.0807 10.9238 2.40775L10.924 3.43144C10.9429 4.7396 12.0235 5.82027 13.3316 5.82027L13.3316 5.8203Z" fill="#C7C7C7"/>
<path d="M9.48278 4.87372V2.42802C9.48278 2.06777 9.17941 1.7644 8.81917 1.7644L4.17435 1.76454C3.81411 1.76454 3.51074 2.0679 3.51074 2.42815V4.87372C3.51074 5.23396 3.81411 5.53733 4.17435 5.53733H4.49663V6.48525C4.49663 6.76957 4.83781 6.92126 5.04636 6.71271L6.24077 5.5183H8.81912C9.17936 5.53721 9.48259 5.23384 9.48259 4.87374L9.48278 4.87372ZM4.95172 4.09639C4.70522 4.09639 4.49668 3.88784 4.49668 3.64136C4.49668 3.39487 4.70523 3.18632 4.95172 3.18632C5.1982 3.18632 5.40675 3.39487 5.40675 3.64136C5.40675 3.90677 5.21711 4.09639 4.95172 4.09639ZM6.50637 4.09639C6.25987 4.09639 6.05134 3.88784 6.05134 3.64136C6.05134 3.39487 6.25989 3.18632 6.50637 3.18632C6.75286 3.18632 6.96141 3.39487 6.96141 3.64136C6.94237 3.90677 6.75286 4.09639 6.50637 4.09639ZM8.04197 4.09639C7.79547 4.09639 7.58694 3.88784 7.58694 3.64136C7.58694 3.39487 7.79549 3.18632 8.04197 3.18632C8.28846 3.18632 8.49701 3.39487 8.49701 3.64136C8.47796 3.90677 8.28846 4.09639 8.04197 4.09639Z" fill="#C7C7C7"/>
<path d="M5.97542 8.6449L5.04643 7.90552C4.85679 7.75383 4.57247 7.79179 4.4208 7.96238C4.2502 8.15202 4.13648 8.28466 4.11743 8.32263C3.83311 8.60695 3.24528 8.18985 2.63868 7.58325C2.03194 6.97651 1.61499 6.38883 1.8993 6.10449C1.93725 6.06654 2.05098 5.95281 2.25954 5.80113C2.44918 5.64944 2.46809 5.36512 2.31641 5.1755L1.57703 4.2465C1.44426 4.09482 1.23585 4.03795 1.04619 4.11373C0.799694 4.22746 0.344767 4.58769 0.23105 4.72047C-0.432562 5.38408 0.401645 6.91968 1.86147 8.37944C3.32131 9.83927 4.8569 10.6735 5.52045 10.0099C5.63418 9.89613 6.01333 9.44108 6.12718 9.19472C6.18405 8.98631 6.12718 8.77777 5.9755 8.64499L5.97542 8.6449Z" fill="#C7C7C7"/>
</svg>
