<svg width="14" height="14" viewBox="0 0 14 14" fill="none" xmlns="http://www.w3.org/2000/svg">
<g clip-path="url(#clip0_1246_17713)">
<path d="M8.63374 2.10673C8.63374 3.32319 7.753 4.30917 6.66648 4.30917C5.57996 4.30917 4.69922 3.32319 4.69922 2.10673C4.69922 0.890278 5.57996 -0.0957031 6.66648 -0.0957031C7.753 -0.0957031 8.63374 0.890278 8.63374 2.10673" fill="#C7C7C7"/>
<path d="M3.60826 8.47898C3.60826 8.05132 3.95041 7.73054 4.3567 7.73054H6.25985C6.34533 7.73054 6.40955 7.66642 6.40955 7.58083L6.53789 6.21231C6.53789 6.16957 6.51652 6.10535 6.49515 6.0626L5.81082 5.37828C5.76808 5.33553 5.70386 5.31416 5.66111 5.33553C4.91267 5.50661 4.07875 5.78455 3.75797 6.21231C3.26609 6.87514 2.98816 8.35063 2.90269 8.92798C2.88132 9.05632 2.9668 9.16318 3.09514 9.16318H3.48004C3.56553 9.16318 3.62975 9.09907 3.62975 9.01347L3.62964 8.47898L3.60826 8.47898Z" fill="#C7C7C7"/>
<path d="M10.0657 6.21231C9.74486 5.78466 8.88959 5.50662 8.16251 5.33553C8.09839 5.31416 8.05554 5.33553 8.0128 5.37828L7.32847 6.0626C7.28573 6.10535 7.26436 6.14809 7.28573 6.21231L7.41406 7.58083C7.41406 7.66632 7.47818 7.73054 7.56377 7.73054H9.53103C9.95869 7.73054 10.2795 8.07269 10.2795 8.47898L10.2796 8.99222C10.2796 9.0777 10.3437 9.14193 10.4293 9.14193H10.7501C10.8784 9.14193 10.9639 9.03496 10.9425 8.90673C10.8355 8.35063 10.5362 6.87525 10.0656 6.21231L10.0657 6.21231Z" fill="#C7C7C7"/>
<path d="M14.0004 13.846L12.9741 10.5529C12.9313 10.446 12.8457 10.3818 12.7389 10.3818H10.408C10.3225 10.3818 10.2583 10.4459 10.2583 10.5315V12.007C10.2583 12.4347 9.91612 12.7768 9.48847 12.7768H4.35636C3.9287 12.7768 3.58655 12.4347 3.58655 12.007V10.5315C3.58655 10.4461 3.52244 10.3818 3.43684 10.3818H1.06343C0.956466 10.3818 0.870979 10.4459 0.828236 10.5529L-0.198242 13.846V14.8296C-0.198242 14.958 -0.0912781 15.0648 0.0369519 15.0648H13.7224C13.8507 15.0648 13.9576 14.9579 13.9576 14.8296L14.0004 13.846Z" fill="#C7C7C7"/>
<path d="M9.33908 12.1355H4.46347C4.31377 12.1355 4.18555 12.0072 4.18555 11.8576V8.62851C4.18555 8.47881 4.31388 8.35059 4.46347 8.35059H9.3388C9.48851 8.35059 9.61673 8.47892 9.61673 8.62851V11.8576C9.61684 12.0072 9.4885 12.1355 9.33891 12.1355H9.33908Z" fill="#C7C7C7"/>
</g>
<defs>
<clipPath id="clip0_1246_17713">
<rect width="14" height="14" fill="white"/>
</clipPath>
</defs>
</svg>
