<svg width="14" height="14" viewBox="0 0 14 14" fill="none" xmlns="http://www.w3.org/2000/svg">
<path d="M0.439156 1.61312e-05C0.322553 -0.00046646 0.21064 0.0450902 0.12813 0.12665C0.0457066 0.208113 -0.000483683 0.318819 3.8201e-06 0.434054V8.00217C0.000296797 8.11307 0.0437541 8.21972 0.121295 8.29994C0.198835 8.38014 0.304693 8.42773 0.416796 8.43304C0.528907 8.43825 0.638868 8.4007 0.723723 8.32812L2.62588 6.70321H8.85842C8.97444 6.70369 9.08596 6.65852 9.1683 6.57773C9.25072 6.49704 9.2972 6.3872 9.29769 6.27253V0.434042C9.29808 0.318796 9.25199 0.20809 9.16947 0.126637C9.08705 0.0450779 8.97504 -0.000478042 8.85844 3.78348e-06L0.439156 1.61312e-05ZM10.1727 2.94582V6.27239V6.27577C10.1699 6.9819 9.56949 7.57067 8.85503 7.56788L4.70551 7.56797V9.21478C4.7058 9.32896 4.7517 9.43851 4.83334 9.51939C4.91508 9.60017 5.02572 9.64583 5.14134 9.64631H11.3776L13.2771 11.2704H13.277C13.3619 11.3426 13.4716 11.3798 13.5834 11.3745C13.6952 11.3692 13.8008 11.3218 13.8782 11.2419C13.9558 11.1621 13.9993 11.0559 14 10.9453V3.37716C13.9998 3.26288 13.9538 3.15343 13.8722 3.07255C13.7905 2.99167 13.6798 2.94601 13.5642 2.94563L10.1727 2.94582Z" fill="#C7C7C7"/>
</svg>
