<svg width="15" height="18" viewBox="0 0 15 18" fill="none" xmlns="http://www.w3.org/2000/svg">
<path d="M7.1186 5.86147C7.55156 5.86147 7.96666 5.6912 8.27283 5.38792C8.57881 5.08466 8.75088 4.67349 8.75088 4.24458C8.75088 3.81586 8.57883 3.40451 8.27283 3.10123C7.96668 2.79813 7.5516 2.62769 7.1186 2.62769C6.68561 2.62769 6.27055 2.79811 5.96438 3.10123C5.65839 3.40449 5.48633 3.81582 5.48633 4.24458C5.48633 4.67345 5.65838 5.08464 5.96438 5.38792C6.27053 5.69118 6.68561 5.86147 7.1186 5.86147Z" fill="#C7C7C7"/>
<path d="M4.46648 9.09516H9.77124C9.82137 9.10299 9.87213 9.08654 9.90802 9.05098C9.94392 9.01542 9.96053 8.96514 9.95262 8.91549V8.80317C9.95879 8.14027 9.69565 7.50271 9.22236 7.0339C8.74909 6.5652 8.10547 6.30455 7.43626 6.31053H6.8015C6.13229 6.30457 5.48867 6.56523 5.01539 7.0339C4.54212 7.50271 4.27899 8.14027 4.28514 8.80317V8.91549C4.27723 8.96514 4.29384 9.01543 4.32973 9.05098C4.36563 9.08654 4.41639 9.10299 4.46652 9.09516H4.46648Z" fill="#C7C7C7"/>
<path d="M11.7431 0.000366211H2.49373C1.83416 0.00616194 1.20321 0.268382 0.736894 0.730316C0.270541 1.19239 0.00582941 1.81724 0 2.4706V15.3605C0.00585086 16.0139 0.270566 16.6387 0.736894 17.1008C1.20325 17.5627 1.83416 17.825 2.49373 17.8307H11.7431C12.4026 17.8249 13.0336 17.5627 13.4999 17.1008C13.9663 16.6387 14.231 16.0139 14.2368 15.3605V2.4706C14.2309 1.81724 13.9662 1.19239 13.4999 0.730316C13.0335 0.268358 12.4026 0.00614068 11.7431 0.000366211ZM12.8766 15.3605C12.8709 15.6565 12.7496 15.9388 12.5382 16.1481C12.3269 16.3575 12.0419 16.4777 11.743 16.4833H2.49372C2.19485 16.4777 1.90988 16.3575 1.69861 16.1481C1.48718 15.9388 1.3659 15.6565 1.3602 15.3605V2.47056C1.3659 2.1745 1.48718 1.89223 1.69861 1.68294C1.90988 1.47351 2.19484 1.35337 2.49372 1.34773H11.743C12.0419 1.35337 12.3269 1.47351 12.5382 1.68294C12.7496 1.89222 12.8709 2.1745 12.8766 2.47056V15.3605Z" fill="#C7C7C7"/>
<path d="M10.6546 10.869H3.80832C3.62616 10.8628 3.44936 10.9317 3.32048 11.0594C3.19144 11.1872 3.12186 11.3623 3.12835 11.5428C3.12835 11.7215 3.19998 11.8929 3.32744 12.0191C3.45505 12.1455 3.62805 12.2165 3.80832 12.2165H10.6546C10.8351 12.2165 11.0081 12.1455 11.1355 12.0191C11.2631 11.8929 11.3348 11.7215 11.3348 11.5428C11.3411 11.3623 11.2715 11.1872 11.1426 11.0594C11.0136 10.9317 10.837 10.8628 10.6546 10.869H10.6546Z" fill="#C7C7C7"/>
<path d="M10.6546 13.5641H3.80832C3.62616 13.5577 3.44936 13.6266 3.32048 13.7545C3.19144 13.8821 3.12186 14.0572 3.12835 14.2377C3.12835 14.4164 3.19998 14.5878 3.32744 14.7141C3.45505 14.8405 3.62805 14.9114 3.80832 14.9114H10.6546C10.8351 14.9114 11.0081 14.8405 11.1355 14.7141C11.2631 14.5878 11.3348 14.4164 11.3348 14.2377C11.3411 14.0573 11.2715 13.8821 11.1426 13.7545C11.0136 13.6266 10.837 13.5577 10.6546 13.5641H10.6546Z" fill="#C7C7C7"/>
</svg>
