<svg width="18" height="18" viewBox="0 0 18 18" fill="none" xmlns="http://www.w3.org/2000/svg">
<path fill-rule="evenodd" clip-rule="evenodd" d="M9.53625 1.70688L15.318 7.55727C15.5925 7.83628 15.75 8.22512 15.75 8.62509V14.8406C15.75 15.6591 15.1147 16.3247 14.334 16.3247H12V9.64616C12 9.23654 11.6648 8.9041 11.25 8.9041H6.75C6.33525 8.9041 6 9.23654 6 9.64616V16.3247H3.66675C2.886 16.3247 2.25 15.6591 2.25 14.8406V8.62509C2.25 8.22512 2.4075 7.83628 2.68125 7.55801L8.46375 1.70688C8.7465 1.42119 9.2535 1.42119 9.53625 1.70688ZM10.5 15.5828H7.5V10.3884H10.5V15.5828Z" fill="#C7C7C7"/>
</svg>
