<svg width="17" height="16" viewBox="0 0 17 16" fill="none" xmlns="http://www.w3.org/2000/svg">
<path d="M6.01447 10.5293C6.2078 9.88547 6.64289 9.33923 7.23047 9.00276C7.3994 8.90897 7.51941 8.74772 7.55991 8.56037C7.60766 8.34553 7.56119 8.12076 7.43184 7.94195C7.25976 7.70158 7.16835 7.41375 7.17034 7.1192C7.16392 6.68397 7.36436 6.27115 7.71166 6.00399C7.99803 5.79423 8.36963 5.73544 8.70794 5.84621C9.12309 5.98793 9.43139 6.33629 9.5186 6.76218C9.62367 7.17361 9.54253 7.61 9.29632 7.95745C9.17012 8.12978 9.12529 8.34773 9.17339 8.55519C9.21542 8.74878 9.33788 8.91603 9.51078 9.01571C10.0936 9.3502 10.5263 9.89124 10.7215 10.5293C10.073 11.0995 9.2355 11.4143 8.368 11.4143C7.50049 11.4143 6.66297 11.0995 6.01447 10.5293V10.5293ZM5.86283 5.44006C6.7196 4.58462 7.96067 4.22505 9.14849 4.48795C10.3363 4.75096 11.3043 5.59959 11.7109 6.73477C12.1175 7.86995 11.9057 9.13221 11.1504 10.0767C10.8843 9.42309 10.4046 8.87649 9.78787 8.52432C9.75402 8.50399 9.73102 8.46992 9.72518 8.43122C9.71327 8.38052 9.72273 8.32727 9.75133 8.28372C10.0997 7.80345 10.2155 7.19541 10.0677 6.62262C9.9338 6.00317 9.47955 5.49966 8.87262 5.29787C8.36175 5.14298 7.80677 5.23908 7.37949 5.55661C6.9731 5.87146 6.70472 6.32888 6.62977 6.83398C6.55482 7.33921 6.67903 7.85366 6.97672 8.27077C7.01115 8.31974 7.02353 8.38062 7.01069 8.43895C7.0059 8.4706 6.98792 8.49878 6.96107 8.51657C6.33884 8.86584 5.85412 9.41288 5.58551 10.069C5.0513 9.39591 4.78477 8.5525 4.83639 7.6982C4.88787 6.84379 5.25398 6.03781 5.86536 5.43243L5.86283 5.44006Z" fill="#C7C7C7"/>
<path d="M15.8081 9.09302L14.8772 8.15637C14.9518 8.15556 15.0231 8.12588 15.0759 8.07355C15.1298 8.02111 15.16 7.94927 15.1596 7.87442C15.1344 6.4269 14.6379 5.02604 13.7438 3.87986C12.8498 2.7338 11.606 1.90366 10.197 1.51278C8.78801 1.12202 7.28928 1.19121 5.92328 1.71041C4.55741 2.22951 3.39723 3.17077 2.61491 4.39433L1.53223 3.82766C2.43278 2.34953 3.79714 1.20312 5.4174 0.563468C7.03755 -0.0762113 8.82471 -0.174146 10.5064 0.28452C12.1881 0.743186 13.6722 1.73343 14.732 3.10413C15.7917 4.47483 16.37 6.15098 16.3777 7.87696C16.3791 8.03174 16.5063 8.15637 16.6628 8.15637H16.736L15.8081 9.09302Z" fill="#C7C7C7"/>
<path d="M8.38124 15.8308C6.28629 15.8211 4.27819 15.0024 2.78419 13.5492C1.29049 12.096 0.429381 10.123 0.384432 8.05079C0.381514 7.89844 0.255899 7.77647 0.102034 7.77647H0L0.928318 6.83728L1.85921 7.77647C1.78986 7.78039 1.7246 7.80996 1.67616 7.85928C1.62304 7.91322 1.59385 7.98588 1.59514 8.06107C1.63997 9.81561 2.37346 11.484 3.64012 12.7126C4.90689 13.9414 6.60723 14.6339 8.38123 14.6433C9.49308 14.6455 10.5883 14.376 11.5695 13.8588C12.5507 13.3415 13.3877 12.5925 14.006 11.6783L15.0781 12.245V12.2449C14.355 13.35 13.3627 14.2575 12.1925 14.8842C11.0223 15.5108 9.71172 15.8364 8.38114 15.831L8.38124 15.8308Z" fill="#C7C7C7"/>
</svg>
