<svg width="658" height="370" viewBox="0 0 658 370" fill="none" xmlns="http://www.w3.org/2000/svg">
<path d="M62.0006 34H605.001V362.815C605.001 366.783 601.784 370 597.815 370H69.1858C65.2175 370 62.0006 366.783 62.0006 362.815V34Z" fill="#F4F6FB"/>
<path d="M62.2506 8C62.2506 3.71979 65.7204 0.25 70.0006 0.25H597.001C601.281 0.25 604.751 3.71979 604.751 8V33.75H62.2506V8Z" fill="white" stroke="#808080" stroke-width="0.5"/>
<rect opacity="0.5" x="0.5" y="168.5" width="79.7547" height="61.972" rx="2.54715" stroke="#B5B5B5"/>
<path d="M51.8747 197.355C53.5151 198.302 53.5151 200.67 51.8747 201.617L31.3396 213.473C29.6993 214.42 27.6489 213.236 27.6489 211.342L27.6489 187.63C27.6489 185.736 29.6993 184.552 31.3396 185.499L51.8747 197.355Z" fill="#FF7979"/>
<rect opacity="0.5" x="16.8204" y="176.89" width="45.3709" height="41.7965" fill="white"/>
<rect opacity="0.5" x="575.5" y="46.5" width="81.1042" height="63.0243" rx="3.64135" stroke="#B5B5B5"/>
<path d="M625.23 78.0124C626.203 78.0124 627.137 78.3992 627.825 79.0877C628.514 79.7761 628.901 80.7099 628.901 81.6835V92.6968C628.901 93.6704 628.514 94.6042 627.825 95.2926C627.137 95.9811 626.203 96.3679 625.23 96.3679H606.874C605.9 96.3679 604.967 95.9811 604.278 95.2926C603.59 94.6042 603.203 93.6704 603.203 92.6968V81.6835C603.203 80.7099 603.59 79.7761 604.278 79.0877C604.967 78.3992 605.9 78.0124 606.874 78.0124V68.8347C606.874 66.4006 607.841 64.0662 609.562 62.3451C611.283 60.6239 613.618 59.657 616.052 59.657C618.486 59.657 620.82 60.6239 622.541 62.3451C624.263 64.0662 625.23 66.4006 625.23 68.8347V78.0124ZM616.052 90.8612C617.025 90.8612 617.959 90.4745 618.648 89.786C619.336 89.0975 619.723 88.1638 619.723 87.1902C619.723 86.2165 619.336 85.2828 618.648 84.5943C617.959 83.9058 617.025 83.5191 616.052 83.5191C615.078 83.5191 614.144 83.9058 613.456 84.5943C612.768 85.2828 612.381 86.2165 612.381 87.1902C612.381 88.1638 612.768 89.0975 613.456 89.786C614.144 90.4745 615.078 90.8612 616.052 90.8612ZM621.558 78.0124V68.8347C621.558 67.3743 620.978 65.9736 619.946 64.9409C618.913 63.9082 617.512 63.3281 616.052 63.3281C614.591 63.3281 613.191 63.9082 612.158 64.9409C611.125 65.9736 610.545 67.3743 610.545 68.8347V78.0124H621.558Z" fill="url(#paint0_linear_111_1289)"/>
<rect opacity="0.5" x="591.836" y="52.4814" width="48.9601" height="47.0879" fill="white"/>
<path d="M475.63 237.193L432.146 211.665L397.989 262.496C417.944 279.149 451.467 291.26 468.79 287.562C504.34 279.972 576.179 179.035 586.147 171.351C620.081 145.19 631.112 135.262 588.65 155.59C548.167 174.97 569.609 155.59 559.69 155.59C547.775 156.422 551.723 166.998 556.146 174.576L475.63 237.193Z" fill="url(#paint1_linear_111_1289)"/>
<path d="M228.899 198.522C241.168 190.002 289.644 174.656 310.934 168.048L333.459 170.505C347.65 174.024 378.091 180.022 392.093 185.699C406.095 191.375 431.506 209.478 455.212 224.575L449.615 243.96C444.588 261.369 431.294 275.177 414.088 280.859C409.66 309.017 405.841 354.796 406.472 368.987L241.732 368.86L234.189 299.183L200.265 302.817L171.609 280.859C207.491 218.795 213.564 209.171 228.899 198.522Z" fill="url(#paint2_linear_111_1289)"/>
<path d="M228.899 198.522C241.168 190.002 289.644 174.656 310.934 168.048L333.459 170.505C347.65 174.024 378.091 180.022 392.093 185.699C406.095 191.375 431.506 209.478 455.212 224.575L449.615 243.96C444.588 261.369 431.294 275.177 414.088 280.859C409.66 309.017 405.841 354.796 406.472 368.987L241.732 368.86L234.189 299.183L200.265 302.817L171.609 280.859C207.491 218.795 213.564 209.171 228.899 198.522Z" fill="url(#paint3_linear_111_1289)"/>
<path d="M181.77 358.629C129.573 352.011 163.522 299.109 172.776 281.638C183.969 291.06 197.792 296.809 212.366 298.104L230.353 299.702L222.987 316.693L302.507 335.31L313.663 366.259C305.717 364.906 246.679 366.86 181.77 358.629Z" fill="url(#paint4_linear_111_1289)"/>
<path d="M316.486 29.1563C319.055 24.5106 326.422 18.0067 335.342 29.1563H316.486Z" fill="#30235B"/>
<ellipse cx="320.768" cy="188.309" rx="28.4327" ry="20.2613" fill="#6868D1"/>
<path d="M297.471 187.221L301.445 147.648H340.138L344.583 187.221C343.029 191.881 335.695 201.335 322.113 201.335C304.803 201.335 298.581 191.881 297.471 187.221Z" fill="url(#paint5_linear_111_1289)"/>
<mask id="mask0_111_1289" style="mask-type:alpha" maskUnits="userSpaceOnUse" x="297" y="147" width="48" height="55">
<path d="M297.471 187.221L301.445 147.648H340.138L344.591 187.301C343.038 191.961 335.678 201.336 322.096 201.336C304.786 201.336 298.581 191.881 297.471 187.221Z" fill="url(#paint6_linear_111_1289)"/>
</mask>
<g mask="url(#mask0_111_1289)">
<path opacity="0.1" d="M354.083 149.162C319.097 192.451 299.546 157.645 289.447 152.424L296.386 123.159L337.812 118.213L354.083 149.162Z" fill="black"/>
</g>
<path d="M320.097 163.534C278.369 163.534 271.194 103.637 284.086 76.2398C313.095 40.7848 349.356 61.4669 363.86 76.2398C367.352 99.0706 371.202 163.534 320.097 163.534Z" fill="url(#paint7_linear_111_1289)"/>
<path d="M364.572 117.712L356.397 111.689L357.662 107.205L366.999 113.362L364.572 117.712Z" fill="#111111"/>
<path d="M279.398 115.965L287.573 109.942L286.308 105.459L276.971 111.616L279.398 115.965Z" fill="#111111"/>
<path d="M286.878 79.8396C316.462 99.1138 349.258 87.8705 361.958 79.8396C359.284 88.2734 363.072 104.485 365.301 111.536C384.55 86.4685 378.257 72.9321 372.704 69.2974C371.779 56.8039 360.421 25.5669 322.293 27.0476C284.165 28.5283 276.766 55.5699 277.846 65.5956C263.409 85.215 271.999 104.397 278.961 111.536C286.878 96.1659 286.698 85.3835 286.878 79.8396Z" fill="#343C44"/>
<g filter="url(#filter0_d_111_1289)">
<path d="M325.323 46.3375C281.158 44.8592 271.321 73.9035 270.001 90.7695C269.895 92.1199 268.791 93.1835 267.436 93.1835C265.991 93.1835 264.839 91.9782 264.967 90.5387C266.895 68.9135 278.424 31.1249 325.323 33.7304C372.677 36.3612 381.94 74.0584 380.487 95.0723C380.409 96.1966 379.459 97.0467 378.332 97.0467C377.103 97.0467 376.116 96.0492 376.067 94.8207C375.371 77.3851 363.779 47.4521 325.323 46.3375Z" fill="white"/>
</g>
<g filter="url(#filter1_d_111_1289)">
<rect x="381.372" y="103.943" width="5.99437" height="23.0035" rx="2.99719" transform="rotate(10.0542 381.372 103.943)" fill="#24C28A"/>
</g>
<g filter="url(#filter2_d_111_1289)">
<rect x="368.493" y="89.0297" width="18.4644" height="47.9197" rx="9.23221" transform="rotate(10.0542 368.493 89.0297)" fill="white"/>
</g>
<g filter="url(#filter3_d_111_1289)">
<rect width="5.99437" height="23.0035" rx="2.99719" transform="matrix(-0.984643 0.17458 0.17458 0.984643 262.145 103.943)" fill="#24C28A"/>
</g>
<g filter="url(#filter4_d_111_1289)">
<rect width="18.4644" height="47.9197" rx="9.23221" transform="matrix(-0.984643 0.17458 0.17458 0.984643 274.856 89.0297)" fill="white"/>
</g>
<mask id="mask1_111_1289" style="mask-type:alpha" maskUnits="userSpaceOnUse" x="258" y="90" width="24" height="48">
<rect width="18.4644" height="47.9197" rx="9.23221" transform="matrix(-0.984643 0.17458 0.17458 0.984643 274.856 89.0297)" fill="white"/>
</mask>
<g mask="url(#mask1_111_1289)">
<rect x="266.161" y="89.0297" width="24.0181" height="52.0177" transform="rotate(-10.0977 266.161 89.0297)" fill="#E8E8E8"/>
</g>
<mask id="mask2_111_1289" style="mask-type:alpha" maskUnits="userSpaceOnUse" x="361" y="90" width="25" height="48">
<rect x="368.493" y="89.0297" width="18.4644" height="47.9197" rx="9.23221" transform="rotate(10.0542 368.493 89.0297)" fill="white"/>
</mask>
<g mask="url(#mask2_111_1289)">
<rect width="24.0181" height="52.0177" transform="matrix(-0.98451 -0.175326 -0.175326 0.98451 378.308 89.0297)" fill="#E8E8E8"/>
</g>
<path opacity="0.5" d="M302.117 124.708C296.213 124.708 293.241 120.055 292.485 117.978C291.616 116.241 290.93 111.714 292.987 108.118C295.603 103.547 307.896 102.272 312.202 108.73C316.508 115.189 312.202 124.708 302.117 124.708Z" fill="#E6FCFF"/>
<path opacity="0.5" d="M341.232 124.708C347.136 124.708 350.108 120.055 350.864 117.978C351.733 116.241 352.419 111.714 350.362 108.118C347.746 103.547 335.453 102.272 331.147 108.73C326.841 115.189 331.147 124.708 341.232 124.708Z" fill="#E6FCFF"/>
<path fill-rule="evenodd" clip-rule="evenodd" d="M315.252 107.305C305.624 98.8501 296.928 102.428 291.775 104.547L291.775 104.547C291.202 104.783 290.673 105.001 290.191 105.182L286.869 105.188C286.314 105.189 285.866 105.642 285.871 106.197L285.897 109.098C285.902 109.647 286.348 110.09 286.897 110.09L289.323 110.09C287.634 124.596 298.331 128.478 306.887 125.863C314.514 123.532 316.556 116.936 316.964 112.798C318.596 109.183 325.749 110.853 326.032 112.718C326.039 112.761 326.046 112.81 326.054 112.864C326.39 115.134 328.081 126.572 340.959 126.588C351.506 126.602 354.367 117.179 354.479 112.465L357.304 112.44C357.856 112.435 358.3 111.984 358.295 111.432L358.264 107.924C358.259 107.372 357.807 106.928 357.255 106.933L354.43 106.958C347.559 99.9974 332.801 100.649 327.602 107.196C321.867 105.873 316.979 106.717 315.252 107.305ZM302.117 124.708C296.213 124.708 293.241 120.055 292.485 117.978C291.617 116.24 290.931 111.714 292.987 108.118C295.603 103.546 307.896 102.272 312.202 108.73C316.508 115.189 312.202 124.708 302.117 124.708ZM350.865 117.978C350.11 120.055 347.137 124.708 341.233 124.708C331.148 124.708 326.843 115.189 331.148 108.73C335.454 102.272 347.748 103.546 350.363 108.118C352.42 111.714 351.734 116.24 350.865 117.978Z" fill="#111111"/>
<path d="M238.242 363.116C238.242 362.509 238.734 362.017 239.342 362.017H408.358C409.421 362.017 410.283 362.878 410.283 363.941C410.283 367.13 407.698 369.715 404.509 369.715H244.841C241.196 369.715 238.242 366.761 238.242 363.116Z" fill="#B4B4B4"/>
<rect x="238.242" y="249.769" width="172.041" height="115.106" rx="2.94666" fill="url(#paint8_linear_111_1289)"/>
<circle cx="324.262" cy="307.322" r="12.2351" fill="white"/>
<path fill-rule="evenodd" clip-rule="evenodd" d="M107.322 22.412C109.683 22.412 111.598 20.4947 111.598 18.1296C111.598 15.7645 109.683 13.8472 107.322 13.8472C104.961 13.8472 103.046 15.7645 103.046 18.1296C103.046 20.4947 104.961 22.412 107.322 22.412Z" fill="#808080" stroke="#808080" stroke-width="0.5"/>
<path fill-rule="evenodd" clip-rule="evenodd" d="M91.9298 22.412C94.2911 22.412 96.2054 20.4947 96.2054 18.1296C96.2054 15.7645 94.2911 13.8472 91.9298 13.8472C89.5684 13.8472 87.6542 15.7645 87.6542 18.1296C87.6542 20.4947 89.5684 22.412 91.9298 22.412Z" fill="#808080" stroke="#808080" stroke-width="0.5"/>
<path fill-rule="evenodd" clip-rule="evenodd" d="M76.5377 22.412C78.899 22.412 80.8133 20.4947 80.8133 18.1296C80.8133 15.7645 78.899 13.8472 76.5377 13.8472C74.1763 13.8472 72.2621 15.7645 72.2621 18.1296C72.2621 20.4947 74.1763 22.412 76.5377 22.412Z" fill="#808080" stroke="#808080" stroke-width="0.5"/>
<defs>
<filter id="filter0_d_111_1289" x="230.958" y="3.60242" width="183.669" height="131.444" filterUnits="userSpaceOnUse" color-interpolation-filters="sRGB">
<feFlood flood-opacity="0" result="BackgroundImageFix"/>
<feColorMatrix in="SourceAlpha" type="matrix" values="0 0 0 0 0 0 0 0 0 0 0 0 0 0 0 0 0 0 127 0" result="hardAlpha"/>
<feOffset dy="4"/>
<feGaussianBlur stdDeviation="17"/>
<feColorMatrix type="matrix" values="0 0 0 0 0.0386285 0 0 0 0 0.0648437 0 0 0 0 0.104167 0 0 0 0.13 0"/>
<feBlend mode="normal" in2="BackgroundImageFix" result="effect1_dropShadow_111_1289"/>
<feBlend mode="normal" in="SourceGraphic" in2="effect1_dropShadow_111_1289" result="shape"/>
</filter>
<filter id="filter1_d_111_1289" x="343.832" y="74.4199" width="76.9648" height="90.7432" filterUnits="userSpaceOnUse" color-interpolation-filters="sRGB">
<feFlood flood-opacity="0" result="BackgroundImageFix"/>
<feColorMatrix in="SourceAlpha" type="matrix" values="0 0 0 0 0 0 0 0 0 0 0 0 0 0 0 0 0 0 127 0" result="hardAlpha"/>
<feOffset dy="4"/>
<feGaussianBlur stdDeviation="17"/>
<feColorMatrix type="matrix" values="0 0 0 0 0.0386285 0 0 0 0 0.0648437 0 0 0 0 0.104167 0 0 0 0.13 0"/>
<feBlend mode="normal" in2="BackgroundImageFix" result="effect1_dropShadow_111_1289"/>
<feBlend mode="normal" in="SourceGraphic" in2="effect1_dropShadow_111_1289" result="shape"/>
</filter>
<filter id="filter2_d_111_1289" x="327.595" y="60.4982" width="91.6097" height="115.47" filterUnits="userSpaceOnUse" color-interpolation-filters="sRGB">
<feFlood flood-opacity="0" result="BackgroundImageFix"/>
<feColorMatrix in="SourceAlpha" type="matrix" values="0 0 0 0 0 0 0 0 0 0 0 0 0 0 0 0 0 0 127 0" result="hardAlpha"/>
<feOffset dy="4"/>
<feGaussianBlur stdDeviation="17"/>
<feColorMatrix type="matrix" values="0 0 0 0 0.0386285 0 0 0 0 0.0648437 0 0 0 0 0.104167 0 0 0 0.13 0"/>
<feBlend mode="normal" in2="BackgroundImageFix" result="effect1_dropShadow_111_1289"/>
<feBlend mode="normal" in="SourceGraphic" in2="effect1_dropShadow_111_1289" result="shape"/>
</filter>
<filter id="filter3_d_111_1289" x="222.719" y="74.4199" width="76.9648" height="90.7432" filterUnits="userSpaceOnUse" color-interpolation-filters="sRGB">
<feFlood flood-opacity="0" result="BackgroundImageFix"/>
<feColorMatrix in="SourceAlpha" type="matrix" values="0 0 0 0 0 0 0 0 0 0 0 0 0 0 0 0 0 0 127 0" result="hardAlpha"/>
<feOffset dy="4"/>
<feGaussianBlur stdDeviation="17"/>
<feColorMatrix type="matrix" values="0 0 0 0 0.0386285 0 0 0 0 0.0648437 0 0 0 0 0.104167 0 0 0 0.13 0"/>
<feBlend mode="normal" in2="BackgroundImageFix" result="effect1_dropShadow_111_1289"/>
<feBlend mode="normal" in="SourceGraphic" in2="effect1_dropShadow_111_1289" result="shape"/>
</filter>
<filter id="filter4_d_111_1289" x="224.143" y="60.4982" width="91.6097" height="115.47" filterUnits="userSpaceOnUse" color-interpolation-filters="sRGB">
<feFlood flood-opacity="0" result="BackgroundImageFix"/>
<feColorMatrix in="SourceAlpha" type="matrix" values="0 0 0 0 0 0 0 0 0 0 0 0 0 0 0 0 0 0 127 0" result="hardAlpha"/>
<feOffset dy="4"/>
<feGaussianBlur stdDeviation="17"/>
<feColorMatrix type="matrix" values="0 0 0 0 0.0386285 0 0 0 0 0.0648437 0 0 0 0 0.104167 0 0 0 0.13 0"/>
<feBlend mode="normal" in2="BackgroundImageFix" result="effect1_dropShadow_111_1289"/>
<feBlend mode="normal" in="SourceGraphic" in2="effect1_dropShadow_111_1289" result="shape"/>
</filter>
<linearGradient id="paint0_linear_111_1289" x1="616.052" y1="59.657" x2="616.052" y2="96.3679" gradientUnits="userSpaceOnUse">
<stop stop-color="#FFD5B7"/>
<stop offset="1" stop-color="#FFAB6D"/>
</linearGradient>
<linearGradient id="paint1_linear_111_1289" x1="486.722" y1="89.0353" x2="489.619" y2="281.562" gradientUnits="userSpaceOnUse">
<stop stop-color="#FFEFE0"/>
<stop offset="1" stop-color="#FFBE99"/>
</linearGradient>
<linearGradient id="paint2_linear_111_1289" x1="324.148" y1="134.89" x2="310.574" y2="406.75" gradientUnits="userSpaceOnUse">
<stop stop-color="#FF9F81"/>
<stop offset="1" stop-color="#F53838"/>
</linearGradient>
<linearGradient id="paint3_linear_111_1289" x1="328.07" y1="135.009" x2="315.588" y2="405.989" gradientUnits="userSpaceOnUse">
<stop stop-color="#1C65AB"/>
<stop offset="1" stop-color="#10375C"/>
</linearGradient>
<linearGradient id="paint4_linear_111_1289" x1="307.656" y1="230.432" x2="177.744" y2="292.694" gradientUnits="userSpaceOnUse">
<stop offset="0.0677966" stop-color="#FFEFE0"/>
<stop offset="1" stop-color="#FFBE99"/>
</linearGradient>
<linearGradient id="paint5_linear_111_1289" x1="319.693" y1="105.078" x2="321.97" y2="177.752" gradientUnits="userSpaceOnUse">
<stop stop-color="#FFEFE0"/>
<stop offset="1" stop-color="#FFBE99"/>
</linearGradient>
<linearGradient id="paint6_linear_111_1289" x1="319.693" y1="105.078" x2="316.502" y2="187.872" gradientUnits="userSpaceOnUse">
<stop stop-color="#FFEFE0"/>
<stop offset="1" stop-color="#FFBE99"/>
</linearGradient>
<linearGradient id="paint7_linear_111_1289" x1="323.477" y1="66.3327" x2="323.477" y2="153.603" gradientUnits="userSpaceOnUse">
<stop stop-color="#FFEFE0"/>
<stop offset="1" stop-color="#FFBE99"/>
</linearGradient>
<linearGradient id="paint8_linear_111_1289" x1="359.787" y1="163.381" x2="296.178" y2="391.625" gradientUnits="userSpaceOnUse">
<stop offset="0.0171777" stop-color="white"/>
<stop offset="1" stop-color="#D7D7D7"/>
</linearGradient>
</defs>
</svg>
