<svg width="28" height="24" viewBox="0 0 28 24" fill="none" xmlns="http://www.w3.org/2000/svg">
<path d="M2.94225 14.8786H2.9557H11.5411H12.2793L12.0055 15.564L9.74471 21.2237L9.73803 21.2404L2.94225 14.8786ZM2.94225 14.8786C2.26231 14.8752 1.56355 14.6141 1.08913 14.1908C0.625514 13.7772 0.396031 13.2351 0.545934 12.6062L3.0761 3.02749C3.2827 2.30371 3.57951 1.66038 3.97998 1.20585C4.36906 0.764245 4.8535 0.500252 5.48876 0.500252H5.48877L14.4457 0.5C14.5847 0.5 14.8961 0.54444 15.3664 0.649159C15.8219 0.750567 16.3896 0.899882 17.0202 1.0894C18.1921 1.44161 19.5648 1.92771 20.8208 2.49222L20.8201 13.0718V13.0886L20.8204 13.093C20.8201 13.1005 20.819 13.1186 20.8149 13.1463C20.8064 13.2025 20.7852 13.2999 20.7307 13.4293C20.623 13.6854 20.3768 14.087 19.8064 14.5491L19.8064 14.5491C19.4979 14.799 19.2011 15.0049 18.8988 15.2147C18.0487 15.8044 17.1548 16.4246 15.8359 18.1382L2.94225 14.8786ZM11.8997 23.2543L11.9001 23.2537C12.72 22.1944 14.0733 20.4325 14.9924 19.2358C15.3681 18.7467 15.6713 18.352 15.8358 18.1383L11.8997 23.2543ZM11.8997 23.2543C11.8877 23.2698 11.8775 23.2833 11.8684 23.2953M11.8997 23.2543L11.8684 23.2953M11.8684 23.2953C11.8322 23.3433 11.8146 23.3667 11.7758 23.3968M11.8684 23.2953L11.7758 23.3968M11.7758 23.3968C11.7372 23.4269 11.6604 23.4737 11.5044 23.4935L11.7758 23.3968ZM9.7314 21.2541L9.73153 21.2538L11.5041 23.4935C11.3374 23.5145 11.1827 23.4814 11.063 23.4374C11.0042 23.4158 10.958 23.3931 10.9285 23.3771C10.9139 23.3692 10.9039 23.3632 10.8989 23.3601C10.8988 23.3601 10.8987 23.36 10.8986 23.3599L10.0715 22.7715L10.0642 22.7662L10.0597 22.7633L10.0595 22.7632L10.0593 22.7631L10.0591 22.7629L10.0506 22.7569C10.0414 22.7502 10.0259 22.7385 10.006 22.7223C9.96565 22.6894 9.90998 22.6397 9.85258 22.576C9.73292 22.4433 9.63471 22.2821 9.61013 22.1083C9.57808 21.8818 9.6078 21.6647 9.64974 21.4982C9.67035 21.4163 9.69287 21.3508 9.70934 21.3076C9.71753 21.2862 9.72408 21.2707 9.72795 21.2618L9.7314 21.2541ZM26.6089 3.52764V10.7348C26.6089 11.2582 26.1848 11.6824 25.6617 11.6824H23.3269V2.58038H25.6617C26.1847 2.58038 26.6089 3.00448 26.6089 3.52764Z" fill="white" stroke="#FF725E"/>
</svg>
