<svg width="32" height="24" viewBox="0 0 32 24" fill="none" xmlns="http://www.w3.org/2000/svg">
<path d="M16 13.64L3.71 2.3C4.11228 2.10515 4.55302 2.00265 5 2L27 2C27.447 2.00265 27.8877 2.10515 28.29 2.3L16 13.64ZM29.7 3.71L16.7 15.71C16.5151 15.8815 16.2722 15.9768 16.02 15.9768C15.7678 15.9768 15.5249 15.8815 15.34 15.71L2.34 3.71C2.13128 4.10903 2.01508 4.54993 2 5L2 19C2 19.7956 2.31607 20.5587 2.87868 21.1213C3.44129 21.6839 4.20435 22 5 22L27 22C27.7956 22 28.5587 21.6839 29.1213 21.1213C29.6839 20.5587 30 19.7956 30 19L30 5C29.9974 4.55302 29.8949 4.11228 29.7 3.71Z" fill="#8B39E5"/>
<path d="M16 13.64L3.71 2.3C4.11228 2.10515 4.55302 2.00265 5 2L27 2C27.447 2.00265 27.8877 2.10515 28.29 2.3L16 13.64ZM29.7 3.71L16.7 15.71C16.5151 15.8815 16.2722 15.9768 16.02 15.9768C15.7678 15.9768 15.5249 15.8815 15.34 15.71L2.34 3.71C2.13128 4.10903 2.01508 4.54993 2 5L2 19C2 19.7956 2.31607 20.5587 2.87868 21.1213C3.44129 21.6839 4.20435 22 5 22L27 22C27.7956 22 28.5587 21.6839 29.1213 21.1213C29.6839 20.5587 30 19.7956 30 19L30 5C29.9974 4.55302 29.8949 4.11228 29.7 3.71Z" fill="#8B39E5"/>
</svg>
