<svg width="54" height="60" viewBox="0 0 54 60" fill="none" xmlns="http://www.w3.org/2000/svg">
<path d="M7.565 5.22168C7.26537 5.27792 7.0509 5.53768 7.05615 5.83737V11.5117L2.51616 12.6271C2.35542 12.6679 2.21739 12.77 2.13309 12.9104C2.0488 13.0513 2.02477 13.2191 2.06627 13.3771L7.01674 32.2471C7.02591 32.287 7.03901 32.3257 7.05605 32.3626V52.002C7.05605 52.342 7.33646 52.6173 7.68196 52.6173H12.4176L13.9634 57.7145C14.0586 58.0365 14.3976 58.2241 14.7264 58.1378L35.2538 52.6366C35.2734 52.631 35.2931 52.625 35.3123 52.6172H45.2526C45.5986 52.6172 45.879 52.342 45.879 52.002V47.6935H49.0099C49.3558 47.6935 49.6362 47.4178 49.6362 47.0778V45.2311H51.5144C51.8603 45.2311 52.1407 44.9555 52.1407 44.6158V40.2107C52.1407 36.1516 49.2257 32.7864 45.3313 31.9208C47.1195 31.1677 48.3836 29.4095 48.3836 27.3813C48.3836 25.5659 47.3729 23.9843 45.8791 23.1303V15.6861C45.883 15.5217 45.8197 15.3624 45.7031 15.2439L35.6841 5.39542C35.564 5.28121 35.4015 5.21853 35.2342 5.2224H7.6825C7.66328 5.22154 7.64363 5.22154 7.62397 5.2224C7.60432 5.22154 7.58466 5.22154 7.56545 5.2224L7.565 5.22168ZM8.30841 6.4526H34.6077V15.6853C34.6077 16.0254 34.8882 16.301 35.2341 16.301H44.6267V22.6292C44.2236 22.5257 43.8095 22.4562 43.3745 22.4562C40.6153 22.4562 38.365 24.6682 38.365 27.3804C38.365 29.4087 39.6291 31.1668 41.4177 31.92C37.5229 32.7855 34.6078 36.1508 34.6078 40.2099V44.615C34.6078 44.9546 34.8882 45.2303 35.2342 45.2303H37.1128V47.0769C37.1128 47.417 37.3928 47.6926 37.7387 47.6926H44.6269V51.3855H8.30873L8.30841 6.4526ZM35.8601 7.3375L43.7266 15.0701H35.8601V7.3375ZM7.05606 12.7812V27.4569L3.43599 13.6649L7.05606 12.7812ZM13.8267 19.9943C13.4807 20.026 13.2265 20.3274 13.2589 20.6675C13.2916 21.0071 13.5983 21.257 13.9437 21.2252H26.4672C26.635 21.2274 26.7966 21.1638 26.9158 21.0479C27.0355 20.9324 27.1023 20.7744 27.1023 20.6095C27.1023 20.4447 27.0355 20.2871 26.9158 20.1712C26.7966 20.0557 26.635 19.9917 26.4672 19.9943H13.9437C13.9245 19.993 13.9049 19.993 13.8852 19.9943C13.8656 19.9934 13.8459 19.9934 13.8267 19.9943L13.8267 19.9943ZM43.3743 23.6872C45.4564 23.6872 47.1311 25.3333 47.1311 27.3805C47.1311 29.4272 45.4564 31.0733 43.3743 31.0733C41.2917 31.0733 39.617 29.4272 39.617 27.3805C39.617 25.3333 41.2917 23.6872 43.3743 23.6872ZM13.8267 25.5338C13.4807 25.5656 13.2265 25.867 13.2589 26.207C13.2916 26.5471 13.5983 26.7965 13.9437 26.7648H32.729C32.8967 26.7673 33.0583 26.7034 33.1776 26.5879C33.2972 26.4719 33.3641 26.3139 33.3641 26.1495C33.3641 25.9846 33.2972 25.8266 33.1776 25.7111C33.0583 25.5952 32.8967 25.5317 32.729 25.5338H13.9437C13.9245 25.5329 13.9049 25.5329 13.8852 25.5338C13.8656 25.5329 13.8459 25.5329 13.8267 25.5338L13.8267 25.5338ZM13.8267 31.0732C13.4807 31.1054 13.2265 31.4068 13.2589 31.7465C13.2916 32.0865 13.5983 32.3364 13.9437 32.3046H32.729C32.8967 32.3068 33.0583 32.2428 33.1776 32.1273C33.2972 32.0118 33.3641 31.8538 33.3641 31.6889C33.3641 31.524 33.2972 31.366 33.1776 31.2505C33.0583 31.1351 32.8967 31.0711 32.729 31.0732H13.9437C13.9245 31.0724 13.9049 31.0724 13.8852 31.0732C13.8656 31.0724 13.8459 31.0724 13.8267 31.0732L13.8267 31.0732ZM43.3743 32.9199C47.5512 32.9199 50.8883 36.1598 50.8883 40.2098V43.9993H49.0096C48.6637 43.9993 48.3833 44.2749 48.3833 44.615V46.4612H38.3647V44.615C38.3647 44.2749 38.0843 43.9993 37.7384 43.9993H35.8597V40.2098C35.8597 36.1597 39.1968 32.9199 43.3742 32.9199H43.3743ZM13.8267 36.6132C13.4807 36.645 13.2265 36.9464 13.2589 37.2864C13.2916 37.6265 13.5983 37.8759 13.9437 37.8442H26.4672C26.635 37.8463 26.7966 37.7828 26.9158 37.6668C27.0355 37.5513 27.1023 37.3933 27.1023 37.2285C27.1023 37.064 27.0355 36.906 26.9158 36.7901C26.7966 36.6746 26.635 36.6106 26.4672 36.6132H13.9437C13.9245 36.6123 13.9049 36.6123 13.8852 36.6132C13.8656 36.6123 13.8459 36.6123 13.8267 36.6132L13.8267 36.6132ZM13.7092 52.6166H30.5578L15.0018 56.7908L13.7092 52.6166Z" fill="#C2C2C2"/>
</svg>
