<svg width="24" height="24" viewBox="0 0 24 24" fill="none" xmlns="http://www.w3.org/2000/svg">
<path d="M11.0998 3.65V5.925C11.0998 6.25 11.3498 6.5 11.6748 6.5C11.9998 6.5 12.2498 6.25 12.2498 5.925V3.65C12.9998 3.4 13.5498 2.7 13.5498 1.875C13.5498 0.85 12.6998 0 11.6748 0C10.6498 0 9.7998 0.85 9.7998 1.875C9.7998 2.7 10.3498 3.4 11.0998 3.65Z" fill="#8B39E5"/>
<path d="M11.0998 3.65V5.925C11.0998 6.25 11.3498 6.5 11.6748 6.5C11.9998 6.5 12.2498 6.25 12.2498 5.925V3.65C12.9998 3.4 13.5498 2.7 13.5498 1.875C13.5498 0.85 12.6998 0 11.6748 0C10.6498 0 9.7998 0.85 9.7998 1.875C9.7998 2.7 10.3498 3.4 11.0998 3.65Z" fill="#8B39E5"/>
<path d="M4.75039 6.625C5.05039 6.625 5.32539 6.55 5.60039 6.425L7.20039 8.025C7.32539 8.15 7.47539 8.2 7.62539 8.2C7.77539 8.2 7.92539 8.15 8.05039 8.025C8.27539 7.8 8.27539 7.425 8.05039 7.2L6.45039 5.6C6.57539 5.35 6.65039 5.075 6.65039 4.75C6.65039 3.725 5.80039 2.875 4.77539 2.875C3.75039 2.875 2.90039 3.725 2.90039 4.75C2.90039 5.775 3.70039 6.625 4.75039 6.625Z" fill="#8B39E5"/>
<path d="M4.75039 6.625C5.05039 6.625 5.32539 6.55 5.60039 6.425L7.20039 8.025C7.32539 8.15 7.47539 8.2 7.62539 8.2C7.77539 8.2 7.92539 8.15 8.05039 8.025C8.27539 7.8 8.27539 7.425 8.05039 7.2L6.45039 5.6C6.57539 5.35 6.65039 5.075 6.65039 4.75C6.65039 3.725 5.80039 2.875 4.77539 2.875C3.75039 2.875 2.90039 3.725 2.90039 4.75C2.90039 5.775 3.70039 6.625 4.75039 6.625Z" fill="#8B39E5"/>
<path d="M6.5 11.6748C6.5 11.3498 6.25 11.0998 5.925 11.0998H3.65C3.4 10.3498 2.7 9.7998 1.875 9.7998C0.85 9.7998 0 10.6498 0 11.6748C0 12.6998 0.85 13.5498 1.875 13.5498C2.7 13.5498 3.4 12.9998 3.65 12.2498H5.925C6.225 12.2498 6.5 11.9998 6.5 11.6748Z" fill="#8B39E5"/>
<path d="M6.5 11.6748C6.5 11.3498 6.25 11.0998 5.925 11.0998H3.65C3.4 10.3498 2.7 9.7998 1.875 9.7998C0.85 9.7998 0 10.6498 0 11.6748C0 12.6998 0.85 13.5498 1.875 13.5498C2.7 13.5498 3.4 12.9998 3.65 12.2498H5.925C6.225 12.2498 6.5 11.9998 6.5 11.6748Z" fill="#8B39E5"/>
<path d="M21.4746 9.7998C20.6496 9.7998 19.9496 10.3498 19.6996 11.0998H17.4246C17.0996 11.0998 16.8496 11.3498 16.8496 11.6748C16.8496 11.9998 17.0996 12.2498 17.4246 12.2498H19.6996C19.9496 12.9998 20.6496 13.5498 21.4746 13.5498C22.4996 13.5498 23.3496 12.6998 23.3496 11.6748C23.3496 10.6498 22.4996 9.7998 21.4746 9.7998Z" fill="#8B39E5"/>
<path d="M21.4746 9.7998C20.6496 9.7998 19.9496 10.3498 19.6996 11.0998H17.4246C17.0996 11.0998 16.8496 11.3498 16.8496 11.6748C16.8496 11.9998 17.0996 12.2498 17.4246 12.2498H19.6996C19.9496 12.9998 20.6496 13.5498 21.4746 13.5498C22.4996 13.5498 23.3496 12.6998 23.3496 11.6748C23.3496 10.6498 22.4996 9.7998 21.4746 9.7998Z" fill="#8B39E5"/>
<path d="M15.75 8.175C15.9 8.175 16.05 8.125 16.175 8L17.775 6.4C18.025 6.525 18.3 6.6 18.625 6.6C19.65 6.6 20.5 5.75 20.5 4.725C20.5 3.7 19.65 2.875 18.6 2.875C17.575 2.875 16.725 3.725 16.725 4.75C16.725 5.05 16.8 5.325 16.925 5.6L15.325 7.2C15.1 7.425 15.1 7.8 15.325 8.025C15.45 8.125 15.6 8.175 15.75 8.175Z" fill="#8B39E5"/>
<path d="M15.75 8.175C15.9 8.175 16.05 8.125 16.175 8L17.775 6.4C18.025 6.525 18.3 6.6 18.625 6.6C19.65 6.6 20.5 5.75 20.5 4.725C20.5 3.7 19.65 2.875 18.6 2.875C17.575 2.875 16.725 3.725 16.725 4.75C16.725 5.05 16.8 5.325 16.925 5.6L15.325 7.2C15.1 7.425 15.1 7.8 15.325 8.025C15.45 8.125 15.6 8.175 15.75 8.175Z" fill="#8B39E5"/>
<path d="M13.9003 16.2251C13.2253 16.5751 12.4753 16.7501 11.6753 16.7501C10.8753 16.7501 10.1253 16.5751 9.45029 16.2251C7.97529 16.6001 6.87529 17.8251 6.67529 19.3751L6.30028 22.4251C6.25028 22.8251 6.50028 23.1751 6.90029 23.2751C8.40029 23.6001 10.0003 23.7501 11.6753 23.7501C13.3503 23.7501 14.9503 23.6001 16.4503 23.2751C16.8503 23.1751 17.1003 22.8251 17.0503 22.4251L16.6753 19.3751C16.5003 17.8251 15.3753 16.6001 13.9003 16.2251Z" fill="#8B39E5"/>
<path d="M13.9003 16.2251C13.2253 16.5751 12.4753 16.7501 11.6753 16.7501C10.8753 16.7501 10.1253 16.5751 9.45029 16.2251C7.97529 16.6001 6.87529 17.8251 6.67529 19.3751L6.30028 22.4251C6.25028 22.8251 6.50028 23.1751 6.90029 23.2751C8.40029 23.6001 10.0003 23.7501 11.6753 23.7501C13.3503 23.7501 14.9503 23.6001 16.4503 23.2751C16.8503 23.1751 17.1003 22.8251 17.0503 22.4251L16.6753 19.3751C16.5003 17.8251 15.3753 16.6001 13.9003 16.2251Z" fill="#8B39E5"/>
<path d="M11.6748 15.125C13.6078 15.125 15.1748 13.558 15.1748 11.625C15.1748 9.692 13.6078 8.125 11.6748 8.125C9.74181 8.125 8.1748 9.692 8.1748 11.625C8.1748 13.558 9.74181 15.125 11.6748 15.125Z" fill="#8B39E5"/>
<path d="M11.6748 15.125C13.6078 15.125 15.1748 13.558 15.1748 11.625C15.1748 9.692 13.6078 8.125 11.6748 8.125C9.74181 8.125 8.1748 9.692 8.1748 11.625C8.1748 13.558 9.74181 15.125 11.6748 15.125Z" fill="#8B39E5"/>
</svg>
