<svg width="28" height="24" viewBox="0 0 28 24" fill="none" xmlns="http://www.w3.org/2000/svg">
<path d="M9.84897 22.2762H5.79442L9.50094 16.9715L12.4396 23.9998H15.3271L18.2651 16.9715L21.9716 22.2762H17.9175L16.6491 24H27.767C27.1147 17.2687 23.6018 20.8493 18.5889 17.1276C21.0197 16.3307 23.0881 14.9512 22.4547 13.0085C22.1608 12.1078 21.5205 10.6662 20.7027 9.06437C20.7608 8.63481 20.7912 8.19428 20.7912 7.74449C20.7912 3.46742 18.16 0 13.8835 0C9.60625 0 6.97592 3.46725 6.97592 7.74449C6.97592 8.17405 7.00347 8.59503 7.05555 9.00542C6.23064 10.6285 5.58847 12.0937 5.30374 13.0085C4.69838 14.9508 6.75964 16.3294 9.17968 17.127C4.16551 20.8499 0.652307 17.2673 0 23.9999H11.1173L9.84897 22.2762Z" fill="#C7C7C7"/>
</svg>
