<svg width="33" height="32" viewBox="0 0 33 32" fill="none" xmlns="http://www.w3.org/2000/svg">
<path fill-rule="evenodd" clip-rule="evenodd" d="M12.1284 13.8615C15.9506 13.8615 19.0589 10.7531 19.0589 6.93092C19.0589 3.10872 15.9506 0.000366211 12.1284 0.000366211C8.30616 0.000366211 5.1978 3.10872 5.1978 6.93092C5.1978 10.7531 8.30616 13.8615 12.1284 13.8615ZM31.1876 5.19813H29.4549V3.4655C29.4549 2.51255 28.6752 1.73286 27.7223 1.73286C26.7693 1.73286 25.9896 2.51255 25.9896 3.4655V5.19813H24.257C23.3041 5.19813 22.5244 5.97782 22.5244 6.93077C22.5244 7.88372 23.3041 8.66341 24.257 8.66341H25.9896V10.396C25.9896 11.349 26.7693 12.1287 27.7223 12.1287C28.6752 12.1287 29.4549 11.349 29.4549 10.396V8.66341H31.1876C32.1405 8.66341 32.9202 7.88372 32.9202 6.93077C32.9202 5.97782 32.1405 5.19813 31.1876 5.19813ZM24.2569 29.4551C24.2569 30.4115 23.4824 31.1877 22.5243 31.1877H1.73264C0.774489 31.1877 0 30.4115 0 29.4551C0 22.7671 5.44222 17.3266 12.1285 17.3266C18.8147 17.3266 24.2569 22.7671 24.2569 29.4551Z" fill="#C2C2C2"/>
</svg>
