<svg width="468" height="426" viewBox="0 0 468 426" fill="none" xmlns="http://www.w3.org/2000/svg">
<g clip-path="url(#clip0_147_1275)">
<path d="M426.153 305.927C417.924 293.277 419.084 275.25 429.001 263.759C432.061 260.175 436.386 257.118 441.028 257.54C445.776 257.961 449.679 262.073 451.156 266.606C452.633 271.139 452.105 276.094 451.261 280.837C450.101 287.479 448.097 294.226 443.455 299.18C438.707 304.03 431.955 309.09 426.153 305.927Z" fill="#F37168"/>
<path d="M430.689 366.754C427.524 359.48 429.845 350.309 435.964 345.249C437.863 343.668 440.395 342.508 442.716 343.14C445.142 343.773 446.725 346.198 447.147 348.728C447.463 351.258 446.725 353.682 445.881 356.107C444.615 359.375 443.032 362.748 440.184 364.857C437.335 366.965 433.432 368.968 430.689 366.754Z" fill="#F37168"/>
<path d="M410.749 362.432C413.07 351.258 407.162 338.818 396.929 333.547C393.764 331.861 389.86 330.912 386.695 332.493C383.425 334.074 381.842 338.08 382.159 341.665C382.475 345.249 384.163 348.622 386.062 351.679C388.805 356.002 392.076 360.218 396.718 362.327C401.36 364.646 407.479 366.333 410.749 362.432Z" fill="#F37168"/>
<path d="M412.121 332.071C416.13 319.316 409.378 303.819 398.195 296.44C394.713 294.12 390.282 292.539 386.484 294.015C382.475 295.491 380.26 299.918 380.049 304.241C379.943 308.457 381.526 312.569 383.425 316.364C386.063 321.74 389.439 327.011 394.502 330.068C399.672 333.231 407.901 336.288 412.121 332.071Z" fill="#F37168"/>
<path d="M420.139 394.48C420.139 394.48 420.034 394.269 420.034 393.847C419.928 393.425 419.928 392.793 419.717 392.055C419.611 391.633 419.612 391.212 419.506 390.79C419.401 390.368 419.295 389.841 419.189 389.314C418.978 388.26 418.768 386.995 418.451 385.624C418.24 384.992 418.135 384.254 417.924 383.516C417.713 382.778 417.501 382.04 417.29 381.197C416.868 379.616 416.235 377.929 415.602 376.242C414.336 372.763 412.648 369.074 410.644 365.278C408.639 361.483 406.424 358.11 404.209 355.158C403.048 353.682 402.098 352.312 400.938 351.047C400.41 350.414 399.883 349.782 399.355 349.255C398.828 348.728 398.301 348.2 397.879 347.673C396.929 346.619 395.979 345.776 395.241 345.038C394.819 344.616 394.502 344.3 394.186 343.984C393.869 343.667 393.553 343.351 393.236 343.14C392.709 342.613 392.287 342.297 391.865 341.981C391.548 341.664 391.443 341.559 391.443 341.559C391.443 341.559 391.654 341.664 391.97 341.875C392.287 342.192 392.814 342.508 393.342 343.035C393.658 343.246 393.975 343.562 394.397 343.878C394.713 344.195 395.135 344.511 395.557 344.933C396.401 345.67 397.351 346.514 398.3 347.568C398.828 348.095 399.25 348.622 399.777 349.149C400.305 349.782 400.832 350.309 401.36 350.941C402.52 352.206 403.47 353.577 404.63 355.053C406.846 358.005 409.062 361.483 411.066 365.278C413.071 369.074 414.653 372.869 416.024 376.348C416.657 378.14 417.185 379.721 417.607 381.408C417.818 382.251 418.029 382.989 418.24 383.727C418.451 384.465 418.556 385.203 418.767 385.835C419.084 387.206 419.295 388.471 419.506 389.525C419.612 390.052 419.717 390.579 419.717 391.106C419.717 391.528 419.822 392.055 419.822 392.371C419.928 393.109 419.928 393.742 420.034 394.163C420.139 394.269 420.139 394.48 420.139 394.48Z" fill="#263238"/>
<path d="M419.822 396.799C419.822 396.799 419.822 396.694 419.822 396.588C419.822 396.377 419.822 396.166 419.928 395.85C420.033 395.112 420.033 394.163 420.139 393.004C420.244 392.371 420.244 391.739 420.35 391.001C420.455 390.263 420.455 389.42 420.455 388.576C420.561 386.784 420.666 384.781 420.666 382.567C420.666 381.513 420.666 380.354 420.666 379.088C420.666 377.929 420.561 376.664 420.455 375.293C420.35 372.658 420.033 369.917 419.717 367.071C418.873 361.273 417.712 354.947 415.813 348.517C413.914 342.086 411.488 336.077 408.956 330.806C407.584 328.171 406.424 325.746 405.052 323.427C404.419 322.267 403.786 321.213 403.153 320.159C402.52 319.105 401.887 318.156 401.254 317.207C400.094 315.31 398.828 313.728 397.878 312.253C397.351 311.515 396.929 310.882 396.401 310.25C395.979 309.617 395.452 309.09 395.135 308.668C394.397 307.719 393.764 306.982 393.342 306.454C393.131 306.244 393.025 306.033 392.92 305.822C392.814 305.717 392.814 305.611 392.814 305.611C392.814 305.611 392.92 305.717 393.025 305.822C393.131 305.927 393.342 306.138 393.553 306.349C393.975 306.876 394.608 307.614 395.452 308.563C395.874 309.09 396.296 309.617 396.823 310.144C397.245 310.777 397.773 311.409 398.3 312.147C399.355 313.518 400.621 315.099 401.782 316.996C402.415 317.945 403.048 318.894 403.681 319.948C404.314 321.002 404.947 322.057 405.58 323.216C406.951 325.43 408.217 327.96 409.483 330.596C412.015 335.866 414.442 341.875 416.446 348.411C418.345 354.947 419.611 361.273 420.35 367.071C420.666 370.022 420.983 372.763 421.088 375.399C421.088 376.664 421.194 377.929 421.194 379.194C421.194 380.354 421.194 381.513 421.194 382.673C421.194 384.887 421.088 386.89 420.983 388.682C420.877 389.525 420.877 390.368 420.772 391.106C420.666 391.844 420.561 392.582 420.561 393.109C420.455 394.269 420.244 395.218 420.244 395.956C420.244 396.272 420.139 396.483 420.139 396.693C419.822 396.693 419.822 396.799 419.822 396.799Z" fill="#263238"/>
<path d="M441.345 272.826C441.345 272.826 441.345 272.931 441.239 273.037C441.134 273.247 441.028 273.458 440.923 273.669C440.606 274.302 440.079 275.145 439.551 276.199C439.235 276.726 438.918 277.359 438.496 277.991C438.18 278.729 437.758 279.467 437.441 280.205C437.019 281.048 436.597 281.892 436.175 282.735C435.753 283.684 435.331 284.633 434.909 285.687C434.487 286.741 433.96 287.795 433.538 288.955C433.116 290.114 432.588 291.274 432.166 292.539C431.955 293.172 431.639 293.804 431.428 294.437C431.217 295.069 431.006 295.702 430.795 296.44C430.373 297.81 429.845 299.181 429.423 300.551C427.63 306.244 426.047 312.569 424.57 319.21C423.198 325.957 422.249 332.388 421.511 338.291C420.878 344.195 420.455 349.571 420.35 353.999C420.244 356.212 420.244 358.321 420.244 360.008C420.244 361.8 420.244 363.276 420.244 364.541C420.244 365.806 420.244 366.754 420.244 367.387C420.244 367.703 420.244 367.914 420.244 368.125C420.244 368.336 420.244 368.336 420.244 368.336C420.244 368.336 420.244 368.23 420.244 368.125C420.244 367.914 420.244 367.703 420.244 367.387C420.244 366.649 420.139 365.7 420.139 364.541C420.033 363.276 420.034 361.8 420.034 360.008C420.034 358.215 420.033 356.213 420.139 353.893C420.244 349.36 420.666 344.089 421.194 338.08C421.827 332.177 422.777 325.746 424.148 318.999C425.52 312.253 427.208 305.927 429.001 300.235C429.529 298.864 429.951 297.494 430.373 296.123C430.584 295.491 430.795 294.753 431.006 294.12C431.217 293.488 431.533 292.855 431.744 292.223C432.271 290.958 432.694 289.798 433.116 288.639C433.538 287.479 434.065 286.425 434.593 285.371C435.015 284.316 435.436 283.368 435.964 282.419C436.386 281.47 436.914 280.627 437.23 279.889C437.652 279.151 438.074 278.413 438.391 277.675C438.707 277.042 439.129 276.41 439.446 275.883C440.079 274.829 440.606 273.985 440.923 273.458C441.134 273.247 441.239 273.037 441.345 272.826C441.345 272.826 441.345 272.72 441.345 272.826Z" fill="#263238"/>
<path d="M438.496 350.414C438.496 350.414 438.18 350.941 437.652 351.996C437.019 352.944 436.175 354.42 435.226 356.212C434.276 358.005 433.221 360.218 432.061 362.643C431.006 365.068 429.951 367.914 429.001 370.866C428.052 373.817 427.419 376.664 426.891 379.405C426.364 382.04 426.047 384.465 425.836 386.468C425.625 388.471 425.519 390.157 425.414 391.317C425.308 392.477 425.309 393.109 425.309 393.109C425.309 393.109 425.203 392.477 425.203 391.317C425.203 390.157 425.203 388.471 425.414 386.468C425.519 384.465 425.836 382.04 426.364 379.299C426.891 376.664 427.524 373.712 428.474 370.76C429.423 367.809 430.478 364.962 431.533 362.538C432.694 360.113 433.749 357.899 434.804 356.107C435.859 354.315 436.703 352.944 437.336 351.996C438.18 350.836 438.496 350.309 438.496 350.414Z" fill="#263238"/>
<path d="M403.892 388.892H440.184L435.859 425.895H408.428L403.892 388.892Z" fill="url(#paint0_linear_147_1275)"/>
<path d="M405.158 421.889L408.323 425.895H435.859L439.023 422.099L405.158 421.889Z" fill="url(#paint1_linear_147_1275)"/>
<path d="M438.812 399.751C438.812 399.856 431.322 400.067 421.932 400.067C412.648 400.067 405.052 399.961 405.052 399.751C405.052 399.645 412.543 399.434 421.932 399.434C431.216 399.434 438.812 399.645 438.812 399.751Z" fill="#FAFAFA"/>
<path d="M438.812 402.175C438.812 402.281 431.322 402.491 421.932 402.491C412.648 402.491 405.052 402.386 405.052 402.175C405.052 402.07 412.543 401.859 421.932 401.859C431.216 401.964 438.812 402.07 438.812 402.175Z" fill="#FAFAFA"/>
<path d="M438.285 404.6C438.285 404.705 431.006 404.916 422.038 404.916C413.071 404.916 405.791 404.811 405.791 404.6C405.791 404.495 413.071 404.284 422.038 404.284C431.111 404.389 438.285 404.495 438.285 404.6Z" fill="#FAFAFA"/>
<path d="M405.852 0.316162H133.556C122.479 0.316162 113.406 9.27681 113.406 20.4513C113.406 31.5203 122.373 40.5864 133.556 40.5864H328.626H358.693H405.852C416.929 40.5864 426.002 31.6257 426.002 20.4513C426.002 9.27681 416.929 0.316162 405.852 0.316162Z" fill="white"/>
<path d="M406.379 40.481H367.028V0.316162H406.379C417.14 0.316162 425.896 9.06598 425.896 19.8188V20.873C426.002 31.7312 417.245 40.481 406.379 40.481Z" fill="url(#paint2_linear_147_1275)"/>
<path d="M393.402 25.8278C388.549 25.8278 384.646 21.9272 384.646 17.0779C384.646 12.2286 388.549 8.32812 393.402 8.32812C398.256 8.32812 402.159 12.2286 402.159 17.0779C402.159 21.9272 398.256 25.8278 393.402 25.8278ZM393.402 9.59316C389.288 9.59316 385.912 12.9666 385.912 17.0779C385.912 21.1893 389.288 24.5627 393.402 24.5627C397.517 24.5627 400.893 21.1893 400.893 17.0779C400.893 12.9666 397.623 9.59316 393.402 9.59316Z" fill="white"/>
<path d="M406.59 31.415C406.379 31.415 406.274 31.3096 406.168 31.2041L398.467 23.5085C398.256 23.2977 398.256 22.876 398.467 22.5597C398.678 22.3489 399.1 22.3489 399.416 22.5597L407.118 30.2554C407.329 30.4662 407.329 30.8879 407.118 31.2041C406.907 31.415 406.696 31.415 406.59 31.415Z" fill="white"/>
<path d="M150.014 19.9242C150.014 19.9242 149.908 19.7134 149.908 19.1863C149.908 18.9755 149.908 18.6592 149.803 18.3429C149.697 18.0267 149.697 17.605 149.592 17.1833C149.381 16.34 148.959 15.2858 148.326 14.1262C147.693 13.072 146.743 11.9124 145.477 10.8582C144.211 9.90938 142.629 9.06603 140.73 8.74977C138.831 8.43351 136.826 8.43351 134.822 9.17144C133.872 9.4877 132.817 10.0148 131.973 10.6473C131.551 10.9636 131.129 11.3853 130.707 11.7015C130.285 12.1232 129.969 12.5449 129.547 12.9665C128.175 14.7587 127.331 17.0779 127.331 19.608C127.331 22.0326 128.07 24.3518 129.441 26.2494C129.758 26.7765 130.18 27.0928 130.496 27.5144C130.918 27.9361 131.34 28.2524 131.762 28.5686C132.606 29.2011 133.556 29.7282 134.611 30.1499C136.615 30.8879 138.62 30.9933 140.519 30.7824C142.418 30.4662 144 29.7282 145.266 28.7795C146.532 27.8307 147.482 26.6711 148.22 25.6169C148.853 24.5627 149.381 23.5085 149.592 22.6651C149.697 22.2435 149.803 21.8218 149.908 21.5055C150.014 21.1893 150.014 20.873 150.014 20.6622C150.014 20.1351 150.014 19.9242 150.014 19.9242C150.014 19.9242 150.014 20.1351 150.014 20.6622C150.014 20.873 150.014 21.1893 149.908 21.5055C149.908 21.8218 149.803 22.2435 149.697 22.6651C149.486 23.6139 149.064 24.6681 148.431 25.8277C147.798 26.9873 146.743 28.1469 145.477 29.2011C144.106 30.1499 142.418 30.9933 140.519 31.415C138.62 31.6258 136.404 31.6258 134.4 30.7824C133.345 30.3608 132.395 29.8337 131.446 29.2011C130.918 28.8849 130.602 28.4632 130.074 28.0415C129.652 27.6199 129.23 27.1982 128.914 26.6711C127.437 24.7735 126.698 22.2435 126.698 19.608C126.698 17.0779 127.648 14.5478 129.125 12.6503C129.441 12.1232 129.863 11.7015 130.285 11.2798C130.707 10.8582 131.129 10.4365 131.657 10.1202C132.606 9.4877 133.661 8.85519 134.716 8.53893C136.826 7.80099 139.042 7.80099 140.941 8.11725C142.84 8.53893 144.528 9.38228 145.794 10.4365C147.06 11.4907 148.009 12.6503 148.642 13.8099C149.275 14.9695 149.697 16.0237 149.803 16.9725C149.908 17.3942 149.908 17.8158 150.014 18.1321C150.014 18.4484 150.119 18.7646 150.014 18.9755C150.014 19.608 150.014 19.9242 150.014 19.9242Z" fill="url(#paint3_linear_147_1275)"/>
<path d="M147.588 12.7557C147.588 12.7557 147.377 12.9665 147.06 13.2828C146.849 13.4936 146.638 13.599 146.322 13.8099C146.216 13.9153 146.005 14.0207 145.9 14.1261C145.689 14.2315 145.583 14.3369 145.372 14.4424C143.895 15.3911 141.363 16.3399 138.62 16.2345C138.304 16.2345 137.882 16.2345 137.565 16.2345C137.249 16.2345 136.932 16.1291 136.615 16.1291C136.404 16.1291 136.299 16.1291 136.088 16.0237C135.982 16.0237 135.771 15.9182 135.666 15.9182C135.349 15.8128 135.033 15.8128 134.822 15.7074C133.662 15.2857 132.712 14.864 131.973 14.4424C130.391 13.4936 129.652 12.6502 129.758 12.6502C129.863 12.5448 130.708 13.2828 132.185 14.0207C132.923 14.4424 133.978 14.7586 135.033 15.1803C135.349 15.2857 135.561 15.2857 135.877 15.3911C135.983 15.3911 136.194 15.4966 136.299 15.4966C136.405 15.4966 136.615 15.4966 136.721 15.602C137.037 15.602 137.354 15.7074 137.67 15.7074C137.987 15.7074 138.304 15.7074 138.62 15.7074C141.258 15.8128 143.578 14.9695 145.161 14.1261C145.372 14.0207 145.583 13.9153 145.688 13.9153C145.899 13.8099 146.005 13.7044 146.216 13.599C146.532 13.3882 146.744 13.2828 146.955 13.1773C147.377 12.8611 147.588 12.6502 147.588 12.7557Z" fill="url(#paint4_linear_147_1275)"/>
<path d="M129.336 26.9874C129.336 26.9874 129.547 26.7765 129.863 26.4603C130.074 26.2494 130.286 26.144 130.602 25.9332C130.708 25.8278 130.919 25.7223 131.024 25.6169C131.235 25.5115 131.341 25.4061 131.552 25.3007C133.029 24.3519 135.56 23.4031 138.303 23.5085C138.62 23.5085 139.042 23.5085 139.358 23.5085C139.675 23.5085 139.992 23.614 140.308 23.614C140.519 23.614 140.625 23.614 140.836 23.7194C140.941 23.7194 141.152 23.8248 141.258 23.8248C141.574 23.9302 141.891 23.9302 142.102 24.0356C143.262 24.4573 144.212 24.879 144.95 25.3007C146.533 26.2494 147.271 27.0928 147.166 27.0928C147.06 27.1982 146.216 26.4603 144.739 25.7223C144.001 25.3007 142.946 24.9844 141.891 24.5627C141.574 24.4573 141.363 24.4573 141.047 24.3519C140.941 24.3519 140.73 24.2465 140.625 24.2465C140.519 24.2465 140.308 24.2465 140.203 24.141C139.886 24.141 139.57 24.0356 139.253 24.0356C138.937 24.0356 138.62 24.0356 138.303 24.0356C135.666 23.9302 133.345 24.7736 131.763 25.6169C131.552 25.7223 131.341 25.8278 131.235 25.8278C131.024 25.9332 130.919 26.0386 130.708 26.144C130.391 26.3549 130.18 26.4603 129.969 26.5657C129.653 26.882 129.441 26.9874 129.336 26.9874Z" fill="url(#paint5_linear_147_1275)"/>
<path d="M150.014 20.1351C150.014 20.3459 144.845 20.3459 138.515 20.3459C132.185 20.2405 127.015 20.0296 127.015 19.9242C127.015 19.7134 132.185 19.7134 138.515 19.7134C144.845 19.8188 150.014 20.0296 150.014 20.1351Z" fill="url(#paint6_linear_147_1275)"/>
<path d="M138.092 31.2041C137.881 31.2041 137.881 26.0385 137.881 19.7134C137.987 13.3882 138.198 8.22266 138.303 8.22266C138.514 8.22266 138.514 13.3882 138.514 19.7134C138.514 26.144 138.303 31.3095 138.092 31.2041Z" fill="url(#paint7_linear_147_1275)"/>
<path d="M138.093 31.204C138.093 31.3094 136.721 30.4661 135.244 28.4631C134.506 27.5143 133.767 26.2493 133.134 24.7734C132.501 23.2976 132.185 21.5054 132.185 19.6079C132.185 17.7103 132.607 15.9182 133.24 14.4423C133.873 12.9665 134.717 11.7014 135.455 10.7527C136.932 8.8551 138.198 8.01175 138.304 8.11717C138.409 8.22258 137.249 9.17136 135.772 11.0689C135.033 12.0177 134.295 13.2827 133.767 14.6532C133.134 16.129 132.818 17.8158 132.712 19.5025C132.712 21.2946 133.029 22.9813 133.556 24.4572C134.084 25.9331 134.822 27.0927 135.455 28.1469C137.038 30.2552 138.198 31.204 138.093 31.204Z" fill="url(#paint8_linear_147_1275)"/>
<path d="M138.62 8.22262C138.62 8.1172 139.992 8.96055 141.468 10.9635C142.207 11.9123 142.945 13.1773 143.578 14.6532C144.211 16.1291 144.528 17.9212 144.528 19.8188C144.528 21.7163 144.106 23.5084 143.473 24.9843C142.84 26.4602 141.996 27.7252 141.258 28.674C139.781 30.5715 138.515 31.4149 138.409 31.3095C138.304 31.2041 139.464 30.2553 140.941 28.3577C141.679 27.409 142.418 26.1439 142.946 24.7735C143.579 23.2976 143.895 21.6109 144.001 19.9242C144.001 18.132 143.684 16.4453 143.157 14.9695C142.629 13.4936 141.891 12.334 141.258 11.2798C139.781 9.27681 138.62 8.32804 138.62 8.22262Z" fill="url(#paint9_linear_147_1275)"/>
<path d="M161.092 34.7885C160.986 34.7885 160.775 28.6741 160.775 21.0839C160.775 13.4937 160.881 7.37939 161.092 7.37939C161.197 7.37939 161.408 13.4937 161.408 21.0839C161.303 28.6741 161.197 34.7885 161.092 34.7885Z" fill="url(#paint10_linear_147_1275)"/>
<path d="M178.499 22.2435V27.1982H177.339V22.3489C177.339 20.5568 176.389 19.608 174.807 19.608C173.013 19.608 171.853 20.7677 171.853 22.6652V27.0928H170.692V15.1804H171.853V20.1351C172.486 19.1864 173.646 18.5538 175.018 18.5538C177.022 18.6593 178.499 19.8189 178.499 22.2435Z" fill="url(#paint11_linear_147_1275)"/>
<path d="M186.095 26.6712C185.673 27.0929 184.934 27.3037 184.301 27.3037C182.719 27.3037 181.769 26.3549 181.769 24.8791V19.7135H180.292V18.7647H181.769V16.8672H182.93V18.7647H185.567V19.7135H182.93V24.7736C182.93 25.7224 183.457 26.3549 184.407 26.3549C184.829 26.3549 185.356 26.2495 185.673 25.9333L186.095 26.6712Z" fill="url(#paint12_linear_147_1275)"/>
<path d="M192.425 26.6712C192.003 27.0929 191.265 27.3037 190.632 27.3037C189.049 27.3037 188.099 26.3549 188.099 24.8791V19.7135H186.622V18.7647H188.099V16.8672H189.26V18.7647H191.898V19.7135H189.26V24.7736C189.26 25.7224 189.787 26.3549 190.737 26.3549C191.159 26.3549 191.687 26.2495 192.003 25.9333L192.425 26.6712Z" fill="url(#paint13_linear_147_1275)"/>
<path d="M203.081 22.8762C203.081 25.5116 201.287 27.1983 198.861 27.1983C197.489 27.1983 196.329 26.5658 195.59 25.5116V30.2555H194.43V18.6594H195.485V20.3461C196.223 19.1865 197.384 18.554 198.755 18.554C201.287 18.6594 203.081 20.3461 203.081 22.8762ZM201.92 22.8762C201.92 20.8732 200.549 19.6081 198.755 19.6081C196.962 19.6081 195.59 20.9786 195.59 22.8762C195.59 24.8791 196.962 26.1442 198.755 26.1442C200.549 26.2496 201.92 24.8791 201.92 22.8762Z" fill="url(#paint14_linear_147_1275)"/>
<path d="M204.663 19.5025C204.663 18.9754 205.085 18.6592 205.507 18.6592C205.929 18.6592 206.351 19.0809 206.351 19.5025C206.351 20.0296 205.929 20.3459 205.507 20.3459C205.085 20.3459 204.663 20.0296 204.663 19.5025ZM204.663 26.3548C204.663 25.8277 205.085 25.5114 205.507 25.5114C205.929 25.5114 206.351 25.9331 206.351 26.3548C206.351 26.8819 205.929 27.1982 205.507 27.1982C205.085 27.3036 204.663 26.8819 204.663 26.3548Z" fill="url(#paint15_linear_147_1275)"/>
<path d="M212.892 13.5991H213.947L208.567 28.7795H207.512L212.892 13.5991Z" fill="url(#paint16_linear_147_1275)"/>
<path d="M227.029 18.6592L223.864 27.1982H222.809L220.172 20.2405L217.534 27.1982H216.479L213.314 18.6592H214.369L217.007 25.8277L219.75 18.6592H220.699L223.442 25.8277L226.185 18.6592H227.029V18.6592Z" fill="url(#paint17_linear_147_1275)"/>
<path d="M241.166 18.6592L238.001 27.1982H236.946L234.309 20.2405L231.671 27.1982H230.616L227.451 18.6592H228.506L231.144 25.8277L233.887 18.6592H234.836L237.579 25.8277L240.322 18.6592H241.166V18.6592Z" fill="url(#paint18_linear_147_1275)"/>
<path d="M255.303 18.6592L252.138 27.1982H251.083L248.446 20.2405L245.808 27.1982H244.753L241.588 18.6592H242.643L245.281 25.8277L248.024 18.6592H248.973L251.716 25.8277L254.459 18.6592H255.303V18.6592Z" fill="url(#paint19_linear_147_1275)"/>
<path d="M255.725 26.3548C255.725 25.8277 256.147 25.5115 256.569 25.5115C256.991 25.5115 257.413 25.9332 257.413 26.3548C257.413 26.8819 256.991 27.1982 256.569 27.1982C256.147 27.1982 255.725 26.8819 255.725 26.3548Z" fill="url(#paint20_linear_147_1275)"/>
<path d="M264.165 28.942C263.954 28.942 263.849 25.0415 263.849 20.1922C263.849 15.3429 263.954 11.4424 264.165 11.4424C264.376 11.4424 264.482 15.3429 264.482 20.1922C264.482 25.0415 264.376 28.942 264.165 28.942Z" fill="url(#paint21_linear_147_1275)"/>
<path d="M405.851 0.316256C405.851 0.316256 406.484 0.316256 407.539 0.421676C408.067 0.421676 408.805 0.632514 409.649 0.737934C410.071 0.843353 410.494 0.948773 411.021 1.05419C411.549 1.15961 411.97 1.26503 412.498 1.47587C414.608 2.21381 417.14 3.47884 419.566 5.69265C420.199 6.21975 420.727 6.85226 421.36 7.48478C421.676 7.80104 421.887 8.22271 422.204 8.53897L422.626 9.06607L422.942 9.69859C423.997 11.2799 424.736 13.1774 425.369 15.1804C426.529 19.2918 426.318 24.3519 424.103 28.9903C421.887 33.6288 417.562 37.951 411.654 39.7431C410.177 40.1648 408.7 40.4811 407.117 40.5865C405.535 40.6919 403.952 40.5865 402.37 40.6919C399.099 40.6919 395.829 40.6919 392.453 40.6919C385.595 40.6919 378.421 40.6919 370.825 40.6919C310.163 40.6919 226.291 40.6919 133.662 40.7973C127.754 40.7973 122.057 38.1618 118.259 33.7342C114.355 29.412 112.667 23.2977 113.511 17.7105C114.25 12.0178 117.52 6.85226 122.162 3.68968C124.483 2.10839 127.121 1.05419 129.864 0.527095C132.607 -2.24219e-06 135.35 0.210837 138.093 0.210837C159.931 0.210837 181.031 0.210837 201.076 0.210837C241.166 0.210837 277.352 0.210837 307.736 0.316256C338.12 0.316256 362.596 0.421676 379.582 0.421676C388.022 0.421676 394.668 0.421676 399.099 0.421676C401.315 0.421676 403.003 0.421676 404.164 0.421676C405.324 0.210837 405.851 0.316256 405.851 0.316256C405.851 0.316256 405.219 0.316256 404.164 0.316256C403.003 0.316256 401.315 0.316256 399.099 0.316256C394.668 0.316256 388.022 0.316256 379.582 0.316256C362.596 0.316256 338.015 0.316256 307.736 0.421676C277.352 0.421676 241.272 0.421676 201.076 0.527095C181.031 0.527095 159.931 0.527095 138.093 0.527095C135.35 0.527095 132.607 0.316256 129.969 0.843353C127.332 1.37045 124.694 2.42464 122.479 4.00594C117.942 7.0631 114.777 12.1232 114.039 17.7105C113.195 23.1923 114.883 29.0958 118.575 33.3125C122.268 37.6347 127.859 40.1648 133.556 40.1648C226.185 40.1648 310.057 40.2702 370.72 40.2702C378.316 40.2702 385.49 40.2702 392.347 40.2702C395.723 40.2702 399.099 40.2702 402.264 40.2702C403.847 40.2702 405.429 40.3756 407.012 40.1648C408.594 40.0594 410.072 39.7431 411.549 39.4269C417.351 37.7402 421.676 33.5234 423.892 28.8849C426.107 24.2465 426.318 19.2918 425.158 15.1804C424.63 13.1774 423.786 11.2799 422.837 9.69859L422.415 9.17149L421.993 8.64439C421.676 8.32813 421.465 7.90646 421.149 7.5902C420.516 6.95768 419.988 6.32516 419.355 5.79807C416.929 3.58426 414.502 2.31923 412.392 1.58129C411.865 1.37045 411.337 1.26503 410.915 1.15961C410.388 1.05419 409.966 0.948773 409.544 0.843353C408.7 0.737934 407.961 0.527095 407.434 0.527095C406.484 0.316256 405.851 0.316256 405.851 0.316256Z" fill="url(#paint22_linear_147_1275)"/>
<path d="M30.1731 386.151L13.3986 426L1.47705 425.894L6.64655 386.151H30.1731Z" fill="url(#paint23_linear_147_1275)"/>
<path d="M94.5279 386.362L77.9644 426L66.1484 425.894L71.3179 386.257L94.5279 386.362Z" fill="url(#paint24_linear_147_1275)"/>
<path d="M2.42649 147.165C8.96749 137.467 137.256 135.991 142.742 146.111L189.689 235.191L260.269 231.923C260.269 231.923 269.764 231.501 279.048 240.356C283.584 244.678 283.373 272.298 282.107 282.946C281.263 290.009 270.397 386.573 270.397 386.573L4.64199 386.151C4.64199 386.151 -4.00901 156.969 2.42649 147.165Z" fill="url(#paint25_linear_147_1275)"/>
<path d="M79.969 388.681C79.969 388.681 79.969 388.365 79.969 387.838C79.969 387.205 79.969 386.468 80.0745 385.308C80.18 383.094 80.18 379.932 80.2855 375.82C80.4965 367.492 80.7075 355.58 81.024 341.032L80.813 341.243C102.546 341.348 130.82 341.559 161.521 341.77C193.593 341.981 223.027 342.086 245.182 342.191L244.971 341.981C247.292 355.58 246.976 366.86 246.448 374.555C246.132 378.456 245.815 381.407 245.499 383.41C245.393 384.359 245.288 385.203 245.182 385.73C245.077 386.257 245.077 386.468 245.077 386.468C245.077 386.468 246.026 382.251 246.659 374.555C247.292 366.86 247.609 355.58 245.393 341.875V341.664H245.182C223.027 341.453 193.698 341.243 161.521 341.032C130.82 340.821 102.546 340.716 80.813 340.61H80.602V340.821C80.391 355.474 80.18 367.387 80.0745 375.609C80.0745 379.721 79.969 382.989 79.969 385.097C79.969 386.151 79.969 386.995 79.969 387.627C79.969 388.365 79.969 388.681 79.969 388.681Z" fill="#263238"/>
<path d="M88.198 239.197C88.198 239.197 87.987 239.197 87.6705 239.197C87.354 239.197 86.8265 239.197 86.088 239.302C84.7165 239.407 82.6065 239.934 80.18 241.094C77.7535 242.359 75.116 244.468 72.795 247.63C70.474 250.793 68.6805 255.009 67.731 259.964C66.7815 264.919 66.676 270.401 66.676 276.41C66.676 282.419 66.887 288.849 67.309 295.596C68.0475 309.3 69.841 324.481 71.6345 340.926V341.137H71.8455C92.5235 341.243 115.206 341.453 139.049 341.559C186.208 341.875 229.146 342.086 260.902 342.297H261.113V342.086C261.64 333.125 261.113 324.903 259.952 317.839C258.686 310.776 256.576 304.873 253.622 300.761C252.145 298.653 250.563 297.072 248.875 296.018C248.664 295.912 248.453 295.701 248.242 295.596C248.031 295.491 247.82 295.385 247.609 295.28C247.187 295.069 246.87 294.858 246.448 294.647C245.71 294.331 244.971 294.12 244.338 293.909C243.705 293.804 243.072 293.698 242.65 293.593C242.123 293.488 241.701 293.488 241.384 293.488C240.751 293.488 240.329 293.382 240.329 293.382C240.329 293.382 240.646 293.382 241.384 293.488C241.701 293.488 242.123 293.593 242.65 293.593C243.178 293.698 243.705 293.804 244.338 294.015C244.971 294.225 245.604 294.436 246.448 294.753C246.765 294.963 247.187 295.174 247.609 295.385C247.82 295.491 248.031 295.596 248.242 295.701C248.453 295.807 248.664 296.018 248.769 296.123C250.352 297.177 251.934 298.759 253.411 300.867C256.26 304.978 258.37 310.882 259.53 317.945C260.691 325.008 261.218 333.125 260.585 342.086L260.796 341.875C229.041 341.664 186.102 341.348 138.944 341.032C115.101 340.926 92.418 340.715 71.74 340.61L71.951 340.821C70.052 324.375 68.364 309.195 67.52 295.491C67.098 288.638 66.887 282.208 66.887 276.304C66.887 270.401 66.9925 264.813 67.942 259.964C68.786 255.115 70.5795 250.898 72.9005 247.736C75.2215 244.573 77.859 242.465 80.18 241.2C82.6065 239.934 84.611 239.407 85.9825 239.302C87.4595 239.197 88.198 239.197 88.198 239.197Z" fill="#263238"/>
<path d="M266.493 386.678L270.396 425.894L258.475 425.789L243.705 386.573L266.493 386.678Z" fill="url(#paint26_linear_147_1275)"/>
<path d="M244.338 294.12C244.338 294.12 243.916 294.12 243.178 294.015C242.334 293.909 241.279 293.698 240.013 293.488C237.375 293.066 233.683 292.433 229.568 291.906C225.454 291.485 221.761 291.379 219.018 291.379C217.752 291.379 216.697 291.379 215.853 291.379C215.115 291.379 214.693 291.379 214.693 291.379C214.693 291.379 215.115 291.274 215.853 291.168C216.592 291.063 217.752 291.063 219.018 290.957C221.761 290.852 225.559 290.852 229.673 291.274C233.788 291.695 237.481 292.433 240.118 292.961C241.49 293.277 242.545 293.488 243.283 293.698C244.022 293.909 244.444 294.015 244.338 294.12Z" fill="#263238"/>
<path d="M263.117 232.134C263.117 232.134 262.273 232.555 260.796 233.399C259.319 234.242 257.209 235.612 254.994 237.721C252.673 239.829 250.351 242.675 248.347 246.154C246.237 249.633 244.549 253.745 243.388 258.278C241.173 267.449 241.279 275.988 241.384 282.102C241.49 285.16 241.595 287.69 241.701 289.376C241.701 290.22 241.7 290.852 241.806 291.379C241.806 291.801 241.806 292.117 241.806 292.117C241.806 292.117 241.806 291.906 241.701 291.379C241.701 290.852 241.595 290.22 241.489 289.376C241.384 287.69 241.173 285.16 241.067 282.102C240.962 279.045 240.856 275.356 241.067 271.244C241.278 267.133 241.806 262.705 242.861 258.067C244.021 253.428 245.815 249.317 247.925 245.733C250.035 242.254 252.462 239.407 254.783 237.299C257.104 235.191 259.214 233.926 260.796 233.082C261.535 232.661 262.168 232.45 262.59 232.239C262.906 232.239 263.117 232.134 263.117 232.134Z" fill="#263238"/>
<g opacity="0.3">
<g opacity="0.3">
<path opacity="0.3" d="M124.173 306.032C132.191 307.93 140.42 308.773 148.649 308.457C149.282 334.074 151.498 359.691 155.296 385.097C157.3 386.046 159.516 386.889 161.732 386.995C163.947 387.1 166.374 386.046 167.323 383.937C167.851 382.672 167.851 381.302 167.745 380.037C166.69 354.525 164.053 329.014 159.833 303.819C159.516 301.921 159.094 299.918 157.512 298.864C156.035 297.81 154.03 298.126 152.237 298.442C142.32 300.34 132.508 302.554 122.802 305.295" fill="black"/>
</g>
</g>
<g opacity="0.3">
<path opacity="0.3" d="M112.463 303.819L114.89 338.923C114.89 338.923 123.224 319.948 121.114 312.674C119.004 305.4 112.463 303.819 112.463 303.819Z" fill="black"/>
</g>
<path d="M110.353 164.349C109.509 136.729 108.665 109.004 107.926 81.3836L105.289 76.6398C102.968 74.5314 99.0644 74.9531 96.5324 76.7452C94.0004 78.5373 92.5234 81.5945 91.4684 84.5462C86.5099 98.7778 90.4134 114.485 89.3584 129.56C89.1474 132.828 88.6199 136.202 86.7209 138.943C84.1889 142.527 79.3359 144.319 77.3314 148.325C75.5379 151.909 76.9094 156.759 80.2854 158.972C77.8589 160.343 75.3269 161.819 73.7444 164.138C72.1619 166.457 71.7399 169.831 73.4279 171.939C75.3269 174.258 78.9139 174.258 81.8679 174.047C90.4134 173.309 98.8534 171.623 107.082 169.093C108.137 168.776 109.192 168.355 109.825 167.511C110.353 166.457 110.353 165.403 110.353 164.349Z" fill="#263238"/>
<path d="M92.7344 150.012C92.7344 149.906 93.7894 149.801 95.0554 148.43C96.3214 147.06 97.2709 144.53 97.4819 141.262C97.9039 134.726 98.1149 125.66 97.3764 115.75C96.9544 110.796 96.4269 106.052 95.6884 101.73C94.9499 97.5128 94.6334 93.4015 95.5829 90.2389C96.4269 86.9709 98.3259 84.8625 99.9084 83.8083C100.647 83.2812 101.385 83.0704 101.807 82.8595C102.229 82.7541 102.546 82.6487 102.546 82.6487C102.546 82.7541 101.491 82.8595 100.014 83.9137C98.5369 84.9679 96.7434 87.0763 96.0049 90.2389C95.1609 93.4015 95.5829 97.302 96.2159 101.519C96.9544 105.841 97.4819 110.585 97.9039 115.54C98.6424 125.554 98.4314 134.62 97.9039 141.156C97.5874 144.424 96.5324 147.06 95.2664 148.43C94.6334 149.063 94.0004 149.485 93.4729 149.695C92.9454 150.012 92.7344 150.012 92.7344 150.012Z" fill="#455A64"/>
<path d="M111.619 80.9619C111.408 82.1215 112.146 80.0132 111.619 80.9619V80.9619Z" fill="#FF725E"/>
<path d="M110.669 76.3236C109.72 75.2694 108.243 75.6911 107.082 76.5344C105.183 77.9049 103.812 80.1187 102.862 82.5434C101.913 84.968 101.491 87.7089 101.174 90.3444C100.963 91.9257 100.963 93.7178 102.018 94.6666C102.757 95.2991 103.706 95.1937 104.55 94.6666C105.289 94.1395 105.922 93.1907 106.449 92.3474C108.559 88.8685 110.247 85.0734 111.619 80.9621C111.83 79.8024 111.408 77.0615 110.669 76.3236Z" fill="#F37168"/>
<path d="M102.862 97.0912C104.972 88.1305 108.77 78.8536 116.261 73.4772C122.907 68.6279 132.613 66.7304 140.842 67.3629C144.851 67.6792 149.388 69.6821 152.869 71.7905C157.617 74.6368 159.516 80.3295 161.626 85.3896C165.951 95.6153 164.896 109.32 161.626 113.01L118.687 133.883C111.302 129.771 103.39 124.184 101.702 115.961C100.436 110.374 101.596 102.678 102.862 97.0912Z" fill="#263238"/>
<path d="M119.109 81.0675L145.906 74.1098C154.557 73.161 160.36 83.7029 160.887 92.3473C161.52 101.941 162.048 113.642 160.887 120.811C158.672 135.253 147.7 138.626 147.7 138.626C147.7 138.626 147.7 151.171 147.594 155.388L135.04 193.55L117.21 155.388L114.467 86.233C114.573 83.5975 116.577 81.3837 119.109 81.0675Z" fill="#FFBE9D"/>
<path d="M156.245 103.944C156.245 104.892 155.507 105.736 154.452 105.841C153.397 105.947 152.553 105.209 152.553 104.154C152.553 103.206 153.291 102.362 154.346 102.257C155.296 102.257 156.14 102.995 156.245 103.944Z" fill="#263238"/>
<path d="M158.461 98.4617C158.25 98.6725 156.878 97.7238 154.874 97.7238C152.869 97.7238 151.392 98.778 151.181 98.4617C151.076 98.3563 151.287 97.9346 151.92 97.4075C152.553 96.9858 153.608 96.4587 154.874 96.4587C156.14 96.4587 157.195 96.8804 157.722 97.4075C158.355 97.9346 158.566 98.3563 158.461 98.4617Z" fill="#263238"/>
<path d="M138.205 103.944C138.205 104.892 137.466 105.736 136.411 105.841C135.356 105.947 134.512 105.209 134.512 104.154C134.512 103.206 135.251 102.362 136.306 102.257C137.255 102.257 138.099 102.995 138.205 103.944Z" fill="#263238"/>
<path d="M138.943 98.9888C138.732 99.1996 137.255 98.2509 135.356 98.2509C133.352 98.2509 131.875 99.3051 131.664 98.9888C131.558 98.8834 131.769 98.4617 132.402 97.9346C133.035 97.5129 134.09 96.9858 135.356 96.9858C136.622 96.9858 137.677 97.4075 138.205 97.9346C138.838 98.4617 139.049 98.8834 138.943 98.9888Z" fill="#263238"/>
<path d="M146.223 113.642C146.223 113.537 147.489 113.326 149.493 113.009C150.021 112.904 150.443 112.799 150.548 112.482C150.654 112.166 150.443 111.534 150.232 111.007C149.704 109.741 149.282 108.476 148.755 107.106C146.645 101.624 145.062 97.0912 145.273 96.9857C145.484 96.8803 147.383 101.308 149.493 106.79C150.021 108.16 150.443 109.425 150.97 110.69C151.181 111.217 151.498 111.955 151.287 112.693C151.181 113.115 150.759 113.326 150.443 113.431C150.126 113.537 149.81 113.537 149.599 113.537C147.489 113.747 146.223 113.747 146.223 113.642Z" fill="#263238"/>
<path d="M147.805 138.837L147.7 142.422C133.246 143.898 128.499 133.777 128.499 133.777C138.099 139.47 147.805 138.837 147.805 138.837Z" fill="#EB996E"/>
<path d="M139.682 117.437C140.209 116.488 141.264 116.067 142.319 115.961C143.796 115.856 145.168 116.383 146.117 117.859C146.434 118.28 146.434 119.44 146.328 119.756C146.223 120.073 146.328 119.967 146.012 120.178C145.168 121.021 144.218 121.759 143.058 122.076C141.897 122.392 140.526 121.97 139.787 120.916C139.154 119.756 139.154 118.386 139.682 117.437Z" fill="#EB996E"/>
<path d="M140.42 115.118C140.737 115.118 140.737 117.226 142.636 118.808C144.535 120.283 146.75 120.073 146.856 120.389C146.856 120.494 146.328 120.811 145.379 120.811C144.429 120.811 143.058 120.6 141.897 119.651C140.737 118.702 140.315 117.437 140.209 116.594C139.998 115.645 140.315 115.118 140.42 115.118Z" fill="#263238"/>
<path d="M139.787 92.5581C139.576 93.0852 137.572 92.8744 135.251 93.1907C132.93 93.4015 131.031 94.1394 130.714 93.6123C130.609 93.4015 130.925 92.8744 131.664 92.3473C132.402 91.8202 133.563 91.2931 135.04 91.1877C136.411 90.9769 137.677 91.1877 138.627 91.6094C139.471 91.9256 139.893 92.3473 139.787 92.5581Z" fill="#263238"/>
<path d="M157.722 91.6094C157.406 92.0311 156.034 91.6094 154.346 91.6094C152.658 91.504 151.287 91.9257 150.97 91.504C150.865 91.2932 151.076 90.8715 151.603 90.3444C152.236 89.9227 153.186 89.6064 154.346 89.6064C155.507 89.6064 156.456 90.0281 157.089 90.4498C157.722 90.9769 157.828 91.3986 157.722 91.6094Z" fill="#263238"/>
<path d="M118.476 103.838C118.265 103.733 110.458 101.308 110.564 109.32C110.669 117.332 118.687 115.645 118.687 115.434C118.687 115.118 118.476 103.838 118.476 103.838Z" fill="#FFBE9D"/>
<path d="M116.261 112.272C116.261 112.272 116.155 112.377 115.839 112.482C115.628 112.588 115.206 112.693 114.784 112.482C113.94 112.166 113.201 110.796 113.201 109.425C113.201 108.687 113.307 107.949 113.623 107.422C113.834 106.79 114.256 106.368 114.678 106.368C115.1 106.263 115.417 106.473 115.522 106.79C115.628 107.001 115.628 107.211 115.628 107.211C115.628 107.211 115.839 107.106 115.733 106.79C115.733 106.579 115.628 106.473 115.417 106.263C115.206 106.157 114.889 106.052 114.678 106.052C114.045 106.052 113.518 106.684 113.201 107.317C112.885 107.949 112.674 108.687 112.779 109.531C112.885 111.112 113.729 112.693 114.889 113.009C115.417 113.115 115.944 113.009 116.155 112.799C116.261 112.482 116.261 112.272 116.261 112.272Z" fill="#EB996E"/>
<path d="M113.623 115.013C113.623 115.013 113.307 115.329 113.307 116.067C113.307 116.383 113.412 116.91 113.834 117.226C114.256 117.543 114.889 117.543 115.417 117.332C115.944 117.121 116.366 116.699 116.472 116.172C116.577 115.645 116.472 115.223 116.261 114.907C115.839 114.275 115.311 114.275 115.311 114.275C115.311 114.38 115.733 114.485 115.944 115.013C116.05 115.329 116.155 115.645 116.05 116.067C115.944 116.383 115.628 116.699 115.206 116.91C114.784 117.121 114.362 117.016 114.045 116.91C113.729 116.699 113.623 116.383 113.518 116.067C113.412 115.434 113.623 115.013 113.623 115.013Z" fill="#E0E0E0"/>
<path d="M161.626 94.6664C160.571 92.3472 158.461 90.6605 156.245 89.3955C154.03 88.1304 151.603 87.1817 149.388 85.9166C144.324 82.9649 140.315 78.0102 138.627 72.4229C142.636 70.42 147.489 70.6308 151.498 72.6338C155.507 74.6367 158.566 78.221 160.36 82.2269C162.153 86.2329 162.892 90.7659 162.786 95.1935" fill="#263238"/>
<path d="M116.683 78.9591C122.591 73.2664 133.879 70.2093 141.581 72.8448C140.42 79.5916 135.356 87.1818 130.82 92.3474C126.283 97.6183 123.54 106.684 113.729 103.627C113.096 103.416 112.252 104.049 111.619 103.627C111.091 103.311 110.88 102.678 110.669 102.151C108.137 94.1395 110.564 84.7572 116.683 78.9591Z" fill="#263238"/>
<path d="M113.307 77.6939C113.307 77.6939 113.307 77.7994 113.518 78.0102C113.623 78.221 113.834 78.4319 114.045 78.7481C114.573 79.3806 115.311 80.224 116.472 81.0674C117.632 81.9107 119.109 82.7541 120.903 83.3866C122.696 84.0191 124.806 84.3354 126.916 84.2299C129.132 84.1245 131.136 83.492 132.824 82.6487C134.512 81.8053 135.884 80.8565 136.939 79.8023C137.994 78.8536 138.732 77.9048 139.154 77.2723C139.365 76.956 139.471 76.6397 139.576 76.5343C139.682 76.3235 139.682 76.2181 139.682 76.2181C139.576 76.1127 138.838 77.7994 136.728 79.5915C135.673 80.5403 134.301 81.489 132.613 82.3324C130.925 83.0703 128.921 83.7028 126.811 83.8083C124.701 83.9137 122.696 83.5974 120.903 82.9649C119.109 82.3324 117.632 81.5945 116.577 80.7511C114.362 79.0644 113.412 77.5885 113.307 77.6939Z" fill="#455A64"/>
<path d="M109.403 88.5521C109.403 88.5521 109.509 88.6576 109.72 88.8684C109.931 89.0792 110.142 89.2901 110.564 89.6063C111.302 90.2389 112.568 90.8714 114.151 91.5039C115.733 92.031 117.843 92.4527 120.059 92.3472C122.38 92.2418 124.806 91.7147 127.127 90.5551C129.448 89.3955 131.453 87.8142 133.035 86.2329C134.618 84.6516 135.884 83.0703 136.833 81.5945C137.783 80.224 138.521 78.959 138.943 78.1156C139.154 77.6939 139.365 77.3777 139.471 77.1668C139.576 76.956 139.682 76.8506 139.576 76.8506C139.576 76.8506 139.471 76.956 139.365 77.1668C139.26 77.3777 139.049 77.6939 138.838 78.1156C138.31 78.959 137.677 80.1186 136.622 81.489C135.673 82.8595 134.407 84.4408 132.824 86.0221C131.242 87.6034 129.237 89.0792 126.916 90.2389C124.595 91.3985 122.169 91.9256 119.953 92.031C117.738 92.1364 115.733 91.8202 114.151 91.2931C112.568 90.766 111.302 90.1334 110.564 89.5009C109.825 88.8684 109.509 88.5521 109.403 88.5521Z" fill="#455A64"/>
<path d="M116.472 132.512C116.472 132.512 116.366 132.512 116.05 132.301C115.733 132.196 115.417 131.985 114.889 131.669C113.94 131.036 112.463 130.088 110.88 128.822C109.298 127.452 107.504 125.66 105.922 123.446C104.339 121.127 102.968 118.386 102.124 115.329C100.33 109.109 100.752 103.206 101.702 99.1996C102.229 97.1967 102.757 95.6154 103.284 94.4558C103.495 93.9287 103.706 93.507 103.812 93.1907C103.917 92.8745 104.023 92.769 104.023 92.769C104.023 92.769 103.812 93.4016 103.39 94.4558C102.968 95.5099 102.44 97.0912 102.018 99.1996C101.174 103.206 100.752 109.109 102.546 115.118C103.39 118.175 104.761 120.811 106.238 123.13C107.821 125.344 109.509 127.136 110.986 128.506C112.568 129.877 113.94 130.825 114.889 131.563C115.944 132.196 116.472 132.512 116.472 132.512Z" fill="#455A64"/>
<path d="M233.577 335.128L246.975 359.48C246.975 359.48 275.249 352.312 278.203 356.529L232.838 385.941L210.367 348.938L233.577 335.128Z" fill="#F37168"/>
<g opacity="0.6">
<g opacity="0.6">
<g opacity="0.6">
<g opacity="0.6">
<g opacity="0.6">
<path opacity="0.6" d="M231.467 366.122C230.728 366.86 230.728 368.335 231.467 369.073C232.205 369.811 233.577 369.917 234.421 369.073C235.159 368.335 235.265 366.649 234.421 365.911C233.577 365.173 231.889 365.278 231.361 366.227" fill="white"/>
</g>
</g>
</g>
</g>
</g>
<g opacity="0.6">
<g opacity="0.6">
<g opacity="0.6">
<g opacity="0.6">
<path opacity="0.6" d="M232.944 386.046L230.728 382.251L275.46 355.369C275.46 355.369 277.359 355.053 278.731 356.739L232.944 386.046Z" fill="white"/>
</g>
</g>
</g>
</g>
<path d="M247.714 358.848C247.819 359.059 246.764 359.902 246.131 361.272C245.393 362.643 245.393 364.013 245.182 364.013C244.971 364.119 244.443 362.537 245.287 360.851C246.026 359.164 247.608 358.637 247.714 358.848Z" fill="#263238"/>
<path d="M253.727 358.004C253.938 358.215 253.2 359.164 252.989 360.534C252.778 361.905 253.2 363.065 252.989 363.275C252.778 363.486 251.828 362.221 252.145 360.429C252.356 358.637 253.622 357.794 253.727 358.004Z" fill="#263238"/>
<path d="M259.952 362.116C259.741 362.327 258.791 361.378 258.58 359.796C258.369 358.215 259.213 357.056 259.424 357.161C259.635 357.266 259.424 358.321 259.53 359.691C259.741 360.956 260.163 362.01 259.952 362.116Z" fill="#263238"/>
<path d="M244.021 353.682C244.021 353.893 242.861 354.209 241.595 355.158C240.329 356.001 239.59 357.056 239.379 356.845C239.168 356.739 239.59 355.369 241.067 354.315C242.544 353.261 244.021 353.366 244.021 353.682Z" fill="#263238"/>
<g opacity="0.3">
<g opacity="0.3">
<g opacity="0.3">
<g opacity="0.3">
<path opacity="0.3" d="M236.32 339.978L238.641 344.3L215.747 357.793L213.426 353.893L236.32 339.978Z" fill="black"/>
</g>
</g>
</g>
</g>
<path d="M241.173 348.728C241.278 348.833 240.434 349.466 238.852 350.098C238.113 350.414 237.058 350.625 236.003 350.836C235.476 350.941 234.843 350.941 234.21 350.941C233.893 350.941 233.577 350.941 233.155 350.836C232.733 350.731 232.311 350.203 232.311 349.676C232.311 349.149 232.627 348.728 232.944 348.517C233.26 348.306 233.577 348.2 233.893 348.095C234.526 347.884 235.054 347.779 235.687 347.779C236.847 347.673 237.797 347.779 238.641 347.884C240.329 348.2 241.173 348.833 241.173 348.938C241.067 349.044 240.118 348.728 238.535 348.517C237.797 348.411 236.742 348.411 235.792 348.622C235.265 348.728 234.737 348.833 234.21 349.044C233.682 349.255 233.26 349.465 233.26 349.782C233.26 349.887 233.26 349.887 233.471 349.993C233.682 350.098 233.893 350.098 234.21 350.098C234.737 350.098 235.37 350.098 235.898 350.098C236.953 349.993 237.902 349.782 238.641 349.571C240.223 349.044 241.173 348.622 241.173 348.728Z" fill="#263238"/>
<path d="M241.067 349.255C240.962 349.36 240.118 348.833 239.063 347.357C238.641 346.619 238.113 345.776 237.902 344.616C237.797 344.089 237.691 343.457 237.691 342.824C237.691 342.191 237.691 341.348 238.43 340.716C238.852 340.399 239.485 340.505 239.801 340.821C240.118 341.032 240.329 341.243 240.54 341.559C240.962 342.086 241.278 342.613 241.489 343.14C241.911 344.194 242.017 345.249 241.911 346.092C241.7 347.884 240.962 348.622 240.856 348.622C240.751 348.517 241.278 347.673 241.278 346.092C241.278 345.354 241.173 344.405 240.751 343.457C240.54 343.035 240.223 342.508 239.907 342.191C239.59 341.77 239.168 341.454 238.957 341.664C238.746 341.77 238.535 342.402 238.641 342.929C238.641 343.457 238.746 343.984 238.852 344.511C239.063 345.565 239.379 346.408 239.801 347.146C240.434 348.411 241.173 349.149 241.067 349.255Z" fill="#263238"/>
<path d="M192.537 382.462L191.166 410.292C191.166 410.292 219.967 418.937 219.545 425.684L165.318 425.578L165.635 381.935L192.537 382.462Z" fill="#F37168"/>
<g opacity="0.6">
<g opacity="0.6">
<g opacity="0.6">
<g opacity="0.6">
<g opacity="0.6">
<path opacity="0.6" d="M174.497 407.762C173.442 408.079 172.703 409.238 172.914 410.292C173.125 411.347 174.286 412.085 175.341 411.874C176.396 411.663 177.345 410.292 177.029 409.238C176.712 408.184 175.235 407.341 174.286 407.868" fill="white"/>
</g>
</g>
</g>
</g>
</g>
<g opacity="0.6">
<g opacity="0.6">
<g opacity="0.6">
<g opacity="0.6">
<path opacity="0.6" d="M165.318 425.684L165.213 421.151L217.013 421.678C217.013 421.678 219.545 423.47 219.545 425.684H165.318Z" fill="white"/>
</g>
</g>
</g>
</g>
<path d="M192.01 410.082C192.01 410.398 190.638 410.398 189.372 411.241C188.001 412.085 187.368 413.139 187.157 413.033C186.946 412.928 187.368 411.452 188.95 410.398C190.533 409.449 192.115 409.765 192.01 410.082Z" fill="#263238"/>
<path d="M197.707 412.506C197.812 412.717 196.652 413.244 195.702 414.298C194.753 415.352 194.542 416.617 194.225 416.512C194.014 416.512 193.803 415.036 194.964 413.666C196.124 412.295 197.707 412.19 197.707 412.506Z" fill="#263238"/>
<path d="M200.872 419.253C200.661 419.358 200.239 417.988 200.977 416.512C201.716 415.036 202.876 414.509 202.982 414.72C203.087 414.931 202.349 415.669 201.716 416.934C201.188 418.199 201.083 419.253 200.872 419.253Z" fill="#263238"/>
<path d="M191.693 403.651C191.588 403.862 190.322 403.545 188.845 403.545C187.368 403.545 186.207 404.073 185.996 403.862C185.891 403.651 186.946 402.702 188.739 402.597C190.533 402.597 191.799 403.44 191.693 403.651Z" fill="#263238"/>
<g opacity="0.3">
<g opacity="0.3">
<g opacity="0.3">
<g opacity="0.3">
<path opacity="0.3" d="M191.588 402.175L191.271 407.762L165.318 407.024L165.424 402.597L191.588 402.175Z" fill="black"/>
</g>
</g>
</g>
</g>
<path d="M191.799 398.064C191.799 398.169 190.744 398.275 189.056 398.064C188.212 397.958 187.262 397.642 186.207 397.115C185.68 396.904 185.152 396.588 184.625 396.272C184.414 396.061 184.097 395.955 183.781 395.639C183.464 395.323 183.359 394.69 183.675 394.269C183.992 393.847 184.414 393.636 184.836 393.636C185.258 393.636 185.574 393.742 185.891 393.742C186.524 393.847 187.051 394.058 187.579 394.374C188.634 394.901 189.478 395.428 190.005 396.061C191.271 397.221 191.693 398.275 191.588 398.275C191.482 398.38 190.849 397.537 189.583 396.588C188.95 396.061 188.106 395.639 187.157 395.218C186.629 395.007 186.207 394.796 185.574 394.69C185.047 394.585 184.519 394.48 184.414 394.796C184.308 394.901 184.308 394.901 184.519 395.112C184.625 395.218 184.836 395.428 185.152 395.534C185.574 395.85 186.102 396.166 186.524 396.377C187.473 396.904 188.317 397.221 189.161 397.431C190.849 397.853 191.904 397.958 191.799 398.064Z" fill="#263238"/>
<path d="M191.482 398.38C191.377 398.38 190.849 397.431 190.849 395.745C190.849 394.901 190.955 393.847 191.271 392.793C191.482 392.266 191.693 391.739 192.01 391.212C192.326 390.684 192.748 389.946 193.803 389.841C194.331 389.841 194.753 390.263 194.964 390.579C195.175 390.895 195.175 391.212 195.28 391.528C195.386 392.16 195.386 392.793 195.28 393.32C195.069 394.48 194.647 395.428 194.12 396.061C193.065 397.431 191.904 397.748 191.904 397.642C191.799 397.537 192.748 397.01 193.592 395.639C194.014 395.007 194.331 394.163 194.436 393.109C194.542 392.582 194.542 392.055 194.436 391.528C194.331 391.001 194.12 390.474 193.909 390.579C193.592 390.579 193.17 391.001 192.959 391.422C192.643 391.949 192.432 392.371 192.221 392.898C191.904 393.847 191.693 394.796 191.693 395.639C191.377 397.431 191.693 398.38 191.482 398.38Z" fill="#263238"/>
<path d="M113.834 145.057L116.894 143.792C115.944 142.316 123.224 156.442 133.035 156.548C146.539 156.653 147.911 143.265 147.911 143.265L148.649 143.37L170.804 166.352L173.758 230.658L171.332 238.88L123.751 256.169L107.188 223.173L105.711 202.827L113.834 145.057Z" fill="#F5F5F5"/>
<path d="M115.311 144.319C115.311 144.319 88.3034 150.433 83.8724 162.03C81.9734 167.09 81.3404 249.211 81.3404 249.211C81.3404 249.211 77.9644 256.696 78.1754 272.193C78.3864 287.057 88.1979 296.65 100.541 299.497C100.541 299.497 103.812 276.093 116.683 264.392C128.921 253.323 130.081 254.693 130.081 254.693L127.127 227.917L124.068 204.619C121.008 187.963 124.49 169.936 118.793 153.912L115.311 144.319Z" fill="#F37168"/>
<path d="M172.387 160.659L190.849 241.727L171.015 237.194L164.685 188.595L148.438 143.265C148.438 143.265 151.181 143.581 154.663 144.214C163.419 145.479 170.488 152.015 172.387 160.659Z" fill="#F37168"/>
<g opacity="0.3">
<g opacity="0.3">
<path opacity="0.3" d="M81.5515 263.127C81.446 264.076 82.079 265.024 82.8175 265.657C83.6615 266.184 84.611 266.5 85.5605 266.606C90.097 267.449 94.8445 266.5 99.2755 265.13C104.339 263.443 109.087 261.124 113.94 258.805C120.903 255.326 123.118 253.744 129.765 249.633C122.907 252.479 120.586 252.796 113.412 254.482C102.651 256.907 91.363 258.172 81.5515 263.338" fill="black"/>
</g>
</g>
<path d="M121.219 232.555L133.246 229.92C133.246 229.92 147.067 222.224 150.232 222.224C153.08 222.224 164.052 227.284 166.268 228.233C166.479 228.338 166.69 228.549 166.795 228.76C167.323 229.814 167.006 231.079 166.057 231.712L165.846 231.817L165.951 232.134C166.162 232.45 166.268 232.871 166.268 233.293C166.373 234.664 164.58 235.402 163.736 234.347L164.263 234.98C164.474 235.191 164.58 235.507 164.58 235.823L164.685 236.456C164.791 237.088 164.369 237.826 163.841 238.142C163.314 238.459 162.575 238.353 162.048 237.932C160.571 236.772 157.406 234.453 155.507 234.347C153.819 234.347 151.076 234.769 149.388 234.98C148.544 235.085 147.911 235.718 147.7 236.561C148.86 236.456 157.089 239.197 160.043 240.145C160.993 240.462 161.731 241.094 161.942 242.043C162.153 242.886 161.942 243.835 160.149 243.73C156.456 243.519 149.493 241.516 149.493 241.516C149.493 241.516 146.012 241.094 144.113 242.992C141.37 245.627 140.104 246.681 137.361 246.26C134.618 245.838 132.508 244.889 132.508 244.889L128.182 245.733L121.219 232.555Z" fill="#FFBE9D"/>
<path d="M146.539 230.341C146.539 230.447 147.489 229.92 149.282 229.498C150.97 229.076 153.397 228.865 156.034 229.498C158.672 230.13 160.676 231.501 162.048 232.555C163.419 233.715 164.052 234.558 164.052 234.558C164.052 234.558 163.947 234.347 163.63 233.926C163.314 233.504 162.892 232.977 162.153 232.45C160.887 231.29 158.777 229.92 156.14 229.287C153.502 228.655 150.97 228.865 149.282 229.287C148.438 229.498 147.805 229.709 147.278 229.92C146.75 230.131 146.539 230.236 146.539 230.341Z" fill="#EB996E"/>
<path d="M147.594 226.441C147.594 226.546 148.544 225.808 150.443 225.492C152.236 225.07 154.874 225.281 157.406 226.336C160.043 227.39 162.048 228.866 163.525 230.025C164.263 230.552 164.791 230.974 165.213 231.396C165.635 231.712 165.846 231.923 165.846 231.817C165.846 231.817 165.635 231.606 165.213 231.29C164.791 230.974 164.263 230.447 163.525 229.92C162.048 228.76 160.043 227.179 157.406 226.125C154.768 225.07 152.025 224.965 150.232 225.387C149.282 225.598 148.649 225.914 148.122 226.125C147.911 226.23 147.7 226.336 147.594 226.441C147.594 226.441 147.489 226.441 147.594 226.441Z" fill="#EB996E"/>
<path d="M100.225 164.454L94.2114 229.182H92.5234L119.848 229.709L129.765 249.528C129.765 249.528 94.0004 266.922 78.7029 262.178C60.5569 256.486 65.7264 236.245 65.8319 229.076C65.8319 227.811 76.0654 167.722 85.8769 158.656C85.7714 158.762 98.8534 159.605 100.225 164.454Z" fill="#F37168"/>
<path d="M101.069 182.586C101.069 182.586 101.069 183.219 100.963 184.379C100.752 185.644 100.541 187.225 100.33 189.122C99.6974 193.234 98.8534 198.61 98.0094 204.725C97.0599 210.839 96.3214 216.321 95.6884 220.327C95.3719 222.224 95.1609 223.805 95.0554 225.07C94.8444 226.23 94.7389 226.757 94.7389 226.757C94.7389 226.757 94.7389 226.125 94.8444 224.965C94.9499 223.805 95.1609 222.224 95.3719 220.221C95.7939 216.215 96.5324 210.733 97.4819 204.619C98.4314 198.505 99.2754 193.023 100.014 189.017C100.33 187.119 100.647 185.538 100.858 184.273C100.858 183.114 101.069 182.586 101.069 182.586Z" fill="#263238"/>
<path d="M98.9588 154.65C98.9588 154.65 99.1698 154.861 99.4863 155.283C99.8028 155.704 100.225 156.442 100.647 157.286C101.069 158.129 101.491 159.289 101.913 160.554C102.229 161.819 102.546 163.189 102.757 164.77C103.073 167.828 102.968 170.568 102.757 172.466C102.546 174.469 102.335 175.629 102.335 175.629C102.229 175.629 102.335 174.364 102.44 172.466C102.546 170.463 102.546 167.828 102.229 164.876C102.018 163.4 101.807 162.03 101.491 160.764C101.174 159.499 100.752 158.445 100.33 157.496C99.5918 155.704 98.8533 154.756 98.9588 154.65Z" fill="#263238"/>
<path d="M78.5974 262.178C78.5974 262.178 78.7029 262.178 78.9139 262.178C79.1249 262.178 79.3359 262.284 79.6524 262.389C80.2854 262.6 81.3404 262.705 82.7119 262.811C85.3494 263.021 89.2529 262.705 93.8949 261.756C96.2159 261.229 98.7479 260.702 101.491 260.07C104.128 259.332 106.977 258.278 109.931 257.223C115.839 255.01 122.169 252.374 128.921 249.633C129.237 249.528 129.448 249.422 129.765 249.317L129.659 249.739C126.072 242.57 122.802 235.823 119.848 229.92L120.059 230.025C115.628 230.025 111.619 229.709 108.032 229.603C104.445 229.498 101.28 229.393 98.7479 229.393C96.1104 229.393 94.1059 229.498 92.7344 229.709C91.3629 229.814 90.6244 230.025 90.6244 229.92C90.6244 229.92 90.8354 229.814 91.1519 229.814C91.4684 229.709 91.9959 229.603 92.7344 229.498C94.1059 229.287 96.2159 229.182 98.7479 229.076C101.385 228.971 104.445 229.076 108.032 229.182C111.619 229.287 115.628 229.498 120.059 229.498H120.164L120.27 229.603C123.224 235.507 126.6 242.254 130.187 249.422L130.292 249.739L129.765 249.844C129.448 249.949 129.237 250.055 128.921 250.16C122.274 253.007 115.839 255.537 109.931 257.75C106.977 258.805 104.128 259.859 101.385 260.597C98.6424 261.229 96.1104 261.756 93.7894 262.178C89.1474 263.127 85.2439 263.338 82.6064 263.127C79.9689 262.811 78.5974 262.178 78.5974 262.178Z" fill="#263238"/>
<path d="M97.3764 229.393C97.2709 229.498 96.7434 228.76 95.4774 228.022C94.2114 227.284 92.4179 226.441 90.2024 226.125C87.9869 225.808 85.9824 225.914 84.5054 225.914C83.0284 226.019 82.0789 226.019 82.0789 225.914C82.0789 225.808 82.9229 225.703 84.3999 225.492C85.8769 225.387 87.9869 225.176 90.2024 225.492C92.5234 225.808 94.4224 226.652 95.6884 227.6C96.9544 228.549 97.3764 229.393 97.3764 229.393Z" fill="#263238"/>
<g opacity="0.3">
<g opacity="0.3">
<path opacity="0.3" d="M96.9544 229.287C93.0509 228.655 89.0419 228.971 85.3494 230.13C83.0284 230.868 80.7074 231.923 79.4414 233.926C79.0194 234.558 78.8084 235.507 79.3359 236.034C79.8634 236.456 80.6019 236.35 81.2349 236.034C82.6064 235.507 83.6614 234.453 84.8219 233.609C86.6154 232.239 88.6199 230.974 90.8354 230.13C93.0509 229.287 95.3719 228.865 97.6929 229.287" fill="black"/>
</g>
</g>
<g opacity="0.3">
<g opacity="0.3">
<path opacity="0.3" d="M95.6884 227.917C94.8444 225.598 91.8904 223.489 89.9914 222.857C85.5604 221.381 80.4964 220.748 76.5929 223.278C76.1709 223.595 75.7489 223.911 75.7489 224.438C75.7489 225.176 76.4874 225.598 77.1204 225.703C79.8634 226.441 82.8174 226.019 85.6659 225.703C88.5144 225.387 91.5739 225.387 94.1059 226.863" fill="black"/>
</g>
</g>
<g opacity="0.3">
<g opacity="0.3">
<path opacity="0.3" d="M94.8444 225.07C100.541 213.474 103.073 198.294 100.752 184.8L94.8444 225.07Z" fill="black"/>
</g>
</g>
<path d="M100.541 299.496C100.541 299.496 110.353 305.927 129.765 305.927C149.177 305.927 153.608 304.557 153.608 304.557L171.754 288.111L211.633 357.899C211.633 357.899 243.283 338.291 243.494 338.923C243.916 339.345 213.954 272.825 207.413 261.335C205.303 257.645 203.298 254.904 200.028 250.582C193.381 241.937 182.304 238.037 171.754 240.251C166.373 241.41 160.465 242.992 155.19 244.889C140.737 250.16 128.393 253.744 117.949 263.021C105.711 273.774 98.4314 294.647 100.541 299.496Z" fill="#263238"/>
<path d="M167.112 280.099C167.112 280.099 152.764 290.009 153.186 298.02C153.502 304.662 162.364 402.702 162.364 402.702L197.707 402.069L200.133 337.869L167.112 280.099Z" fill="#263238"/>
<path d="M202.982 342.824C202.982 342.824 202.876 342.718 202.771 342.613C202.665 342.402 202.56 342.191 202.349 341.875C201.927 341.242 201.399 340.294 200.766 339.029C199.395 336.499 197.496 333.02 195.069 328.698C190.322 319.948 183.675 307.824 176.396 294.436C173.758 289.692 171.332 285.054 169.011 280.732L169.327 280.837C163.63 281.575 159.094 284.948 156.562 288.954C155.296 290.957 154.557 293.066 154.135 295.069C153.713 297.072 153.713 299.075 153.713 300.761C153.819 304.24 154.135 307.087 154.241 308.984C154.241 309.933 154.346 310.671 154.346 311.198C154.346 311.725 154.346 311.936 154.346 311.936C154.346 311.936 154.346 311.725 154.241 311.198C154.241 310.671 154.135 309.933 154.03 308.984C153.924 307.087 153.502 304.346 153.397 300.761C153.291 298.969 153.397 297.072 153.713 294.963C154.03 292.855 154.874 290.641 156.14 288.638C158.672 284.527 163.419 280.943 169.222 280.205H169.433L169.538 280.415C171.859 284.738 174.391 289.271 177.029 294.12C184.308 307.508 190.849 319.631 195.597 328.381C197.918 332.703 199.817 336.288 201.188 338.818C201.821 339.977 202.349 340.926 202.665 341.664C202.771 341.98 202.982 342.191 203.087 342.402C202.982 342.718 202.982 342.824 202.982 342.824Z" fill="#455A64"/>
<path d="M173.442 266.711C173.547 266.816 170.91 269.346 169.644 273.563C168.378 277.78 169.116 281.364 168.905 281.364C168.8 281.364 168.589 280.521 168.378 279.045C168.272 277.569 168.378 275.566 169.011 273.458C169.644 271.349 170.699 269.557 171.648 268.398C172.703 267.238 173.442 266.711 173.442 266.711Z" fill="#455A64"/>
<path d="M166.057 264.075C166.162 264.075 165.846 265.13 165.635 266.711C165.424 268.292 165.318 270.611 165.846 273.036C166.268 275.461 167.217 277.569 167.956 279.045C168.694 280.521 169.327 281.259 169.327 281.364C169.327 281.364 168.589 280.626 167.639 279.256C166.795 277.885 165.74 275.672 165.318 273.247C164.896 270.717 165.002 268.398 165.318 266.711C165.529 265.024 165.951 264.075 166.057 264.075Z" fill="#455A64"/>
<path d="M138.521 219.061C138.416 218.956 139.471 217.796 140.842 215.583C141.581 214.423 142.214 213.053 142.952 211.471C143.585 209.89 144.218 208.098 144.746 206.095C145.168 204.197 145.379 202.3 145.484 200.508C145.59 198.821 145.484 197.24 145.379 195.975C145.168 193.339 144.746 191.758 144.851 191.758C144.851 191.758 145.062 192.179 145.168 192.812C145.273 193.128 145.379 193.655 145.484 194.077C145.59 194.604 145.695 195.131 145.801 195.869C146.012 197.134 146.117 198.715 146.012 200.508C145.906 202.3 145.695 204.197 145.273 206.2C144.851 208.203 144.113 209.995 143.48 211.577C142.741 213.158 142.003 214.528 141.264 215.688C140.948 216.215 140.526 216.742 140.209 217.164C139.893 217.586 139.576 217.902 139.365 218.218C138.838 218.745 138.521 219.061 138.521 219.061Z" fill="#263238"/>
<path d="M170.91 156.442C170.91 156.442 209.206 222.119 210.05 227.179C210.683 230.974 209.523 241.621 206.041 242.992C196.441 246.892 185.363 242.359 175.235 235.402L173.758 234.347L170.91 156.442Z" fill="#F37168"/>
<path d="M2.42645 147.165C2.42645 147.165 8.43995 143.687 9.81145 153.385C11.2885 163.084 21.1 234.242 21.1 234.242L82.29 233.715C82.29 233.715 95.2665 233.188 104.023 259.542C110.142 277.991 116.472 340.715 116.472 340.715L115.311 386.151H4.53645C4.53645 386.151 1.16045 290.957 0.527453 248.684C-0.105547 206.411 -1.16055 160.237 2.42645 147.165Z" fill="url(#paint27_linear_147_1275)"/>
<path d="M8.01794 146.533C8.01794 146.533 8.12344 146.638 8.33444 146.849C8.54544 147.06 8.86194 147.376 9.28394 147.798C10.0224 148.641 10.9719 150.223 11.1829 152.436C11.7104 156.864 12.4489 163.295 13.3984 171.201C15.4029 187.119 18.1459 209.363 21.2054 234.347V234.558H21.4164C25.5309 234.453 29.8564 234.347 34.1819 234.242C48.0024 234.031 61.1899 233.926 73.1114 234.242C76.0654 234.347 79.0194 234.453 81.8679 234.664C82.6064 234.769 83.2394 234.769 83.9779 234.874C84.7164 234.98 85.3494 235.085 85.9824 235.191C87.3539 235.296 88.5144 235.823 89.6749 236.561C91.7849 238.142 93.4729 240.145 94.8444 242.254C96.3214 244.257 97.4819 246.365 98.5369 248.368C102.862 256.485 105.394 263.549 106.871 268.503C107.61 270.928 108.032 272.931 108.243 274.301C108.348 274.934 108.348 275.461 108.454 275.883C108.454 276.199 108.454 276.41 108.454 276.41C108.454 276.41 108.454 276.199 108.454 275.883C108.454 275.566 108.454 275.039 108.348 274.301C108.137 272.931 107.715 270.928 107.082 268.503C106.344 265.973 105.394 263.021 104.023 259.543C102.651 256.169 101.069 252.269 98.8534 248.157C97.7984 246.154 96.5324 244.046 95.1609 241.938C93.6839 239.829 92.1014 237.826 89.8859 236.139L89.0419 235.612C88.7254 235.402 88.4089 235.296 88.0924 235.191C87.7759 235.085 87.4594 234.98 87.0374 234.874C86.7209 234.769 86.4044 234.769 85.9824 234.664C85.3494 234.558 84.6109 234.453 83.8724 234.347C83.1339 234.242 82.5009 234.242 81.7624 234.137C78.9139 233.926 75.9599 233.82 73.0059 233.715C61.0844 233.293 47.8969 233.399 34.0764 233.609C29.7509 233.715 25.4254 233.82 21.3109 233.926L21.6274 234.137C18.4624 209.047 15.6139 186.909 13.6094 170.99C12.5544 163.084 11.7104 156.653 11.1829 152.226C10.9719 150.012 9.91694 148.431 9.17844 147.587C8.54544 146.849 8.01794 146.533 8.01794 146.533Z" fill="#263238"/>
<path d="M88.198 239.197C88.198 239.197 88.0925 239.197 87.776 239.302C87.4595 239.302 87.143 239.408 86.6155 239.513C85.5605 239.724 84.0835 240.145 82.29 240.883C80.4965 241.621 78.281 242.886 76.171 244.679C75.0105 245.522 74.061 246.682 73.006 247.947C72.584 248.579 72.0565 249.317 71.6345 249.95C71.529 250.16 71.4235 250.266 71.318 250.477L71.0015 251.004C70.7905 251.425 70.5795 251.742 70.3685 252.163C70.1575 252.585 69.9465 253.007 69.7355 253.323C69.5245 253.745 69.419 254.166 69.208 254.588C68.8915 255.431 68.575 256.38 68.2585 257.223C67.8365 259.121 67.309 261.019 67.098 263.127C66.9925 264.181 66.887 265.235 66.7815 266.29C66.7815 267.344 66.7815 268.503 66.7815 269.558C66.676 271.771 66.887 274.091 66.9925 276.41C67.4145 285.792 68.0475 296.123 68.8915 306.981C69.841 319.21 70.896 330.806 71.951 340.926L71.74 340.716C85.033 340.821 96.216 340.926 104.023 341.032C107.927 341.032 110.986 341.137 113.202 341.137C114.257 341.137 114.995 341.137 115.628 341.137C115.839 341.137 116.05 341.137 116.261 341.137C116.367 341.137 116.472 341.137 116.472 341.137C116.472 341.137 116.367 341.137 116.261 341.137C116.05 341.137 115.945 341.137 115.628 341.137C115.101 341.137 114.257 341.137 113.202 341.137C111.092 341.137 107.927 341.137 104.023 341.137C96.1105 341.137 84.9275 341.137 71.74 341.032H71.529V340.821C70.474 330.701 69.419 319.105 68.4695 306.876C67.6255 296.018 66.9925 285.687 66.5705 276.304C66.465 273.985 66.3595 271.666 66.3595 269.452C66.3595 268.292 66.3595 267.238 66.3595 266.184C66.465 265.13 66.5705 264.076 66.676 263.022C66.7815 260.913 67.4145 258.91 67.8365 257.013C68.153 256.064 68.4695 255.22 68.786 254.272C68.997 253.85 69.1025 253.428 69.3135 253.007C69.5245 252.585 69.7355 252.163 69.9465 251.847C70.1575 251.425 70.3685 251.004 70.5795 250.687L70.896 250.16C71.0015 249.95 71.107 249.844 71.2125 249.633C71.74 248.895 72.162 248.263 72.6895 247.63C73.7445 246.471 74.7995 245.206 75.8545 244.362C78.07 242.465 80.18 241.305 82.079 240.567C83.978 239.829 85.455 239.408 86.51 239.302C87.0375 239.197 87.4595 239.197 87.6705 239.091C87.987 239.197 88.198 239.197 88.198 239.197Z" fill="#263238"/>
<path d="M87.4594 386.784C87.3539 386.784 87.1429 376.874 87.1429 364.751C87.1429 352.523 87.2484 342.719 87.4594 342.719C87.6705 342.719 87.7759 352.628 87.7759 364.751C87.7759 376.874 87.6705 386.784 87.4594 386.784Z" fill="#263238"/>
<path d="M225.137 194.815L162.786 200.402C162.259 200.402 161.731 200.824 161.52 201.456L147.7 245.838C147.594 246.26 147.278 246.576 146.856 246.787L122.907 253.323C122.38 253.534 121.958 254.061 121.958 254.588C121.958 255.537 122.802 256.274 123.751 256.064L149.493 250.582L207.413 243.413C207.94 243.308 208.362 242.992 208.573 242.57L226.614 196.818C227.036 195.764 226.192 194.709 225.137 194.815Z" fill="#E0E0E0"/>
<path d="M225.137 194.815C225.137 194.815 225.348 194.709 225.664 194.815C225.981 194.92 226.614 195.237 226.719 195.975C226.825 196.396 226.614 196.712 226.508 197.134C226.297 197.556 226.192 197.977 225.981 198.505C225.559 199.453 225.137 200.613 224.609 201.878C222.605 207.044 219.651 214.528 216.064 223.805C214.27 228.444 212.266 233.609 210.05 239.091C209.734 239.829 209.523 240.462 209.206 241.199L208.784 242.254C208.679 242.57 208.362 243.097 208.046 243.308C207.835 243.413 207.624 243.519 207.413 243.519L206.78 243.624L205.619 243.73C204.881 243.835 204.037 243.94 203.298 244.046C200.133 244.467 196.863 244.889 193.592 245.311C180.194 246.998 165.318 248.895 149.493 250.793C145.062 251.741 140.631 252.69 136.095 253.639C133.774 254.166 131.558 254.588 129.237 255.115C128.077 255.326 126.916 255.642 125.756 255.853L124.068 256.169C123.751 256.274 123.435 256.274 123.118 256.274C122.802 256.169 122.485 256.064 122.169 255.747C121.747 255.326 121.641 254.693 121.747 254.166C121.852 253.639 122.274 253.112 122.802 253.006C131.031 250.793 138.943 248.579 146.75 246.47C147.172 246.365 147.383 246.049 147.489 245.522L147.911 244.151C148.227 243.202 148.544 242.254 148.755 241.305C149.388 239.407 149.915 237.615 150.548 235.718C151.709 232.028 152.869 228.444 153.924 224.859C156.14 217.796 158.25 210.944 160.254 204.513C160.465 203.67 160.782 202.932 160.993 202.089C161.098 201.667 161.204 201.351 161.415 200.824C161.626 200.402 162.153 200.086 162.575 200.086C164.263 199.98 165.846 199.77 167.428 199.664C170.593 199.348 173.653 199.137 176.607 198.821C182.515 198.294 188.001 197.767 193.065 197.345C203.087 196.502 211 195.764 216.591 195.342C219.334 195.131 221.444 194.92 222.921 194.815C223.66 194.709 224.187 194.709 224.504 194.709C224.926 194.815 225.137 194.815 225.137 194.815C225.137 194.815 224.926 194.815 224.609 194.92C224.187 194.92 223.66 195.026 223.027 195.131C221.55 195.237 219.44 195.447 216.697 195.764C211.211 196.291 203.193 197.029 193.276 197.977C188.317 198.399 182.831 198.926 176.923 199.453C173.969 199.77 170.91 199.98 167.745 200.297C166.162 200.402 164.58 200.613 162.892 200.718C162.575 200.718 162.259 200.929 162.048 201.245C161.837 201.562 161.837 201.983 161.626 202.405C161.415 203.248 161.098 203.986 160.887 204.83C158.883 211.26 156.773 218.113 154.557 225.176C153.502 228.76 152.342 232.344 151.181 236.034C150.654 237.931 150.021 239.724 149.493 241.621C149.177 242.57 148.86 243.519 148.649 244.467L148.227 245.838C148.122 246.365 147.7 246.892 147.067 247.103C139.365 249.211 131.347 251.425 123.118 253.639C122.802 253.744 122.485 254.061 122.38 254.482C122.274 254.904 122.38 255.22 122.696 255.536C122.907 255.747 123.118 255.853 123.329 255.853C123.54 255.958 123.751 255.853 124.068 255.747L125.756 255.431C126.916 255.22 128.077 254.904 129.237 254.693C131.558 254.166 133.774 253.744 136.095 253.217C140.631 252.268 145.062 251.32 149.493 250.371C165.318 248.368 180.194 246.576 193.592 244.889C196.968 244.467 200.239 244.046 203.404 243.73C204.142 243.624 204.986 243.519 205.725 243.413L206.885 243.308C207.307 243.202 207.624 243.202 207.94 243.097C208.257 242.886 208.362 242.675 208.573 242.254L208.995 241.199C209.312 240.462 209.523 239.829 209.839 239.091C212.055 233.609 214.059 228.444 215.853 223.805C219.545 214.528 222.499 207.044 224.609 201.983C225.137 200.718 225.559 199.559 225.981 198.61C226.192 198.083 226.403 197.661 226.508 197.24C226.719 196.818 226.825 196.502 226.825 196.08C226.719 195.342 226.192 195.026 225.875 194.92C225.348 194.815 225.137 194.815 225.137 194.815Z" fill="#263238"/>
<path d="M165.107 200.191C165.107 200.191 165.107 200.402 165.002 200.718C164.896 201.14 164.791 201.562 164.58 202.194C164.263 203.459 163.736 205.357 162.997 207.676C161.626 212.209 159.727 218.534 157.511 225.492C155.296 232.344 153.291 238.669 151.814 243.308C151.076 245.522 150.548 247.314 150.126 248.684C149.915 249.317 149.81 249.738 149.599 250.16C149.493 250.476 149.388 250.687 149.388 250.687C149.388 250.687 149.388 250.476 149.493 250.16C149.599 249.738 149.705 249.317 149.916 248.684C150.232 247.419 150.76 245.522 151.498 243.202C152.87 238.669 154.768 232.344 156.984 225.386C159.2 218.534 161.204 212.209 162.681 207.571C163.419 205.357 163.947 203.565 164.369 202.194C164.58 201.562 164.686 201.14 164.897 200.718C165.108 200.402 165.107 200.191 165.107 200.191Z" fill="#263238"/>
<path d="M189.056 218.323C188.106 218.323 187.473 218.534 186.629 219.483C185.996 220.116 185.574 221.064 185.996 221.908C186.313 222.54 186.946 222.857 187.579 222.962C188.212 223.067 188.845 222.751 189.478 222.435C190.216 222.013 190.955 221.17 190.955 220.326C190.955 219.378 190.111 218.323 189.056 218.323Z" fill="white"/>
<path d="M181.46 198.399C181.46 198.399 181.249 197.978 180.932 197.134C180.616 196.186 180.194 194.92 179.772 193.55C178.717 190.493 177.345 186.276 175.552 181.743C173.758 177.105 172.07 173.099 170.804 170.041C170.171 168.671 169.644 167.511 169.327 166.563C169.011 165.719 168.8 165.298 168.8 165.298C168.8 165.298 169.116 165.719 169.538 166.563C169.96 167.406 170.488 168.566 171.226 170.041C172.598 172.993 174.391 177.105 176.185 181.638C177.978 186.276 179.35 190.493 180.299 193.55C180.721 195.131 181.143 196.396 181.354 197.24C181.354 197.872 181.46 198.399 181.46 198.399Z" fill="#263238"/>
</g>
<defs>
<linearGradient id="paint0_linear_147_1275" x1="423.914" y1="382.808" x2="420.614" y2="432.596" gradientUnits="userSpaceOnUse">
<stop stop-color="#1C65AB"/>
<stop offset="1" stop-color="#10375C"/>
</linearGradient>
<linearGradient id="paint1_linear_147_1275" x1="423.841" y1="421.23" x2="423.8" y2="426.643" gradientUnits="userSpaceOnUse">
<stop stop-color="#1C65AB"/>
<stop offset="1" stop-color="#10375C"/>
</linearGradient>
<linearGradient id="paint2_linear_147_1275" x1="399.506" y1="-6.28779" x2="397.103" y2="47.8855" gradientUnits="userSpaceOnUse">
<stop stop-color="#1C65AB"/>
<stop offset="1" stop-color="#10375C"/>
</linearGradient>
<linearGradient id="paint3_linear_147_1275" x1="139.587" y1="4.0336" x2="137.499" y2="35.8111" gradientUnits="userSpaceOnUse">
<stop stop-color="#1C65AB"/>
<stop offset="1" stop-color="#10375C"/>
</linearGradient>
<linearGradient id="paint4_linear_147_1275" x1="139.59" y1="12.0478" x2="139.526" y2="16.9154" gradientUnits="userSpaceOnUse">
<stop stop-color="#1C65AB"/>
<stop offset="1" stop-color="#10375C"/>
</linearGradient>
<linearGradient id="paint5_linear_147_1275" x1="139.178" y1="22.9082" x2="139.114" y2="27.7757" gradientUnits="userSpaceOnUse">
<stop stop-color="#1C65AB"/>
<stop offset="1" stop-color="#10375C"/>
</linearGradient>
<linearGradient id="paint6_linear_147_1275" x1="139.703" y1="19.6094" x2="139.702" y2="20.4642" gradientUnits="userSpaceOnUse">
<stop stop-color="#1C65AB"/>
<stop offset="1" stop-color="#10375C"/>
</linearGradient>
<linearGradient id="paint7_linear_147_1275" x1="138.231" y1="4.44376" x2="127.075" y2="9.16952" gradientUnits="userSpaceOnUse">
<stop stop-color="#1C65AB"/>
<stop offset="1" stop-color="#10375C"/>
</linearGradient>
<linearGradient id="paint8_linear_147_1275" x1="135.564" y1="4.30955" x2="128.342" y2="33.7624" gradientUnits="userSpaceOnUse">
<stop stop-color="#1C65AB"/>
<stop offset="1" stop-color="#10375C"/>
</linearGradient>
<linearGradient id="paint9_linear_147_1275" x1="141.782" y1="4.41502" x2="134.559" y2="33.8679" gradientUnits="userSpaceOnUse">
<stop stop-color="#1C65AB"/>
<stop offset="1" stop-color="#10375C"/>
</linearGradient>
<linearGradient id="paint10_linear_147_1275" x1="161.124" y1="2.87276" x2="149.441" y2="7.02296" gradientUnits="userSpaceOnUse">
<stop stop-color="#1C65AB"/>
<stop offset="1" stop-color="#10375C"/>
</linearGradient>
<linearGradient id="paint11_linear_147_1275" x1="174.999" y1="13.2044" x2="173.39" y2="29.2846" gradientUnits="userSpaceOnUse">
<stop stop-color="#1C65AB"/>
<stop offset="1" stop-color="#10375C"/>
</linearGradient>
<linearGradient id="paint12_linear_147_1275" x1="183.494" y1="15.1512" x2="181.867" y2="29.0652" gradientUnits="userSpaceOnUse">
<stop stop-color="#1C65AB"/>
<stop offset="1" stop-color="#10375C"/>
</linearGradient>
<linearGradient id="paint13_linear_147_1275" x1="189.824" y1="15.1512" x2="188.197" y2="29.0652" gradientUnits="userSpaceOnUse">
<stop stop-color="#1C65AB"/>
<stop offset="1" stop-color="#10375C"/>
</linearGradient>
<linearGradient id="paint14_linear_147_1275" x1="199.202" y1="16.63" x2="197.822" y2="32.3224" gradientUnits="userSpaceOnUse">
<stop stop-color="#1C65AB"/>
<stop offset="1" stop-color="#10375C"/>
</linearGradient>
<linearGradient id="paint15_linear_147_1275" x1="205.594" y1="17.2525" x2="202.158" y2="27.6819" gradientUnits="userSpaceOnUse">
<stop stop-color="#1C65AB"/>
<stop offset="1" stop-color="#10375C"/>
</linearGradient>
<linearGradient id="paint16_linear_147_1275" x1="211.062" y1="11.1031" x2="207.988" y2="31.1469" gradientUnits="userSpaceOnUse">
<stop stop-color="#1C65AB"/>
<stop offset="1" stop-color="#10375C"/>
</linearGradient>
<linearGradient id="paint17_linear_147_1275" x1="220.88" y1="17.2552" x2="220.414" y2="28.7761" gradientUnits="userSpaceOnUse">
<stop stop-color="#1C65AB"/>
<stop offset="1" stop-color="#10375C"/>
</linearGradient>
<linearGradient id="paint18_linear_147_1275" x1="235.017" y1="17.2552" x2="234.551" y2="28.7761" gradientUnits="userSpaceOnUse">
<stop stop-color="#1C65AB"/>
<stop offset="1" stop-color="#10375C"/>
</linearGradient>
<linearGradient id="paint19_linear_147_1275" x1="249.154" y1="17.2552" x2="248.688" y2="28.7761" gradientUnits="userSpaceOnUse">
<stop stop-color="#1C65AB"/>
<stop offset="1" stop-color="#10375C"/>
</linearGradient>
<linearGradient id="paint20_linear_147_1275" x1="256.656" y1="25.2341" x2="256.509" y2="27.504" gradientUnits="userSpaceOnUse">
<stop stop-color="#1C65AB"/>
<stop offset="1" stop-color="#10375C"/>
</linearGradient>
<linearGradient id="paint21_linear_147_1275" x1="264.198" y1="8.56507" x2="254.15" y2="14.1552" gradientUnits="userSpaceOnUse">
<stop stop-color="#1C65AB"/>
<stop offset="1" stop-color="#10375C"/>
</linearGradient>
<linearGradient id="paint22_linear_147_1275" x1="285.848" y1="-6.51094" x2="285.384" y2="48.3912" gradientUnits="userSpaceOnUse">
<stop stop-color="#1C65AB"/>
<stop offset="1" stop-color="#10375C"/>
</linearGradient>
<linearGradient id="paint23_linear_147_1275" x1="17.3084" y1="379.599" x2="12.4858" y2="433.016" gradientUnits="userSpaceOnUse">
<stop stop-color="#1C65AB"/>
<stop offset="1" stop-color="#10375C"/>
</linearGradient>
<linearGradient id="paint24_linear_147_1275" x1="81.8052" y1="379.722" x2="76.9552" y2="432.99" gradientUnits="userSpaceOnUse">
<stop stop-color="#1C65AB"/>
<stop offset="1" stop-color="#10375C"/>
</linearGradient>
<linearGradient id="paint25_linear_147_1275" x1="156.09" y1="98.4987" x2="137.138" y2="431.76" gradientUnits="userSpaceOnUse">
<stop stop-color="#1C65AB"/>
<stop offset="1" stop-color="#10375C"/>
</linearGradient>
<linearGradient id="paint26_linear_147_1275" x1="258.43" y1="380.108" x2="253.387" y2="432.765" gradientUnits="userSpaceOnUse">
<stop stop-color="#1C65AB"/>
<stop offset="1" stop-color="#10375C"/>
</linearGradient>
<linearGradient id="paint27_linear_147_1275" x1="64.2018" y1="107.164" x2="21.7014" y2="425.279" gradientUnits="userSpaceOnUse">
<stop stop-color="#1C65AB"/>
<stop offset="1" stop-color="#10375C"/>
</linearGradient>
<clipPath id="clip0_147_1275">
<rect width="468" height="426" fill="white"/>
</clipPath>
</defs>
</svg>
