<svg width="24" height="24" viewBox="0 0 24 24" fill="none" xmlns="http://www.w3.org/2000/svg">
<path d="M15.9788 2.89899C16.1334 3.63709 16.5657 4.2089 17.2898 4.2089C18.0137 4.2089 18.4883 3.59376 18.6003 2.89899C18.657 2.54855 18.7587 1.84543 18.7811 1.49181C18.833 0.669808 18.1125 0 17.2898 0C16.4653 0 15.7461 0.669808 15.7986 1.49181C15.8211 1.84542 15.9057 2.55152 15.9788 2.89899H15.9788Z" fill="#C7C7C7"/>
<path d="M3.77356 9.41632C3.84629 9.48943 3.94227 9.52589 4.03788 9.52589C4.13312 9.52589 4.22873 9.48961 4.30165 9.41688C4.44748 9.27123 4.44785 9.03482 4.30221 8.88879L4.07323 8.65925C3.92795 8.51342 3.69135 8.51342 3.54513 8.65869C3.3993 8.80434 3.39893 9.04076 3.54457 9.18679L3.77356 9.41632Z" fill="#C7C7C7"/>
<path d="M2.42587 12.7163H2.10184C1.89574 12.7163 1.72852 12.8832 1.72852 13.0896C1.72852 13.2961 1.89574 13.463 2.10184 13.463H2.42587C2.63197 13.463 2.79919 13.2961 2.79919 13.0896C2.79919 12.8832 2.63234 12.7163 2.42587 12.7163Z" fill="#C7C7C7"/>
<path d="M3.80571 16.7485L3.57617 16.9781C3.43034 17.1237 3.43034 17.3601 3.57617 17.5058C3.6489 17.5785 3.7447 17.6152 3.84012 17.6152C3.93555 17.6152 4.03134 17.5787 4.10408 17.5058L4.33361 17.2762C4.47945 17.1306 4.47945 16.8942 4.33361 16.7485C4.18815 16.6027 3.95155 16.6027 3.80571 16.7485Z" fill="#C7C7C7"/>
<path d="M8.00711 18.251C7.80101 18.251 7.63379 18.4178 7.63379 18.6243V18.9489C7.63379 19.155 7.80101 19.3222 8.00711 19.3222C8.21321 19.3222 8.38044 19.1554 8.38044 18.9489V18.6243C8.38044 18.418 8.21321 18.251 8.00711 18.251Z" fill="#C7C7C7"/>
<path d="M12.1945 16.7169C12.0492 16.5707 11.8125 16.5703 11.6668 16.7158C11.5204 16.861 11.5199 17.0976 11.6655 17.2438L11.895 17.4745C11.9678 17.5478 12.0638 17.5844 12.1596 17.5844C12.2548 17.5844 12.3502 17.5482 12.4228 17.4756C12.5691 17.3303 12.5697 17.0937 12.4241 16.9475L12.1945 16.7169Z" fill="#C7C7C7"/>
<path d="M13.8664 12.6709H13.5413C13.3352 12.6709 13.168 12.8378 13.168 13.0442C13.168 13.2507 13.3352 13.4175 13.5413 13.4175H13.8664C14.0725 13.4175 14.2398 13.2507 14.2398 13.0442C14.2398 12.8378 14.0725 12.6709 13.8664 12.6709Z" fill="#C7C7C7"/>
<path d="M11.8978 9.49422C11.993 9.49422 12.0886 9.45794 12.1615 9.38521L12.3916 9.15568C12.5375 9.01003 12.5378 8.77361 12.3922 8.62758C12.2465 8.48193 12.0101 8.48138 11.8641 8.62702L11.634 8.85656C11.4882 9.00221 11.4878 9.23863 11.6334 9.38465C11.7064 9.45776 11.802 9.49422 11.8978 9.49422L11.8978 9.49422Z" fill="#C7C7C7"/>
<path d="M8.30852 6.74902H7.59329L6.88086 13.3481L10.7237 16.099L11.2216 15.6014L8.93405 12.5479L8.30852 6.74902Z" fill="#C7C7C7"/>
<path d="M23.4185 14.6733H21.9224L20.8539 7.18947C20.6571 6.16862 19.7473 5.39371 18.6582 5.39371H17.5407L18.0554 5.90786L17.6205 6.70566L18.2189 10.9166L17.2903 11.8619L16.3617 10.9166L16.954 6.70566L16.5255 5.90786L17.0402 5.39371H15.7762C14.6839 5.39371 13.7736 6.17181 13.5794 7.19581L13.5519 7.35075C12.1127 5.94861 10.1486 5.08252 7.9857 5.08252C3.5819 5.08233 0 8.66399 0 13.0663C0 17.469 3.58223 21.0506 7.98475 21.0506C10.6485 21.0506 13.01 19.7381 14.4609 17.7271L14.1432 24H15.747L17.2174 14.7947L18.6881 24H20.2919L20.1005 20.2258H23.4187C23.6248 20.2258 23.7921 20.0589 23.7921 19.8525V15.0467C23.7921 14.8405 23.6248 14.6734 23.4187 14.6734L23.4185 14.6733ZM7.9847 20.3042C3.99366 20.3042 0.746614 17.0575 0.746614 13.0666C0.746614 9.07571 3.99366 5.829 7.9847 5.829C11.9754 5.829 15.2218 9.07566 15.2218 13.0666C15.222 17.0576 11.9755 20.3042 7.9847 20.3042ZM20.6661 14.6733H19.8184L19.5761 9.88852L20.6661 14.6733ZM18.8904 19.479V15.42H19.7152V19.4792L18.8904 19.4794V19.479ZM23.0454 19.479H20.4622V15.42H23.0454V19.479Z" fill="#C7C7C7"/>
</svg>
