<svg width="26" height="24" viewBox="0 0 26 24" fill="none" xmlns="http://www.w3.org/2000/svg">
<path d="M8.06153 4.79344C8.60848 5.03985 9.25166 4.79273 9.49737 4.24526C10.0599 2.98666 11.3116 2.17366 12.6855 2.17366C14.0598 2.17366 15.3111 2.98666 15.874 4.24526C16.0546 4.64894 16.4512 4.8888 16.8669 4.8888C17.0155 4.8888 17.1662 4.85838 17.3097 4.79399C17.8582 4.54881 18.1038 3.906 17.8588 3.35796C16.9467 1.3182 14.9158 0 12.6854 0C10.455 0 8.42459 1.31788 7.51301 3.35778C7.26765 3.90582 7.51389 4.549 8.06136 4.79344L8.06153 4.79344Z" fill="#8B39E5"/>
<path d="M25.3596 8.06549C25.3596 6.86649 24.3789 5.88525 23.1793 5.88525H2.18029C0.980788 5.88525 5.42428e-05 6.86649 5.42428e-05 8.06549V11.3824C1.70195 11.6807 3.45089 11.9165 5.23906 12.09C5.06481 12.5439 4.93126 13.0176 4.8414 13.5071C3.19344 13.3421 1.57736 13.1255 0 12.8554V21.8195C0 23.0187 0.980688 23.9998 2.18024 23.9998H23.1797C24.3789 23.9998 25.36 23.0189 25.36 21.8195L25.3598 12.8554C23.7824 13.1252 22.1663 13.342 20.5184 13.5069C20.4287 13.0174 20.2948 12.5437 20.12 12.0898C21.9089 11.9163 23.6579 11.6805 25.3599 11.3822V8.06549H25.3596ZM12.6798 21.4639C9.08428 21.4639 6.15924 18.5384 6.15924 14.9429C6.15924 14.7195 6.17074 14.4991 6.19268 14.2813C6.21249 14.0894 6.24344 13.9005 6.27882 13.7133C6.3793 13.1915 6.54434 12.6935 6.7607 12.2239C6.94891 11.8163 7.17888 11.4316 7.44264 11.0742C7.45839 11.0526 7.47466 11.0314 7.49076 11.01C7.73699 10.6847 8.0142 10.3842 8.31648 10.1107C8.35204 10.0785 8.38653 10.0456 8.42191 10.0143C8.50682 9.9407 8.59456 9.86994 8.68353 9.80042C8.74084 9.75549 8.7994 9.71197 8.85883 9.66899C8.9418 9.60867 9.0244 9.54799 9.1102 9.49138C9.24393 9.40312 9.38103 9.31891 9.52201 9.24108C9.58994 9.20287 9.6614 9.16926 9.73075 9.13388C9.83034 9.08294 9.93082 9.03341 10.0341 8.98724C10.1042 8.95628 10.1751 8.92585 10.2464 8.89702C10.3709 8.84678 10.4985 8.80044 10.6272 8.75763C10.6759 8.74136 10.7233 8.72243 10.7728 8.70739C10.9499 8.65291 11.1302 8.60727 11.3134 8.568C11.3672 8.55633 11.4224 8.54748 11.4771 8.53757C11.6198 8.51086 11.7643 8.48858 11.911 8.47106C11.9683 8.46452 12.0254 8.45691 12.0836 8.4516C12.2802 8.43409 12.4785 8.42171 12.6796 8.42171C12.8812 8.42171 13.0792 8.43409 13.2761 8.4516C13.3341 8.45691 13.3914 8.46452 13.4487 8.47106C13.5945 8.48822 13.7395 8.51068 13.8826 8.53757C13.9371 8.54748 13.9925 8.55633 14.0463 8.568C14.2288 8.60727 14.4094 8.65291 14.5869 8.70739C14.6355 8.7226 14.6838 8.74135 14.7325 8.75763C14.8612 8.80044 14.9881 8.84696 15.1133 8.89702C15.1846 8.92585 15.2555 8.95628 15.3256 8.98724C15.428 9.03341 15.5287 9.08276 15.6284 9.13388C15.6981 9.16944 15.7692 9.20269 15.8377 9.24108C15.9787 9.31927 16.1151 9.40347 16.2495 9.49138C16.3353 9.54817 16.4179 9.60849 16.5009 9.66899C16.5594 9.7118 16.6183 9.75549 16.6762 9.80042C16.7646 9.86958 16.8524 9.9407 16.9378 10.0143C16.9734 10.0454 17.0079 10.0785 17.0432 10.1107C17.3452 10.384 17.6227 10.6845 17.869 11.01C17.8852 11.0312 17.9017 11.0526 17.9171 11.0742C18.1808 11.4315 18.4108 11.8163 18.599 12.2239C18.815 12.6912 18.979 13.186 19.0796 13.7048C19.1569 14.1062 19.2008 14.519 19.2008 14.9431C19.2011 18.5386 16.2758 21.4641 12.6798 21.4641L12.6798 21.4639Z" fill="#8B39E5"/>
<path d="M15.6476 10.3214C15.3943 10.1613 15.0581 10.2365 14.8974 10.49C14.7373 10.7438 14.8125 11.079 15.0665 11.2399C16.3421 12.0474 17.1036 13.4295 17.1043 14.9373C17.1043 16.5274 16.2319 17.9926 14.8555 18.7589L14.3108 17.227L12.7344 20.4424C12.7344 20.4424 13.9367 20.384 14.9953 19.9043C15.0004 19.9023 15.0052 19.9015 15.0103 19.8992C15.0423 19.8847 15.0719 19.8677 15.1032 19.8525C15.1433 19.833 15.1844 19.8139 15.2242 19.7932L15.2235 19.7916C17.0329 18.8615 18.1917 16.9836 18.1917 14.9371C18.1905 13.0548 17.2395 11.3291 15.6476 10.3212L15.6476 10.3214Z" fill="#8B39E5"/>
<path d="M13.4019 15.1498V9.88044C13.4019 9.48049 13.0771 9.15625 12.6773 9.15625C12.2768 9.15625 11.9527 9.48067 11.9527 9.88044V14.4252H9.16401C8.76352 14.4252 8.43945 14.7497 8.43945 15.1498C8.43945 15.5499 8.76352 15.8743 9.16401 15.8743H12.6773C13.0767 15.8745 13.4019 15.5499 13.4019 15.1498Z" fill="#8B39E5"/>
</svg>
