<svg width="475" height="400" viewBox="0 0 475 400" fill="none" xmlns="http://www.w3.org/2000/svg">
<g clip-path="url(#clip0_147_1094)">
<path d="M157.452 372.04H37.0964V399.209H157.452V372.04Z" fill="#6D89CF"/>
<path d="M120.356 372.04H0V399.209H120.356V372.04Z" fill="#3662C1"/>
<path d="M204.787 399.202H294.408V273.96H204.787V399.202Z" fill="#0D467B"/>
<path d="M177.158 399.202H266.779V273.96H177.158V399.202Z" fill="url(#paint0_linear_147_1094)"/>
<path d="M266.774 273.936L294.405 292.745V273.936H266.774Z" fill="#073E71"/>
<path d="M346.715 97.1207C345.332 96.9055 341.152 100.778 341.152 100.778C332.239 101.823 319.207 104.19 314.505 105.081C311.186 105.726 302.242 102.684 293.513 99.1799C283.125 95 273.014 90.2054 273.014 90.2054C267.236 89.8981 260.689 100.44 272.399 107.109C274.181 108.124 280.882 109.875 288.627 111.474C299.291 113.656 311.862 115.561 316.134 114.916C321.113 114.148 335.189 108.984 343.58 105.05C343.58 105.05 343.58 105.05 343.611 105.05C343.641 105.05 343.672 105.019 343.703 105.019C344.194 104.774 346.254 103.882 347.637 103.944C349.204 104.036 352.708 101.178 352.8 100.409C352.923 99.5794 348.098 97.3358 346.715 97.1207Z" fill="#EA8888"/>
<path d="M335.835 229.617L330.917 230.6C330.917 230.6 308.45 205.367 304.977 194.733C303.133 189.047 291.27 186.619 278.884 183.392C268.096 180.595 256.909 177.245 251.561 170.699C240.066 156.622 258.784 139.319 258.784 139.319C258.784 139.319 278.669 151.121 295.819 163.353C307.805 171.897 318.47 180.595 320.068 185.605C323.971 197.837 332.269 221.011 335.835 229.617Z" fill="#343C44"/>
<path d="M329.258 237.946H332.024C332.946 237.792 333.622 237.546 334.575 237.423C336.019 237.239 336.665 237.823 336.818 237.946C336.849 237.976 336.849 237.976 336.849 237.976H348.589C348.897 237.546 348.589 236.593 348.313 235.856C348.128 235.364 347.729 234.995 347.206 234.841C345.977 234.473 343.518 234.165 341.275 232.137C340.015 231 335.189 227.926 335.189 227.926H335.159C335.066 227.926 334.544 228.08 332.362 229.955C331.225 230.907 329.288 228.602 329.288 228.602C329.288 228.602 328.919 228.91 328.643 229.463C328.428 229.893 328.274 230.508 328.397 231.276C328.581 232.321 327.997 234.288 327.567 235.61C327.291 236.409 327.075 236.993 327.075 236.993C327.075 236.993 326.891 237.669 329.258 237.946Z" fill="#D54A41"/>
<path d="M295.849 163.384L278.915 183.454C268.127 180.657 256.94 177.307 251.592 170.76C240.097 156.684 258.814 139.38 258.814 139.38C258.814 139.38 278.669 151.182 295.849 163.384Z" fill="#2D3135"/>
<path d="M280.451 152.904C280.451 152.904 279.099 157.206 276.855 163.691C274.059 171.867 269.848 183.546 265.33 194.364C264.346 196.731 263.332 199.067 262.287 201.31C258.507 209.639 254.634 216.77 251.254 220.396C245.137 226.912 230.293 268.803 230.293 268.803L226.574 267.789C226.574 267.789 221.411 232.014 239.697 211.668C239.882 211.453 240.036 211.207 240.066 210.899C240.312 207.887 241.173 194.395 243.078 180.718C243.539 177.368 244.062 173.987 244.676 170.791C244.707 170.576 244.738 170.391 244.799 170.176C247.596 155.27 250.239 148.662 253.682 145.312L278.976 152.504L280.451 152.904Z" fill="#343C44"/>
<path d="M226.174 273.905H228.94C229.862 273.751 230.539 273.505 231.491 273.382C232.936 273.198 233.581 273.782 233.735 273.905C233.766 273.936 233.766 273.936 233.766 273.936H245.506C245.814 273.505 245.506 272.552 245.23 271.815C245.045 271.323 244.646 270.954 244.123 270.801C242.894 270.432 240.435 270.124 238.191 268.096C236.931 266.959 232.106 263.885 232.106 263.885H232.075C231.983 263.885 231.461 264.039 229.278 265.914C228.141 266.867 226.205 264.562 226.205 264.562C226.205 264.562 225.836 264.869 225.56 265.422C225.344 265.852 225.191 266.467 225.314 267.235C225.498 268.28 224.914 270.247 224.484 271.569C224.207 272.368 223.992 272.952 223.992 272.952C223.992 272.952 223.777 273.628 226.174 273.905Z" fill="#D54A41"/>
<path d="M231.584 104.251C231.584 104.251 227.342 114.609 222.486 124.689C218.368 133.172 213.819 141.44 210.93 143.192C206.842 145.681 195.624 152.719 188.34 157.944C188.34 157.944 182.654 157.913 181.763 158.989C180.872 160.065 178.843 164.982 179.427 165.474C180.011 165.966 184.529 165.751 185.636 164.613C186.588 163.63 188.74 162.923 189.262 162.769C189.293 162.769 189.324 162.739 189.355 162.739H189.385C198.237 160.003 212.129 154.348 216.339 151.582C219.966 149.185 227.988 139.319 234.38 130.529C239.021 124.167 242.802 118.358 243.447 116.391C247.566 103.513 235.641 100.163 231.584 104.251Z" fill="#FC9290"/>
<path d="M253.712 63.6509C253.221 62.9133 252.698 62.2679 252.206 61.6839C252.821 61.6839 253.497 61.6224 254.081 61.4073C255.556 60.7926 256.233 56.0902 256.017 54.6765C255.802 53.2934 253.743 49.2365 251.192 48.8369C248.641 48.4374 246.029 51.265 246.029 51.265C246.49 49.2365 250.793 48.0378 250.793 48.0378C241.941 49.6668 242.371 55.5985 242.433 56.121C234.319 53.232 229.555 68.5069 229.555 68.5069L250.577 80.8929C250.577 80.8929 250.639 77.5121 252.637 77.7272C255.741 78.0961 258.353 70.4125 253.712 63.6509Z" fill="#0B0754"/>
<path d="M255.065 95.7376C250.239 98.012 243.847 94.7234 243.877 94.6927C244.277 94.2931 244.154 93.033 243.754 91.4348C243.386 89.7444 242.494 87.4393 240.835 84.6732C240.497 84.0893 240.159 83.5053 239.728 82.8906L240.281 82.6755L249.655 78.9259C249.655 78.9259 251.161 81.6613 252.76 84.12C254.112 86.1792 255.526 88.054 256.14 87.9926C256.14 87.9311 262.349 92.2032 255.065 95.7376Z" fill="#FC9290"/>
<path d="M249.655 79.8479C249.41 83.198 248.272 89.2219 243.754 91.4348C243.386 89.7444 242.494 87.4393 240.835 84.6732L249.655 79.8479Z" fill="#EA8888"/>
<path d="M240.281 88.4844C240.281 88.4844 252.483 83.6898 249.379 76.1292C246.275 68.5685 245.752 62.8826 237.823 65.618C229.893 68.3841 229.586 71.8571 230.016 74.6539C230.416 77.3893 237.024 89.5294 240.281 88.4844Z" fill="#FC9290"/>
<path d="M244.83 74.3773C250.455 73.5782 252.114 71.3039 252.114 71.3039C252.114 71.3039 246.92 69.8286 243.877 64.7267C243.877 64.7267 237.546 62.606 232.844 66.1712C232.567 66.54 232.352 66.9703 232.26 67.4928C231.184 67.1547 229.555 67.2469 228.633 70.2589C227.219 74.8383 232.229 79.8173 232.229 79.8173C233.428 79.4792 232.075 75.3915 231.891 73.2401C231.737 71.6419 232.598 69.5827 233.09 68.63C233.674 69.3983 239.636 76.8668 246.889 77.1741C246.889 77.1741 243.048 75.8526 239.575 73.2401C241.265 74.1007 243.109 74.6232 244.83 74.3773Z" fill="#0B0754"/>
<path d="M278.269 111.289C278.177 110.92 278.054 110.552 277.931 110.152C279.744 106.679 280.636 103.575 281.005 100.932C281.834 95.3381 280.421 91.8958 280.421 91.8958C280.421 91.8958 271.969 87.4086 268.219 86.8247C268.188 86.8247 268.188 86.8247 268.158 86.8247C268.127 86.8247 268.065 86.8247 268.004 86.8247C264.224 86.3022 256.079 87.9618 256.079 87.9618C256.079 87.9618 257.646 92.1417 253.221 94.9385C248.764 97.7354 244.031 94.2316 244.031 94.2316C243.877 94.3238 243.724 94.4468 243.57 94.539C243.57 94.539 231.891 102.253 230.815 104.005C229.77 105.757 225.283 114.486 225.283 114.486C225.283 114.486 226.697 121.8 242.494 122.415C243.785 125.55 244.799 128.623 245.107 131.205C246.367 141.163 244.892 149 246.367 154.809C247.842 160.618 274.182 157.299 278.976 156.192C283.74 155.086 282.664 149.984 283.033 145.036C283.525 138.827 279.837 116.76 278.269 111.289Z" fill="url(#paint1_linear_147_1094)"/>
<path d="M281.035 100.932C280.667 103.575 279.775 106.71 277.931 110.213C277.532 108.4 275.841 101.7 273.106 98.6573C273.106 98.6573 277.685 99.0569 281.035 100.932Z" fill="#1B4C7A"/>
<path d="M173.711 166.119C173.711 166.119 178.628 160.157 179.673 159.45C180.718 158.743 185.359 157.514 185.636 157.76C185.912 158.006 185.912 158.374 185.328 158.866C184.744 159.389 182.562 160.649 182.87 160.802C183.177 160.956 189.816 157.637 190.768 158.774C191.721 159.88 190.215 164.46 187.664 166.642C185.113 168.824 177.491 169.777 177.03 170.084C172.973 172.697 173.711 166.119 173.711 166.119Z" fill="#EA8888"/>
<path d="M87.2549 152.381C87.2549 152.381 94.3238 160.741 103.298 157.237C103.298 157.237 105.235 152.566 105.265 149.123C105.265 148.693 105.265 148.293 105.265 147.894C105.327 144.021 105.45 141.839 105.45 141.839C105.05 141.655 91.7114 136.184 91.7421 136.645C91.9265 147.156 87.2549 152.381 87.2549 152.381Z" fill="#FC9290"/>
<path d="M93.0637 139.165C94.3545 141.532 98.7495 146.203 105.265 147.894C105.327 144.021 105.45 141.839 105.45 141.839C105.05 141.747 92.6641 138.458 93.0637 139.165Z" fill="#EA8888"/>
<path d="M108.247 141.44C108.247 141.44 93.2481 144.974 91.2197 135.6C89.1605 126.226 85.8412 120.387 95.3381 117.743C104.804 115.1 107.478 118.266 108.923 121.216C110.336 124.198 112.088 140.303 108.247 141.44Z" fill="#FC9290"/>
<path d="M91.7114 138.151C91.4963 138.274 88.2692 139.258 82.1838 127.117C81.231 125.212 80.5856 121.063 82.7984 117.436C85.0421 113.779 92.9408 110.92 99.5487 109.66C106.126 108.4 107.724 112.119 109.261 115.838C110.89 119.741 115.592 122.968 115.592 122.968C109.906 126.134 103.083 121.616 100.717 122.354C98.3501 123.091 97.5202 126.841 97.3358 128.039C97.1514 129.238 96.8748 130.222 93.8936 129.177C90.9123 128.101 92.5413 133.387 93.033 134.401C93.0023 134.371 93.4325 137.075 91.7114 138.151Z" fill="#343C44"/>
<path d="M53.109 372.04H44.0424C42.1368 372.04 40.0161 370.104 39.4937 366.569C38.9712 363.035 35.0679 361.098 34.2074 358.209C33.3468 355.32 37.7111 351.233 37.7111 351.233L38.4487 350.28L39.2171 349.296L46.4089 351.018C46.4089 351.018 46.5933 352.739 46.6855 354.952C46.7777 356.55 46.8085 358.394 46.7162 360.023C46.5011 363.895 47.792 368.044 51.1727 368.782C54.5228 369.55 53.109 372.04 53.109 372.04Z" fill="#060632"/>
<path d="M116.268 372.101H92.2031C91.9879 372.04 91.8035 372.009 91.6806 371.948C90.0824 371.118 90.5742 364.787 90.7586 362.82C90.7893 362.451 90.82 362.236 90.82 362.236C90.82 362.236 99.272 355.259 100.44 360.607C100.471 360.76 100.532 360.945 100.563 361.098C102.038 366.077 108.585 368.352 112.396 368.997C115.346 369.52 116.084 371.241 116.268 372.101Z" fill="#060632"/>
<path d="M111.443 233.028C111.443 233.028 110.152 249.041 108.646 268.311C106.587 294.466 104.128 326.614 103.882 332.7C103.452 343.272 101.761 360.176 101.761 360.176C101.761 360.176 97.7353 364.202 89.7136 362.512C89.7136 362.512 82.5525 338.355 80.4933 312.815C80.4625 312.384 80.4318 311.985 80.4011 311.555C78.4955 285.553 75.545 230.785 75.545 230.785L111.443 233.028Z" fill="#ED6966"/>
<path d="M111.443 233.028C111.443 233.028 110.152 249.041 108.646 268.311L80.4933 312.845C80.4625 312.415 80.4318 312.015 80.4011 311.585C78.4955 285.584 75.545 230.815 75.545 230.815L111.443 233.028Z" fill="#E75755"/>
<path d="M105.573 234.934C105.573 234.934 82.4297 292.96 67.1854 320.252C51.9719 347.514 47.2081 355.136 47.2081 355.136C47.2081 355.136 38.4795 351.632 37.6804 349.266C37.6804 349.266 43.4892 296.618 53.693 283.771C59.4404 276.517 66.2327 254.757 66.54 247.135C66.8474 239.513 68.5992 224.453 68.5992 224.453L105.573 234.934Z" fill="#ED6966"/>
<path d="M52.5557 225.252C52.5557 225.252 51.9411 232.506 51.5108 233.612C51.0805 234.718 48.13 238.161 47.7919 238.13C47.4538 238.069 47.2387 237.823 47.4231 237.116C47.6075 236.409 48.591 234.257 48.2837 234.288C47.9763 234.35 44.6263 240.466 43.2739 240.097C41.9524 239.759 40.6308 235.395 41.4299 232.352C42.229 229.279 47.6075 224.453 47.8226 223.961C49.5745 219.782 52.5557 225.252 52.5557 225.252Z" fill="#EA8888"/>
<path d="M50.0662 227.096C52.6171 227.926 53.0474 227.742 53.0474 227.742C53.0474 227.742 65.5256 205.029 66.7857 202.97C68.0458 200.88 93.2787 177.491 93.2787 177.491L86.7938 153.334C86.7938 153.334 58.1186 190.461 55.0144 195.809C49.8817 204.63 46.9005 225.068 46.9005 225.068C46.9005 225.068 48.0684 226.451 50.0662 227.096Z" fill="url(#paint2_linear_147_1094)"/>
<path d="M116.33 186.988C116.237 191.936 115.961 197.53 115.561 203.185C115.531 203.523 115.5 203.861 115.5 204.199C115.254 207.703 114.977 211.238 114.67 214.649C114.547 216.032 114.424 217.384 114.27 218.706L114.24 218.89C114.24 219.382 114.178 219.935 114.117 220.427C112.857 233.274 111.535 243.416 111.289 243.601C110.982 243.785 110.675 243.908 110.306 243.847C106.925 243.416 96.8748 244.185 88.638 242.402C81.692 240.927 75.6988 238.161 69.3675 234.411C68.5377 233.919 66.6014 232.598 66.7551 231.614C66.9088 230.539 67.1854 228.971 67.5542 227.004C68.8143 220.181 70.9657 208.41 71.7033 194.641C71.857 192.09 72.0414 189.539 72.318 187.05C73.0249 180.565 74.1621 174.418 75.6681 168.947C78.4956 158.774 82.6448 150.998 87.8389 147.955C88.515 147.587 92.1724 149.892 95.5225 152.043C98.6267 154.041 101.885 154.594 105.081 154.317L107.878 157.422C111.258 161.356 114.854 166.611 115.869 174.049C115.93 174.602 115.992 175.186 116.053 175.801C116.33 178.843 116.391 182.685 116.33 186.988Z" fill="url(#paint3_linear_147_1094)"/>
<path d="M116.33 186.988C116.237 191.936 115.961 197.53 115.561 203.185C115.53 203.523 115.5 203.861 115.5 204.199C96.26 192.151 93.2788 170.084 93.2788 170.084C102.745 170.514 110.275 172.666 116.084 175.801C116.33 178.843 116.391 182.685 116.33 186.988Z" fill="#1B4C7A"/>
<path d="M176.63 166.734C175.647 164.06 174.11 164.214 174.11 164.214C174.11 164.214 145.497 171.344 142.915 171.652C140.333 171.959 112.088 160.618 112.088 160.618C112.088 160.618 100.962 155.639 95.7683 160.188C91.2504 164.152 91.0352 169.162 92.0802 173.373C93.3403 178.382 97.5816 182.101 102.714 182.747C114.24 184.222 137.229 186.988 142.054 186.312C152.781 184.806 177.091 170.791 177.091 170.791C177.091 170.791 177.399 168.824 176.63 166.734Z" fill="url(#paint4_linear_147_1094)"/>
<path d="M458.865 219.198C458.865 219.198 462.829 222.886 462.061 225.498C461.293 228.111 457.697 229.862 457.205 233.059C456.713 236.255 454.777 238.007 453.025 238.007C451.273 238.007 444.696 238.007 444.696 238.007C444.696 238.007 443.405 235.763 446.509 235.087C449.614 234.411 450.781 230.661 450.597 227.158C450.413 223.654 450.874 219.013 450.874 219.013L457.482 217.476L458.865 219.198Z" fill="#0B0754"/>
<path d="M409.321 237.577C408.921 237.792 407.507 237.915 405.54 238.007H386.731C386.792 237.454 387.223 235.456 390.296 234.964C393.769 234.411 399.793 232.383 401.145 227.926C401.176 227.772 401.238 227.65 401.268 227.496C402.344 222.732 410.089 228.94 410.089 228.94C410.089 228.94 410.12 229.125 410.151 229.463C410.304 231.215 410.765 236.839 409.321 237.577Z" fill="#0B0754"/>
<path d="M391.218 110.459C391.218 110.459 392.386 125.15 393.769 142.823C395.644 166.826 397.918 196.331 398.133 201.894C398.533 211.606 400.07 227.127 400.07 227.127C400.07 227.127 403.758 230.815 411.134 229.248C411.134 229.248 417.711 207.088 419.586 183.669C419.617 183.3 419.647 182.9 419.678 182.501C421.43 158.651 424.135 108.4 424.135 108.4L391.218 110.459Z" fill="url(#paint5_linear_147_1094)"/>
<path d="M391.218 110.459C391.218 110.459 392.386 125.15 393.769 142.823L419.586 183.669C419.617 183.3 419.647 182.9 419.678 182.501C421.43 158.651 424.135 108.4 424.135 108.4L391.218 110.459Z" fill="#1B4C7A"/>
<path d="M396.597 112.211C396.597 112.211 417.834 165.474 431.818 190.492C445.772 215.509 450.136 222.486 450.136 222.486C450.136 222.486 458.127 219.29 458.865 217.108C458.865 217.108 453.517 168.793 444.174 157.022C438.887 150.353 432.679 130.406 432.402 123.429C432.126 116.453 430.497 102.622 430.497 102.622L396.597 112.211Z" fill="url(#paint6_linear_147_1094)"/>
<path d="M331.071 83.3209C331.071 83.3209 325.324 81.9993 324.34 82.0608C323.357 82.1223 319.976 83.5361 319.945 83.8127C319.914 84.0893 320.068 84.3044 320.652 84.3659C321.236 84.3966 323.172 84.1507 323.049 84.3966C322.926 84.6425 317.363 85.7182 317.302 86.8554C317.24 87.9618 320.283 90.0517 322.865 90.2054C325.447 90.3591 330.487 87.3471 330.917 87.3164C334.605 86.9783 331.071 83.3209 331.071 83.3209Z" fill="#FC9290"/>
<path d="M328.612 84.7961C327.782 82.153 327.967 81.7534 327.967 81.7534C327.967 81.7534 351.325 69.1216 353.446 67.8308C355.597 66.5399 379.723 40.8767 379.723 40.8767L404.434 47.669C404.434 47.669 366.17 76.8052 360.699 79.9401C351.632 85.1342 330.671 88.054 330.671 88.054C330.671 88.054 329.258 86.8554 328.612 84.7961Z" fill="#E75755"/>
<path d="M387.253 28.3678C387.253 28.3678 378.586 43.6121 370.104 45.6098C370.104 45.6098 370.442 40.4772 372.532 36.9735C371.702 35.99 370.933 35.0679 370.288 34.2381C368.167 31.5027 367.153 29.8431 367.153 29.8431L370.042 22.1287L371.978 16.8732C372.9 18.5636 373.945 20.0388 375.021 21.2682C380.584 27.6609 387.253 28.3678 387.253 28.3678Z" fill="#FC9290"/>
<path d="M375.021 21.2682C375.021 21.2682 376.066 28.921 370.288 34.2688C368.167 31.5335 367.153 29.8738 367.153 29.8738L370.042 22.1595C373.116 21.176 375.021 21.2682 375.021 21.2682Z" fill="#EA8888"/>
<path d="M364.848 30.9802C364.848 30.9802 377.787 25.9398 374.529 17.9181C371.271 9.89644 370.718 3.84176 362.328 6.73079C353.937 9.61983 353.568 13.3387 353.999 16.2585C354.46 19.209 361.406 32.0867 364.848 30.9802Z" fill="#FC9290"/>
<path d="M431.757 106.618C426.532 114.117 387.468 124.167 387.929 118.973C388.114 116.975 388.36 113.471 387.929 108.708C387.837 107.601 387.684 106.402 387.499 105.173C386.516 98.3501 384.149 89.56 378.894 79.387C378.494 78.6186 378.095 77.8502 377.664 77.0819C375.513 73.1479 373.669 68.9987 372.255 64.9111C369.55 57.1045 368.444 49.6053 369.827 44.7186C369.827 44.6878 369.827 44.6878 369.858 44.6571C378.033 40.8768 381.199 26.2472 381.199 26.2472C381.199 26.2472 409.044 31.2569 424.657 68.384C424.626 68.384 436.305 100.102 431.757 106.618Z" fill="#ED6966"/>
<path d="M387.93 108.708C387.837 107.601 387.684 106.403 387.499 105.173C386.516 98.3501 384.149 89.5601 378.894 79.387C379.785 73.9162 381.045 69.3676 382.397 67.3083C387.96 58.9793 391.187 57.6885 391.187 57.6885C391.187 57.6885 399.547 92.8179 387.93 108.708Z" fill="#E75755"/>
<path d="M344.041 100.348C344.041 100.348 336.326 100.747 335.128 101.178C333.929 101.608 330.18 104.589 330.21 104.958C330.241 105.327 330.548 105.542 331.286 105.388C332.024 105.235 334.359 104.22 334.298 104.558C334.236 104.896 327.629 108.247 327.967 109.691C328.305 111.105 332.853 112.642 336.142 111.904C339.431 111.166 344.717 105.603 345.239 105.388C349.727 103.667 344.041 100.348 344.041 100.348Z" fill="#FC9290"/>
<path d="M342.566 103.268C341.029 100.778 342.135 99.6409 342.135 99.6409C342.135 99.6409 365.924 81.0159 367.798 79.1103C369.673 77.2355 378.31 47.2388 378.31 47.2388C378.31 47.2388 381.291 35.0987 388.237 33.7771C394.292 32.6092 398.471 35.6212 401.207 39.1249C404.465 43.3048 404.803 49.0828 402.067 53.6315C395.982 63.8661 383.719 84.2122 380.154 87.6852C372.194 95.3996 345.516 106.218 345.516 106.218C345.516 106.218 343.795 105.235 342.566 103.268Z" fill="#ED6966"/>
<path d="M376.404 3.01197C376.496 2.82756 376.773 2.64316 377.388 2.45875C377.388 2.45875 376.773 2.24361 376.097 2.39728C375.728 1.50599 374.837 0 373.177 0C373.177 0 374.13 0.245875 374.468 1.19864C372.194 -0.245875 367.983 -0.645422 357.472 2.82756C343.611 7.43772 350.526 15.4901 352.646 16.1356C354.736 16.781 358.609 12.6318 362.082 12.0786C365.555 11.5254 367.43 16.3507 368.751 16.7502C370.073 17.1498 369.335 16.0434 370.718 14.9369C372.101 13.8305 372.9 16.4429 372.87 18.2562C372.839 20.0696 375.544 21.8214 375.544 21.8214C375.544 21.8214 375.544 21.8214 377.142 18.9017C378.74 15.9819 378.31 5.40925 376.773 3.53446C376.681 3.38078 376.527 3.19638 376.404 3.01197Z" fill="#343C44"/>
<path d="M475.031 238.007H352.308V399.178H475.031V238.007Z" fill="#6D89CF"/>
<path d="M437.166 238.007H314.443V399.209H437.166V238.007Z" fill="#3662C1"/>
<path d="M475 238.007V262.103L437.166 238.007H475Z" fill="#5A7CD0"/>
</g>
<defs>
<linearGradient id="paint0_linear_147_1094" x1="217.336" y1="419.795" x2="232.588" y2="251.924" gradientUnits="userSpaceOnUse">
<stop stop-color="#1C65AB"/>
<stop offset="1" stop-color="#10375C"/>
</linearGradient>
<linearGradient id="paint1_linear_147_1094" x1="257.168" y1="74.9802" x2="249.463" y2="170.878" gradientUnits="userSpaceOnUse">
<stop stop-color="#1C65AB"/>
<stop offset="1" stop-color="#10375C"/>
</linearGradient>
<linearGradient id="paint2_linear_147_1094" x1="72.487" y1="141.097" x2="62.1061" y2="240.594" gradientUnits="userSpaceOnUse">
<stop stop-color="#1C65AB"/>
<stop offset="1" stop-color="#10375C"/>
</linearGradient>
<linearGradient id="paint3_linear_147_1094" x1="94.1131" y1="132.141" x2="78.0613" y2="259.787" gradientUnits="userSpaceOnUse">
<stop stop-color="#1C65AB"/>
<stop offset="1" stop-color="#10375C"/>
</linearGradient>
<linearGradient id="paint4_linear_147_1094" x1="138.781" y1="153.644" x2="137.969" y2="191.662" gradientUnits="userSpaceOnUse">
<stop stop-color="#1C65AB"/>
<stop offset="1" stop-color="#10375C"/>
</linearGradient>
<linearGradient id="paint5_linear_147_1094" x1="409.378" y1="88.4664" x2="372.273" y2="243.423" gradientUnits="userSpaceOnUse">
<stop stop-color="#1C65AB"/>
<stop offset="1" stop-color="#10375C"/>
</linearGradient>
<linearGradient id="paint6_linear_147_1094" x1="430.949" y1="82.9139" x2="410.989" y2="242.404" gradientUnits="userSpaceOnUse">
<stop stop-color="#1C65AB"/>
<stop offset="1" stop-color="#10375C"/>
</linearGradient>
<clipPath id="clip0_147_1094">
<rect width="475" height="399.209" fill="white"/>
</clipPath>
</defs>
</svg>
