<svg width="17" height="19" viewBox="0 0 17 19" fill="none" xmlns="http://www.w3.org/2000/svg">
<path fill-rule="evenodd" clip-rule="evenodd" d="M9.1255 1.01303L15.8709 7.91153C16.1911 8.24053 16.3749 8.69903 16.3749 9.17066V16.4997C16.3749 17.4648 15.6338 18.2497 14.7229 18.2497H11.9999V10.3747C11.9999 9.89166 11.6088 9.49966 11.1249 9.49966H5.87488C5.391 9.49966 4.99988 9.89166 4.99988 10.3747V18.2497H2.27775C1.36688 18.2497 0.624878 17.4648 0.624878 16.4997V9.17066C0.624878 8.69903 0.808628 8.24053 1.128 7.91241L7.87425 1.01303C8.20413 0.676157 8.79563 0.676157 9.1255 1.01303ZM10.2501 17.375H6.75005V11.25H10.2501V17.375Z" fill="url(#paint0_linear_363_983)"/>
<defs>
<linearGradient id="paint0_linear_363_983" x1="0.624878" y1="9.50502" x2="16.3749" y2="9.50502" gradientUnits="userSpaceOnUse">
<stop stop-color="#10375C"/>
<stop offset="0.475194" stop-color="#13406A"/>
<stop offset="1" stop-color="#1C65AB"/>
</linearGradient>
</defs>
</svg>
