<svg width="23" height="25" viewBox="0 0 23 25" fill="none" xmlns="http://www.w3.org/2000/svg">
<path d="M11.4795 17.5962C5.1507 17.5962 0 19.1304 0 21.0482C0 22.9387 5.1507 24.5002 11.4795 24.5002C17.8083 24.5002 22.959 22.9385 22.959 21.0482C22.959 19.1304 17.8083 17.5962 11.4795 17.5962ZM11.4795 22.3634C8.43837 22.3634 5.97262 21.7606 5.97262 21.0209C5.97262 20.2537 8.43828 19.651 11.4795 19.651C14.5207 19.651 16.9863 20.2537 16.9863 21.0209C16.9863 21.7606 14.5207 22.3634 11.4795 22.3634Z" fill="#C7C7C7"/>
<path d="M9.83534 0.5V7.29453L1.15039 2.55465L9.83534 0.5Z" fill="#C7C7C7"/>
<path d="M12.0278 21.4315H10.7949V0.5H12.0278V21.4315Z" fill="#C7C7C7"/>
<path d="M11.5618 23.541C11.5618 23.541 11.507 23.5683 11.4523 23.5959C11.425 23.6232 11.425 23.6507 11.3975 23.678L11.5618 23.541Z" fill="#C7C7C7"/>
</svg>
