<svg width="979" height="659" viewBox="0 0 979 659" fill="none" xmlns="http://www.w3.org/2000/svg">
<g clip-path="url(#clip0_612_11483)">
<path d="M1116.13 521.327H986.163C1000.08 509.372 1008.96 491.216 1008.96 470.946V456.047C1008.96 412.839 1042.49 377.843 1083.86 377.843C1126.27 377.843 1160.65 341.945 1160.65 297.663C1160.65 253.381 1126.27 217.484 1083.86 217.484H1071.28C1029.91 217.484 996.377 182.453 996.377 139.28C996.377 103.244 968.4 74 933.872 74H445.379C406.966 74 375.806 106.536 375.806 146.626C375.806 174.068 390.35 197.942 411.851 210.277H326.069C290.283 210.277 261.269 238.308 261.269 272.889C261.269 314.33 226.52 347.905 183.629 347.905H170.602C126.638 347.94 91 382.347 91 424.827C91 467.308 126.638 501.75 170.602 501.75C213.493 501.75 248.243 535.325 248.243 576.766V591.076C248.243 625.657 277.256 653.688 313.042 653.688H614.538C616.796 653.896 619.127 654 621.459 654H1116.17C1155.28 654 1187 624.305 1187 587.681C1186.96 551.021 1155.25 521.327 1116.13 521.327Z" fill="#F2F8FE"/>
<path d="M540.414 465.376L532.282 463.832L496.925 650.728L505.058 652.272L540.414 465.376Z" fill="#184655"/>
<path d="M775.173 653.182H784.98L748.499 463.828L740.361 465.395L775.173 653.182Z" fill="#184655"/>
<path d="M595.897 653.182H605.67L569.189 463.828L561.051 465.395L595.897 653.182Z" fill="#184655"/>
<path d="M685.97 653.182L678.006 653.287L712.992 464.699L721.13 466.232L685.97 653.182Z" fill="#184655"/>
<path d="M650.428 208.835C682.666 212.284 724.399 215.942 766.27 287.155C812.037 364.987 787.937 481.247 751.803 513.544C715.67 545.84 597.671 585.732 498.452 526.016C498.452 526.016 438.566 489.818 469.309 429.754C516.606 337.324 509.929 318.058 531.073 281.824C552.218 245.591 581.987 201.484 650.428 208.835Z" fill="#FAE0B2"/>
<path d="M766.305 287.155C737.718 238.553 709.201 221.412 683.744 214.34C693.586 224.548 703.602 237.682 713.583 254.684C759.35 332.516 735.249 448.777 699.116 481.073C667.086 509.711 570.649 544.342 480.02 510.129C489.34 520.442 498.487 525.982 498.487 525.982C597.706 585.697 715.704 545.805 751.838 513.509C787.971 481.247 812.072 364.987 766.305 287.155Z" fill="#F7CC7F"/>
<path d="M546.931 327.151L538.62 352.062L563.903 342.097L546.931 327.151Z" fill="#F79C8D"/>
<path d="M572.944 253.012C571.275 253.082 566.65 254.615 559.903 267.366C551.278 283.636 538.689 332.725 538.689 332.725L576.283 346.696L581.117 336.453L589.081 257.541C589.081 257.541 573.431 253.012 572.944 253.012Z" fill="#042A44"/>
<path d="M622.641 245.94C611.895 245.94 585.29 249.076 572.945 253.013C572.945 253.013 563.868 330.81 581.117 389.968C584.977 403.207 577.918 444.84 577.918 444.84L689.309 443.377C689.309 443.377 676.128 342.725 681.101 326.49C686.074 310.22 686.179 253.57 686.179 253.57C686.179 253.57 685.414 253.466 661.139 249.25C649.837 247.299 634.118 245.94 622.641 245.94Z" fill="#07345A"/>
<path d="M635.613 589.251C635.613 589.251 633.144 617.645 628.623 625.519C624.102 633.393 628.866 646.736 629.11 648.583C629.353 650.429 638.639 653.042 653.419 651.475C668.199 649.907 667.956 646.493 666.773 640.988C665.591 635.483 657.696 628.411 657.244 623.15C656.757 617.924 661.765 599.041 661.765 599.041L635.613 589.251Z" fill="#F7A491"/>
<path d="M590.507 421.393C590.507 421.393 513.615 417.143 496.47 427.525C479.29 437.907 499.565 459.229 499.565 459.229C499.565 459.229 562.164 486.404 666.947 492.432C691.778 493.86 693.899 427.839 689.274 422.369C684.614 416.899 590.507 421.393 590.507 421.393Z" fill="#327F6B"/>
<path d="M655.262 653.67C670.494 652.067 668.616 644.576 667.364 638.932C666.599 635.379 662.217 631.198 659.609 627.226C658.253 628.306 656.027 630.222 649.419 632.173C642.568 634.194 633.144 630.188 627.162 627.679C625.041 635.623 624.936 645.761 625.11 647.294C625.389 649.175 640.03 655.272 655.262 653.67Z" fill="#355389"/>
<path d="M646.88 476.3C643.82 499.504 628.588 615.032 628.588 615.032L663.886 619.387C663.886 619.387 707.288 468.601 705.063 445.537C702.837 422.473 686.596 420.522 686.596 420.522C686.596 420.522 654.984 414.878 646.88 476.3Z" fill="#3C8F7C"/>
<path d="M613.077 147.761C613.077 147.761 624.797 135.393 634.222 150.444C634.222 150.444 641.49 146.368 646.568 153.649C646.568 153.649 659.679 149.678 662.878 169.362C662.878 169.362 669.625 168.073 670.529 176.121C671.433 184.169 667.329 189.534 667.329 189.534C667.329 189.534 671.12 192.391 669.416 199.777C667.955 206.048 662.774 207.024 662.774 207.024C662.774 207.024 661.383 217.615 656.792 220.82C652.201 224.026 645.976 222.493 645.976 222.493C645.976 222.493 644.307 228.241 638.951 227.719C633.596 227.196 626.988 222.11 620.972 224.409C614.99 226.708 599.445 224.27 599.445 224.27C599.445 224.27 581.986 216.465 587.203 198.593C587.203 198.593 578.022 190.301 586.055 180.337C586.055 180.337 580.178 164.763 591.794 155.566C603.374 146.368 613.077 147.761 613.077 147.761Z" fill="#07345A"/>
<path d="M615.025 231.864L612.904 247.647C612.904 247.647 608.139 270.362 614.26 274.752C620.381 279.142 640.273 246.985 640.273 246.985L638.187 207.023L615.025 231.864Z" fill="#F7A491"/>
<path d="M638.882 219.95C633.839 233.572 621.806 241.968 613.251 245.208L615.059 231.83L638.221 206.989L638.882 219.95Z" fill="#F47458"/>
<path d="M624.067 165.007C611.652 160.722 598.436 168.979 596.524 181.8C595.689 187.374 594.959 194.377 594.819 202.042C594.472 220.472 604.001 238.38 612.347 238.38C620.694 238.38 643.786 226.465 644.62 200.3C645.142 184.169 637.074 169.501 624.067 165.007Z" fill="#F7A491"/>
<path d="M638.464 202.39C638.464 206.466 641.142 209.741 644.481 209.741C647.819 209.741 650.497 206.431 650.497 202.39C650.497 198.314 647.819 195.039 644.481 195.039C641.142 195.039 638.464 198.314 638.464 202.39Z" fill="#F7A491"/>
<path d="M587.864 155.844C579.239 162.673 576.213 173.09 581.117 179.082C586.021 185.075 596.975 184.378 605.6 177.514C614.225 170.686 617.25 160.269 612.347 154.276C607.478 148.319 596.488 149.015 587.864 155.844Z" fill="#07345A"/>
<path d="M687.396 262.21C676.998 258.308 671.885 351.993 670.494 390.56C652.062 392.337 619.894 390.56 611.895 389.968C608.139 389.689 599.445 386.519 595.724 386.031C591.898 385.543 588.42 385.265 586.508 385.613C585.812 385.717 566.58 393.591 564.946 395.298C562.894 397.424 557.399 402.824 558.338 405.158C559.277 407.492 568.945 398.678 568.945 398.678L573.675 396.03C567.798 401.779 556.565 409.339 558.199 412.091C559.764 414.774 569.884 407.109 577.118 401.883C570.927 407.457 563.242 417.456 565.015 419.024C566.615 420.418 575.344 408.851 584.699 405.541C588.177 404.322 591.62 407.736 594.332 408.154C596.349 408.468 599.41 409.095 601.392 408.538L611.512 405.681C614.955 405.994 615.06 408.015 618.537 408.781C622.571 409.652 629.214 410.558 634.361 411.812C663.991 419.059 673.902 422.404 682.979 422.404C710.418 422.23 711.983 271.408 687.396 262.21Z" fill="#F7A491"/>
<path d="M707.149 350.146C709.097 310.637 708.819 261.966 686.631 253.674C677.867 250.4 662.461 270.119 665.243 350.947C677.067 351.923 694.456 352.724 707.149 350.146Z" fill="#07345A"/>
<path d="M583.1 333.179H585.36L619.337 416.55L616.973 416.202L583.1 333.179Z" fill="#F79C8D"/>
<path d="M532.429 613.534C532.429 613.534 535.524 623.394 529.995 629.909C524.465 636.424 501.582 642.834 498.556 646.353C495.565 649.872 495.774 652.903 495.774 652.903L560.077 651.126L559.381 631.72L556.425 617.784L532.429 613.534Z" fill="#F7A491"/>
<path d="M525.995 633.184C525.995 633.184 542.515 639.873 550.513 635.901C558.477 631.964 558.269 630.849 560.564 632.313C562.859 633.776 563.694 651.962 563.694 651.962L491.392 654.088C486.349 653.983 483.811 650.255 487.914 647.12C490.731 644.96 493.966 643.496 495.809 642.451C501.443 639.176 525.995 633.184 525.995 633.184Z" fill="#355389"/>
<path d="M534.863 439.579C529.89 429.127 518.588 415.54 498.695 423.727C479.742 431.531 474.629 450.728 480.611 470.377C486.593 490.027 525.995 605.556 527.351 621.443L558.825 621.652C558.825 621.652 553.121 530.162 551.695 508.039C550.374 486.822 543.453 457.661 534.863 439.579Z" fill="#3C8F7C"/>
<path d="M483.811 333.179H588.977C591.759 333.179 594.263 334.851 595.306 337.429L627.684 416.55H685.657C687.292 416.55 688.578 417.874 688.578 419.477C688.578 421.114 687.257 422.403 685.657 422.403H520.675C516.154 422.403 512.015 419.72 510.172 415.575L477.586 342.829C475.499 338.3 478.838 333.179 483.811 333.179Z" fill="#B9C5D3"/>
<path d="M540.428 379.237C541.123 382.791 544.219 385.16 547.349 384.533C550.444 383.906 552.391 380.526 551.696 376.973C551 373.419 547.905 371.05 544.775 371.677C541.645 372.304 539.698 375.683 540.428 379.237Z" fill="white"/>
<path d="M979 652H128V656H979V652Z" fill="#042A44"/>
<path d="M381.107 372.639C366.456 380.149 355.253 393.2 347.25 407.604C339.248 422.009 333.954 437.645 328.906 453.281L324.35 533.922C341.341 504.99 355.007 471.01 358.7 437.645C354.883 437.276 351.19 437.029 347.373 436.66C355.007 435.552 361.286 430.012 365.348 423.486C369.411 416.961 371.504 409.451 373.474 402.064C368.919 402.803 364.24 403.418 359.685 404.157C370.519 396.893 378.276 385.443 381.107 372.639Z" fill="#455A64"/>
<path d="M381.107 372.639C366.456 380.149 355.253 393.2 347.25 407.604C339.248 422.009 333.954 437.645 328.906 453.281L324.35 533.922C341.341 504.99 355.007 471.01 358.7 437.645C354.883 437.276 351.19 437.029 347.373 436.66C355.007 435.552 361.286 430.012 365.348 423.486C369.411 416.961 371.504 409.451 373.474 402.064C368.919 402.803 364.24 403.418 359.685 404.157C370.519 396.893 378.276 385.443 381.107 372.639Z" fill="#3C8F7C"/>
<g opacity="0.3">
<g opacity="0.3">
<path opacity="0.3" d="M381.107 372.639C366.456 380.149 355.253 393.2 347.25 407.604C339.248 422.009 333.954 437.645 328.906 453.281L324.35 533.922C341.341 504.99 355.007 471.01 358.7 437.645C354.883 437.276 351.19 437.029 347.373 436.66C355.007 435.552 361.286 430.012 365.348 423.486C369.411 416.961 371.504 409.451 373.474 402.064C368.919 402.803 364.24 403.418 359.685 404.157C370.519 396.893 378.276 385.443 381.107 372.639Z" fill="black"/>
</g>
</g>
<path d="M321.765 552.883C321.765 552.883 284.83 508.684 285.322 466.578H300.219C300.219 466.578 283.968 455.99 285.322 449.957C286.677 443.924 287.046 421.394 287.046 421.394L300.712 424.841C300.712 424.841 290.493 419.67 289.262 411.667C288.031 403.665 292.217 366.114 292.217 366.114C292.217 366.114 308.838 383.597 313.886 401.449C319.056 419.301 332.353 440.231 328.413 494.771C324.474 549.189 321.765 552.883 321.765 552.883Z" fill="#3C8F7C"/>
<path d="M340.479 557.068C340.479 557.068 380.492 530.475 389.356 496.495L377.414 493.294C377.414 493.294 392.803 488.246 393.05 483.198C393.296 478.15 397.974 459.929 397.974 459.929L386.278 459.683C386.278 459.683 395.635 457.836 398.467 451.557C401.299 445.278 406.1 414.252 406.1 414.252C406.1 414.252 388.987 424.717 380.861 437.891C372.858 451.188 357.469 464.977 348.728 509.668C339.74 554.237 340.479 557.068 340.479 557.068Z" fill="#3C8F7C"/>
<path d="M302.189 404.527C302.189 404.527 302.189 404.65 302.313 405.019C302.436 405.389 302.559 405.758 302.682 406.374C302.928 407.605 303.297 409.328 303.79 411.668C304.282 413.884 304.898 416.715 305.514 420.04C306.129 423.241 306.991 426.934 307.73 431.12C309.33 439.369 310.931 449.095 312.654 460.053C314.378 471.01 315.979 482.952 317.456 495.633C318.933 508.315 320.041 520.38 320.903 531.337C321.765 542.295 322.381 552.267 322.627 560.639C322.873 564.825 322.873 568.519 322.996 571.843C323.119 575.167 323.119 577.999 323.242 580.338C323.242 582.677 323.242 584.401 323.242 585.755C323.242 586.371 323.242 586.863 323.242 587.109C323.242 587.479 323.242 587.602 323.242 587.602C323.242 587.602 323.242 587.479 323.242 587.109C323.242 586.74 323.242 586.248 323.119 585.755C323.119 584.524 322.996 582.677 322.996 580.338C322.996 577.999 322.873 575.167 322.75 571.843C322.627 568.519 322.504 564.825 322.258 560.639C321.888 552.267 321.149 542.418 320.411 531.461C319.549 520.503 318.318 508.438 316.964 495.757C315.486 483.076 313.886 471.133 312.162 460.176C310.438 449.341 308.838 439.492 307.36 431.243C306.622 427.18 305.883 423.487 305.267 420.163C304.652 416.962 304.159 414.13 303.667 411.791C303.174 409.575 302.805 407.728 302.559 406.497C302.436 405.881 302.313 405.512 302.313 405.142C302.189 404.65 302.189 404.527 302.189 404.527Z" fill="#263238"/>
<path d="M316.594 579.968C316.594 579.968 282.86 541.679 272.395 518.533L280.274 515.208C274.488 516.193 268.701 513.731 264.269 509.914C259.837 506.221 256.513 501.296 253.312 496.371L263.777 494.648C254.297 491.939 245.925 485.537 241 477.042C253.312 479.012 264.392 485.783 273.626 494.278C281.013 501.173 287.292 509.052 293.448 517.178C296.403 521.118 298.988 525.304 301.081 529.736C306.745 541.309 316.717 565.809 316.594 579.968Z" fill="#3C8F7C"/>
<path d="M389.848 436.413C389.848 436.413 389.848 436.537 389.725 436.783C389.602 437.029 389.479 437.398 389.233 437.891C388.74 438.876 388.002 440.353 387.14 442.2C385.293 445.893 382.708 451.187 379.63 457.836C376.552 464.484 372.981 472.487 369.042 481.351C365.225 490.216 361.162 500.065 357.099 510.53C353.036 520.995 349.466 530.967 346.265 540.201C343.187 549.312 340.479 557.684 338.262 564.701C336.046 571.719 334.446 577.382 333.215 581.322C332.599 583.292 332.23 584.77 331.86 585.878C331.737 586.37 331.614 586.739 331.491 587.109C331.368 587.355 331.368 587.478 331.368 587.478C331.368 587.478 331.368 587.355 331.491 587.109C331.614 586.863 331.614 586.37 331.737 585.878C331.983 584.77 332.476 583.292 332.968 581.322C334.076 577.382 335.677 571.596 337.77 564.578C339.863 557.561 342.571 549.189 345.649 540.078C348.727 530.844 352.421 520.872 356.361 510.407C360.423 499.942 364.486 490.092 368.303 481.228C372.243 472.364 375.813 464.361 379.014 457.836C382.215 451.187 384.801 445.893 386.647 442.2C387.632 440.353 388.248 438.999 388.863 438.014C389.11 437.521 389.356 437.152 389.479 436.906C389.725 436.537 389.848 436.413 389.848 436.413Z" fill="#263238"/>
<path d="M319.549 596.343C319.549 596.343 319.426 596.097 319.426 595.605C319.303 595.112 319.18 594.374 319.056 593.512C318.933 592.65 318.81 591.542 318.564 590.311C318.318 589.08 318.071 587.602 317.825 586.125C317.21 583.047 316.348 579.23 315.24 575.167C314.132 571.104 312.654 566.672 310.931 562.117C309.207 557.562 307.36 553.253 305.514 549.559C303.667 545.742 301.82 542.418 300.22 539.71C299.481 538.355 298.619 537.124 298.003 536.016C297.388 534.908 296.772 534.046 296.28 533.308C295.787 532.569 295.418 532.076 295.172 531.584C294.926 531.215 294.802 530.968 294.802 530.968C294.802 530.968 294.925 531.091 295.295 531.584C295.664 532.076 296.034 532.569 296.526 533.308C297.018 534.046 297.634 534.908 298.373 536.016C299.111 537.124 299.85 538.232 300.712 539.71C302.436 542.418 304.282 545.742 306.129 549.559C307.976 553.376 309.946 557.685 311.669 562.24C313.393 566.795 314.747 571.228 315.855 575.414C316.963 579.476 317.702 583.293 318.318 586.371C318.687 587.972 318.81 589.326 319.056 590.68C319.303 591.911 319.426 593.019 319.426 593.881C319.549 594.743 319.549 595.359 319.672 595.974C319.549 596.097 319.549 596.343 319.549 596.343Z" fill="#263238"/>
<path d="M363.994 587.356H290.124V602.376H363.994V587.356Z" fill="#263238"/>
<path d="M297.265 602.376L305.144 653.1H349.836L357.346 602.376H297.265Z" fill="#263238"/>
<path d="M359.562 602.375C359.562 602.498 345.526 602.745 328.29 602.745C311.054 602.745 297.018 602.621 297.018 602.375C297.018 602.252 311.054 602.006 328.29 602.006C345.526 602.129 359.562 602.252 359.562 602.375Z" fill="#455A64"/>
</g>
<defs>
<clipPath id="clip0_612_11483">
<rect width="1101" height="659" fill="white"/>
</clipPath>
</defs>
</svg>
