<svg width="18" height="18" viewBox="0 0 18 18" fill="none" xmlns="http://www.w3.org/2000/svg">
<mask id="mask0_363_988" style="mask-type:alpha" maskUnits="userSpaceOnUse" x="0" y="0" width="18" height="18">
<path fill-rule="evenodd" clip-rule="evenodd" d="M12.0833 0.0695923C13.0374 -0.20301 14.0319 0.349459 14.3045 1.30357C14.3504 1.46409 14.3736 1.63021 14.3736 1.79716V3.30123H16.1702C17.1625 3.30123 17.9669 4.10564 17.9669 5.09793V15.8781C17.9669 16.8704 17.1625 17.6748 16.1702 17.6748H1.79669C0.804407 17.6748 0 16.8704 0 15.8781H0.0240609C0.00811373 15.7815 7.19257e-05 15.6836 7.19257e-05 15.5855V4.8772C7.19257e-05 4.07502 0.531853 3.37002 1.30318 3.14964L12.0833 0.0695923ZM7.31266 15.8781H16.1702V5.09793H14.3736V6.89463H16.1702V8.69132H14.3736V12.5054C14.3736 13.3076 13.8418 14.0126 13.0705 14.233L7.31266 15.8781ZM1.79657 4.87717V15.5854L12.5767 12.5054V1.79713L1.79657 4.87717ZM10.78 6.89463C10.78 7.39078 10.3778 7.79298 9.8817 7.79298C9.38556 7.79298 8.98336 7.39078 8.98336 6.89463C8.98336 6.39849 9.38556 5.99628 9.8817 5.99628C10.3778 5.99628 10.78 6.39849 10.78 6.89463Z" fill="black"/>
</mask>
<g mask="url(#mask0_363_988)">
<rect x="-0.898193" y="-0.292145" width="19.7636" height="19.7636" fill="#808080"/>
</g>
</svg>
