<svg width="29" height="24" viewBox="0 0 29 24" fill="none" xmlns="http://www.w3.org/2000/svg">
<path d="M13.9138 7.84694C13.0482 7.84648 12.2141 8.17209 11.5778 8.75893C11.4495 8.6504 11.2874 8.59004 11.1194 8.58823C10.5998 8.59262 10.0845 8.49486 9.60264 8.3005C10.2857 7.40992 10.7048 6.3453 10.8121 5.22805H11.134C11.328 5.22805 11.5141 5.15097 11.6513 5.01378C11.7885 4.87659 11.8655 4.69053 11.8655 4.49651C11.8655 4.30249 11.7885 4.11642 11.6513 3.97923C11.5141 3.84205 11.328 3.76497 11.134 3.76497H9.04179V2.62865C9.04179 2.43464 8.96472 2.24857 8.82753 2.11138C8.69034 1.97419 8.50427 1.89712 8.31026 1.89712C8.11624 1.89712 7.93017 1.97419 7.79298 2.11138C7.65579 2.24857 7.57872 2.43464 7.57872 2.62865V3.76985H5.50116C5.30714 3.76985 5.12107 3.84692 4.98388 3.98411C4.84669 4.1213 4.76962 4.30737 4.76962 4.50139C4.76962 4.6954 4.84669 4.88147 4.98388 5.01866C5.12107 5.15585 5.30714 5.23292 5.50116 5.23292H9.32465C9.22554 6.04543 8.90121 6.81403 8.38829 7.45192C8.01654 7.03259 7.72553 6.54813 7.52995 6.02298C7.50333 5.92602 7.457 5.83559 7.39386 5.75734C7.33073 5.67908 7.25213 5.61468 7.16299 5.56816C7.07386 5.52164 6.97608 5.49399 6.87578 5.48695C6.77548 5.4799 6.6748 5.49361 6.58003 5.52722C6.48527 5.56082 6.39845 5.6136 6.32499 5.68226C6.25153 5.75092 6.19302 5.83399 6.1531 5.92628C6.11319 6.01856 6.09273 6.11809 6.09299 6.21864C6.09326 6.31919 6.11426 6.4186 6.15466 6.51067C6.39437 7.15506 6.74239 7.75378 7.18369 8.28099C6.65109 8.4826 6.08521 8.58187 5.51579 8.5736C5.32177 8.5736 5.1357 8.65068 4.99852 8.78787C4.86133 8.92506 4.78425 9.11112 4.78425 9.30514C4.78425 9.49916 4.86133 9.68523 4.99852 9.82241C5.1357 9.9596 5.32177 10.0367 5.51579 10.0367C6.51893 10.0701 7.51216 9.82899 8.38829 9.33928C9.08597 9.75698 9.8737 10.0012 10.6853 10.0513C10.5206 10.4588 10.4361 10.8944 10.4366 11.3339V11.8801H5.34997C5.2445 11.8798 5.14021 11.9023 5.04424 11.9461C4.94828 11.9899 4.86292 12.0539 4.79401 12.1337C4.72446 12.2137 4.67352 12.3081 4.64485 12.4102C4.61618 12.5122 4.61049 12.6194 4.62819 12.7239C4.62819 12.7726 4.72085 13.3237 4.88667 14.0991C4.90543 14.1953 4.8948 14.2949 4.85615 14.3849C4.8175 14.4749 4.75264 14.5512 4.67 14.6039C4.58737 14.6565 4.4908 14.683 4.39287 14.68C4.29494 14.677 4.2002 14.6445 4.12099 14.5868C2.58477 13.4651 0.946126 12.0996 0.434051 11.1389C0.412526 11.0997 0.388071 11.0622 0.360897 11.0267C0.125084 10.6911 -0.000991495 10.2908 5.87215e-06 9.88062V2.01416C5.87215e-06 1.47997 0.212212 0.967664 0.58994 0.589935C0.967669 0.212206 1.47998 0 2.01417 0H14.5673C15.1015 0 15.6138 0.212206 15.9916 0.589935C16.3693 0.967664 16.5815 1.47997 16.5815 2.01416V7.86645L13.9138 7.84694ZM28.4811 11.3242V19.1711C28.4844 19.5816 28.3581 19.9827 28.1203 20.3172C28.0902 20.3577 28.0656 20.4019 28.0471 20.4489C27.5594 21.4243 25.8964 22.7752 24.3602 23.9066C24.281 23.9643 24.1862 23.9967 24.0883 23.9998C23.9904 24.0028 23.8938 23.9763 23.8112 23.9236C23.7285 23.871 23.6637 23.7947 23.625 23.7047C23.5864 23.6147 23.5757 23.5151 23.5945 23.4189C23.7603 22.6386 23.8481 22.0875 23.853 22.0387C23.87 21.9344 23.8641 21.8276 23.8356 21.7258C23.8071 21.624 23.7567 21.5296 23.688 21.4493C23.6192 21.369 23.5338 21.3046 23.4377 21.2607C23.3415 21.2168 23.2369 21.1944 23.1312 21.195H13.9138C13.6485 21.195 13.3858 21.1426 13.1408 21.0408C12.8958 20.939 12.6733 20.7897 12.4861 20.6017C12.299 20.4136 12.1508 20.1904 12.0502 19.9449C11.9495 19.6994 11.8984 19.4364 11.8997 19.1711V11.3242C11.8997 10.79 12.1119 10.2777 12.4896 9.89995C12.8673 9.52222 13.3796 9.31002 13.9138 9.31002H26.467C27.0012 9.31002 27.5135 9.52222 27.8912 9.89995C28.2689 10.2777 28.4811 10.79 28.4811 11.3242ZM23.3994 18.1519L22.5557 16.0499L20.8878 11.8753C20.8768 11.8467 20.8638 11.819 20.8488 11.7924L20.8195 11.7436L20.7756 11.6851L20.7317 11.6363L20.683 11.5924L20.6196 11.5436L20.5806 11.5144L20.5025 11.4705C20.4863 11.4683 20.4699 11.4683 20.4538 11.4705L20.3757 11.4461H20.3026H20.1563H20.0929L20.01 11.4705C19.9938 11.4683 19.9774 11.4683 19.9612 11.4705L19.888 11.5144L19.8344 11.5388L19.7759 11.5875L19.7271 11.6314L19.6832 11.6802L19.6344 11.7387C19.6344 11.7387 19.6344 11.7729 19.6101 11.7875L19.5662 11.8704L17.8592 16.0499L17.0155 18.1567C16.9768 18.2475 16.9566 18.3451 16.9563 18.4438C16.956 18.5425 16.9756 18.6402 17.0138 18.7312C17.052 18.8222 17.1081 18.9045 17.1788 18.9734C17.2495 19.0423 17.3333 19.0963 17.4252 19.1321C17.5121 19.1667 17.6047 19.1849 17.6983 19.1858C17.8474 19.1827 17.992 19.1344 18.1131 19.0473C18.2341 18.9602 18.3259 18.8384 18.3762 18.6981L19.0297 17.0643H21.3901L22.0436 18.6981C22.0928 18.8392 22.1842 18.9617 22.3055 19.049C22.4268 19.1363 22.5721 19.184 22.7215 19.1858C22.8135 19.1844 22.9044 19.1663 22.9897 19.1321C23.0821 19.0968 23.1664 19.0432 23.2374 18.9744C23.3085 18.9056 23.3649 18.8232 23.4032 18.732C23.4414 18.6409 23.4608 18.5429 23.4602 18.444C23.4596 18.3451 23.4389 18.2474 23.3994 18.1567V18.1519ZM19.6052 15.6012H20.7951L20.2002 14.1382L19.6052 15.6012Z" fill="#8B39E5"/>
<path d="M13.9138 7.84694C13.0482 7.84648 12.2141 8.17209 11.5778 8.75893C11.4495 8.6504 11.2874 8.59004 11.1194 8.58823C10.5998 8.59262 10.0845 8.49486 9.60264 8.3005C10.2857 7.40992 10.7048 6.3453 10.8121 5.22805H11.134C11.328 5.22805 11.5141 5.15097 11.6513 5.01378C11.7885 4.87659 11.8655 4.69053 11.8655 4.49651C11.8655 4.30249 11.7885 4.11642 11.6513 3.97923C11.5141 3.84205 11.328 3.76497 11.134 3.76497H9.04179V2.62865C9.04179 2.43464 8.96472 2.24857 8.82753 2.11138C8.69034 1.97419 8.50427 1.89712 8.31026 1.89712C8.11624 1.89712 7.93017 1.97419 7.79298 2.11138C7.65579 2.24857 7.57872 2.43464 7.57872 2.62865V3.76985H5.50116C5.30714 3.76985 5.12107 3.84692 4.98388 3.98411C4.84669 4.1213 4.76962 4.30737 4.76962 4.50139C4.76962 4.6954 4.84669 4.88147 4.98388 5.01866C5.12107 5.15585 5.30714 5.23292 5.50116 5.23292H9.32465C9.22554 6.04543 8.90121 6.81403 8.38829 7.45192C8.01654 7.03259 7.72553 6.54813 7.52995 6.02298C7.50333 5.92602 7.457 5.83559 7.39386 5.75734C7.33073 5.67908 7.25213 5.61468 7.16299 5.56816C7.07386 5.52164 6.97608 5.49399 6.87578 5.48695C6.77548 5.4799 6.6748 5.49361 6.58003 5.52722C6.48527 5.56082 6.39845 5.6136 6.32499 5.68226C6.25153 5.75092 6.19302 5.83399 6.1531 5.92628C6.11319 6.01856 6.09273 6.11809 6.09299 6.21864C6.09326 6.31919 6.11426 6.4186 6.15466 6.51067C6.39437 7.15506 6.74239 7.75378 7.18369 8.28099C6.65109 8.4826 6.08521 8.58187 5.51579 8.5736C5.32177 8.5736 5.1357 8.65068 4.99852 8.78787C4.86133 8.92506 4.78425 9.11112 4.78425 9.30514C4.78425 9.49916 4.86133 9.68523 4.99852 9.82241C5.1357 9.9596 5.32177 10.0367 5.51579 10.0367C6.51893 10.0701 7.51216 9.82899 8.38829 9.33928C9.08597 9.75698 9.8737 10.0012 10.6853 10.0513C10.5206 10.4588 10.4361 10.8944 10.4366 11.3339V11.8801H5.34997C5.2445 11.8798 5.14021 11.9023 5.04424 11.9461C4.94828 11.9899 4.86292 12.0539 4.79401 12.1337C4.72446 12.2137 4.67352 12.3081 4.64485 12.4102C4.61618 12.5122 4.61049 12.6194 4.62819 12.7239C4.62819 12.7726 4.72085 13.3237 4.88667 14.0991C4.90543 14.1953 4.8948 14.2949 4.85615 14.3849C4.8175 14.4749 4.75264 14.5512 4.67 14.6039C4.58737 14.6565 4.4908 14.683 4.39287 14.68C4.29494 14.677 4.2002 14.6445 4.12099 14.5868C2.58477 13.4651 0.946126 12.0996 0.434051 11.1389C0.412526 11.0997 0.388071 11.0622 0.360897 11.0267C0.125084 10.6911 -0.000991495 10.2908 5.87215e-06 9.88062V2.01416C5.87215e-06 1.47997 0.212212 0.967664 0.58994 0.589935C0.967669 0.212206 1.47998 0 2.01417 0H14.5673C15.1015 0 15.6138 0.212206 15.9916 0.589935C16.3693 0.967664 16.5815 1.47997 16.5815 2.01416V7.86645L13.9138 7.84694ZM28.4811 11.3242V19.1711C28.4844 19.5816 28.3581 19.9827 28.1203 20.3172C28.0902 20.3577 28.0656 20.4019 28.0471 20.4489C27.5594 21.4243 25.8964 22.7752 24.3602 23.9066C24.281 23.9643 24.1862 23.9967 24.0883 23.9998C23.9904 24.0028 23.8938 23.9763 23.8112 23.9236C23.7285 23.871 23.6637 23.7947 23.625 23.7047C23.5864 23.6147 23.5757 23.5151 23.5945 23.4189C23.7603 22.6386 23.8481 22.0875 23.853 22.0387C23.87 21.9344 23.8641 21.8276 23.8356 21.7258C23.8071 21.624 23.7567 21.5296 23.688 21.4493C23.6192 21.369 23.5338 21.3046 23.4377 21.2607C23.3415 21.2168 23.2369 21.1944 23.1312 21.195H13.9138C13.6485 21.195 13.3858 21.1426 13.1408 21.0408C12.8958 20.939 12.6733 20.7897 12.4861 20.6017C12.299 20.4136 12.1508 20.1904 12.0502 19.9449C11.9495 19.6994 11.8984 19.4364 11.8997 19.1711V11.3242C11.8997 10.79 12.1119 10.2777 12.4896 9.89995C12.8673 9.52222 13.3796 9.31002 13.9138 9.31002H26.467C27.0012 9.31002 27.5135 9.52222 27.8912 9.89995C28.2689 10.2777 28.4811 10.79 28.4811 11.3242ZM23.3994 18.1519L22.5557 16.0499L20.8878 11.8753C20.8768 11.8467 20.8638 11.819 20.8488 11.7924L20.8195 11.7436L20.7756 11.6851L20.7317 11.6363L20.683 11.5924L20.6196 11.5436L20.5806 11.5144L20.5025 11.4705C20.4863 11.4683 20.4699 11.4683 20.4538 11.4705L20.3757 11.4461H20.3026H20.1563H20.0929L20.01 11.4705C19.9938 11.4683 19.9774 11.4683 19.9612 11.4705L19.888 11.5144L19.8344 11.5388L19.7759 11.5875L19.7271 11.6314L19.6832 11.6802L19.6344 11.7387C19.6344 11.7387 19.6344 11.7729 19.6101 11.7875L19.5662 11.8704L17.8592 16.0499L17.0155 18.1567C16.9768 18.2475 16.9566 18.3451 16.9563 18.4438C16.956 18.5425 16.9756 18.6402 17.0138 18.7312C17.052 18.8222 17.1081 18.9045 17.1788 18.9734C17.2495 19.0423 17.3333 19.0963 17.4252 19.1321C17.5121 19.1667 17.6047 19.1849 17.6983 19.1858C17.8474 19.1827 17.992 19.1344 18.1131 19.0473C18.2341 18.9602 18.3259 18.8384 18.3762 18.6981L19.0297 17.0643H21.3901L22.0436 18.6981C22.0928 18.8392 22.1842 18.9617 22.3055 19.049C22.4268 19.1363 22.5721 19.184 22.7215 19.1858C22.8135 19.1844 22.9044 19.1663 22.9897 19.1321C23.0821 19.0968 23.1664 19.0432 23.2374 18.9744C23.3085 18.9056 23.3649 18.8232 23.4032 18.732C23.4414 18.6409 23.4608 18.5429 23.4602 18.444C23.4596 18.3451 23.4389 18.2474 23.3994 18.1567V18.1519ZM19.6052 15.6012H20.7951L20.2002 14.1382L19.6052 15.6012Z" fill="#8B39E5"/>
</svg>
