<svg width="25" height="24" viewBox="0 0 25 24" fill="none" xmlns="http://www.w3.org/2000/svg">
<path d="M11.1553 0H13.6482V4.86733H11.1553V0Z" fill="#8B39E5"/>
<path d="M12.4016 13.337C13.4595 13.337 14.4739 12.9168 15.2219 12.1689C15.97 11.421 16.3902 10.4063 16.3902 9.34841C16.3902 8.29073 15.97 7.27612 15.2219 6.52816C14.474 5.78025 13.4595 5.35986 12.4016 5.35986C11.3437 5.35986 10.3293 5.78024 9.58138 6.52816C8.83325 7.27607 8.41309 8.29073 8.41309 9.34841C8.41309 10.4063 8.83324 11.4209 9.58138 12.1689C10.3293 12.9168 11.3437 13.337 12.4016 13.337ZM12.4016 7.85276C12.7983 7.85276 13.1787 8.01034 13.4593 8.29096C13.7397 8.57135 13.8973 8.95172 13.8973 9.34841C13.8973 9.74509 13.7397 10.1257 13.4593 10.4061C13.1787 10.6867 12.7983 10.8443 12.4016 10.8443C12.0049 10.8443 11.6246 10.6867 11.344 10.4061C11.0636 10.1257 10.906 9.74509 10.906 9.34841C10.906 8.95173 11.0636 8.57134 11.344 8.29096C11.6246 8.01034 12.0049 7.85276 12.4016 7.85276Z" fill="#8B39E5"/>
<path d="M11.1553 13.8354H13.6482V23.9999H11.1553V13.8354Z" fill="#8B39E5"/>
<path d="M19.5684 19.1328H22.0613V24.0001H19.5684V19.1328Z" fill="#8B39E5"/>
<path d="M20.8157 18.6343C21.8736 18.6343 22.888 18.2139 23.6362 17.466C24.3841 16.7181 24.8042 15.7035 24.8042 14.6458C24.8042 13.5879 24.3841 12.5733 23.6362 11.8253C22.888 11.0774 21.8736 10.6572 20.8157 10.6572C19.7578 10.6572 18.7434 11.0774 17.9954 11.8253C17.2473 12.5732 16.8271 13.5879 16.8271 14.6458C16.8271 15.7035 17.2473 16.7181 17.9954 17.466C18.7434 18.2139 19.7578 18.6343 20.8157 18.6343ZM20.8157 13.1501V13.1499C21.2124 13.1499 21.593 13.3075 21.8734 13.5881C22.1538 13.8685 22.3114 14.2491 22.3114 14.6458C22.3114 15.0425 22.1538 15.4228 21.8734 15.7032C21.593 15.9838 21.2124 16.1414 20.8157 16.1414C20.419 16.1414 20.0386 15.9838 19.758 15.7032C19.4776 15.4228 19.32 15.0425 19.32 14.6458C19.32 14.2491 19.4776 13.8685 19.758 13.5881C20.0386 13.3075 20.419 13.1499 20.8157 13.1499V13.1501Z" fill="#8B39E5"/>
<path d="M19.5684 0H22.0613V10.1644H19.5684V0Z" fill="#8B39E5"/>
<path d="M2.74219 19.1328H5.23509V24.0001H2.74219V19.1328Z" fill="#8B39E5"/>
<path d="M3.98855 18.6343C5.04645 18.6343 6.06083 18.2139 6.8088 17.466C7.55693 16.7181 7.97709 15.7035 7.97709 14.6458C7.97709 13.5879 7.55694 12.5733 6.8088 11.8253C6.06089 11.0774 5.04645 10.6572 3.98855 10.6572C2.93065 10.6572 1.91626 11.0774 1.16807 11.8253C0.420166 12.5732 0 13.5879 0 14.6458C0 15.7035 0.420155 16.7181 1.16807 17.466C1.9162 18.2139 2.93065 18.6343 3.98855 18.6343ZM3.98855 13.1501V13.1499C4.38523 13.1499 4.76561 13.3075 5.04622 13.5881C5.32662 13.8685 5.4842 14.2491 5.4842 14.6458C5.4842 15.0425 5.32662 15.4228 5.04622 15.7032C4.76561 15.9838 4.38523 16.1414 3.98855 16.1414C3.59187 16.1414 3.21126 15.9838 2.93087 15.7032C2.65048 15.4228 2.49289 15.0425 2.49289 14.6458C2.49289 14.2491 2.65048 13.8685 2.93087 13.5881C3.21126 13.3075 3.59186 13.1499 3.98855 13.1499V13.1501Z" fill="#8B39E5"/>
<path d="M2.74219 0H5.23509V10.1644H2.74219V0Z" fill="#8B39E5"/>
</svg>
