<svg width="26" height="24" viewBox="0 0 26 24" fill="none" xmlns="http://www.w3.org/2000/svg">
<path d="M13.0515 19.8233L12.6135 18.9244H12.6135L13.0515 19.8233ZM12.2902 19.8233L12.7282 18.9244L12.7282 18.9244L12.2902 19.8233ZM19.0622 11C19.0622 13.1437 17.8992 14.9207 16.4361 16.3068C14.9776 17.6885 13.3268 18.5768 12.6135 18.9244L13.4896 20.7223C14.2881 20.3332 16.1427 19.3396 17.8115 17.7587C19.4757 16.1822 21.0622 13.9159 21.0622 11H19.0622ZM12.6708 5C16.2526 5 19.0622 7.73685 19.0622 11H21.0622C21.0622 6.53117 17.2533 3 12.6708 3V5ZM6.27954 11C6.27954 7.73685 9.08908 5 12.6708 5V3C8.0884 3 4.27954 6.53117 4.27954 11H6.27954ZM12.7282 18.9244C12.0149 18.5768 10.3641 17.6885 8.90562 16.3068C7.44248 14.9207 6.27954 13.1437 6.27954 11H4.27954C4.27954 13.9159 5.86596 16.1822 7.53016 17.7587C9.19899 19.3396 11.0536 20.3332 11.8521 20.7223L12.7282 18.9244ZM12.6135 18.9244C12.6257 18.9184 12.6459 18.9124 12.6708 18.9124C12.6958 18.9124 12.7159 18.9184 12.7282 18.9244L11.8521 20.7223C12.3722 20.9757 12.9695 20.9757 13.4896 20.7223L12.6135 18.9244ZM14.8385 11C14.8385 12.054 13.92 13 12.6708 13V15C14.9207 15 16.8385 13.2597 16.8385 11H14.8385ZM12.6708 9C13.92 9 14.8385 9.94599 14.8385 11H16.8385C16.8385 8.74031 14.9207 7 12.6708 7V9ZM10.5031 11C10.5031 9.94599 11.4217 9 12.6708 9V7C10.421 7 8.50314 8.74031 8.50314 11H10.5031ZM12.6708 13C11.4217 13 10.5031 12.054 10.5031 11H8.50314C8.50314 13.2597 10.421 15 12.6708 15V13Z" fill="#C7C7C7"/>
</svg>
