<svg width="13" height="16" viewBox="0 0 13 16" fill="none" xmlns="http://www.w3.org/2000/svg">
<path d="M11.7333 6.93347H10.9333V4.66669C10.9333 2.09358 8.83967 0 6.26656 0C3.69345 0 1.59987 2.09358 1.59987 4.66669V6.93347H1.06658C0.477479 6.93347 0 7.41114 0 8.00005V14.9334C0 15.5225 0.477669 16 1.06658 16H11.7333C12.3224 16 12.7999 15.5223 12.7999 14.9334V8.00005C12.7999 7.41095 12.3224 6.93347 11.7333 6.93347ZM7.19999 12.5335C7.19999 12.9753 6.84192 13.3336 6.39994 13.3336C5.95816 13.3336 5.59989 12.9755 5.59989 12.5335V10.4001C5.59989 9.95833 5.95796 9.60006 6.39994 9.60006C6.84172 9.60006 7.19999 9.95813 7.19999 10.4001V12.5335ZM3.19997 6.93347V4.66669C3.19997 2.97583 4.57574 1.60011 6.26656 1.60011C7.95762 1.60011 9.33334 2.97587 9.33334 4.66669V6.93347H3.19997Z" fill="#C7C7C7"/>
</svg>
