<svg width="31" height="30" viewBox="0 0 31 30" fill="none" xmlns="http://www.w3.org/2000/svg">
<path d="M8.77682 17.3471L7.99001 20.2709L5.11425 20.3314C4.25482 18.7447 3.76733 16.9293 3.76733 15.0001C3.76733 13.1345 4.22312 11.3753 5.03103 9.82629H5.03165L7.59188 10.2935L8.71342 12.8267C8.47868 13.5079 8.35074 14.2392 8.35074 15.0001C8.35083 15.8259 8.50111 16.6171 8.77682 17.3471Z" fill="white"/>
<path d="M26.1736 12.8983C26.3034 13.5789 26.3711 14.2817 26.3711 15C26.3711 15.8054 26.286 16.591 26.1239 17.3489C25.5738 19.9277 24.1362 22.1796 22.1447 23.7731L22.1441 23.7725L18.9193 23.6087L18.4629 20.7727C19.7844 20.0013 20.8171 18.7941 21.3611 17.3489H15.3176V12.8983H21.4492H26.1736Z" fill="white"/>
<path d="M22.1441 23.7726L22.1447 23.7732C20.2079 25.3229 17.7475 26.2501 15.0692 26.2501C10.7652 26.2501 7.02318 23.8555 5.11426 20.3315L8.77683 17.3472C9.73126 19.8827 12.1885 21.6877 15.0692 21.6877C16.3075 21.6877 17.4675 21.3545 18.4629 20.7728L22.1441 23.7726Z" fill="white"/>
<path d="M22.2832 6.33996L18.6219 9.32367C17.5917 8.68269 16.3739 8.3124 15.0692 8.3124C12.1233 8.3124 9.62007 10.2002 8.71344 12.8266L5.03162 9.82623H5.03101C6.91198 6.21634 10.7012 3.75 15.0692 3.75C17.8115 3.75 20.3258 4.72233 22.2832 6.33996Z" fill="white"/>
</svg>
