<svg width="22" height="25" viewBox="0 0 22 25" fill="none" xmlns="http://www.w3.org/2000/svg">
<path d="M21.1713 24.4999H0.556104C0.256568 24.4999 0 24.2434 0 23.9438V21.3349C0 19.9234 1.28318 18.7685 3.93485 17.7849C6.84307 16.7157 7.35654 15.903 7.35654 14.1923C7.35654 13.8075 7.27092 13.6792 7.09997 13.4226C6.84339 13.0377 6.5012 12.5673 6.24464 11.2414C6.24464 11.1558 6.20198 11.1558 6.20198 11.1558C6.20198 11.1558 6.15932 11.1131 6.11635 11.1131C5.51759 10.8136 5.17541 10.4287 5.08979 9.10292C5.08979 8.46149 5.30371 8.03367 5.47466 7.81974C5.43199 7.56317 5.38903 7.22097 5.3037 6.79318C5.08979 5.59562 4.57665 2.38785 7.87007 1.06206C10.2651 0.0784187 12.2754 0.548906 13.0024 1.23301C13.5156 1.27567 14.5848 1.40396 15.3548 2.30226C16.595 3.71368 16.2532 6.7932 16.0819 7.77684C16.2958 7.99075 16.5097 8.37561 16.5097 9.01702C16.4241 10.3858 16.0392 10.8134 15.4832 11.0699C15.4405 11.0699 15.3975 11.1126 15.3975 11.1126C15.3975 11.1126 15.3975 11.1552 15.3549 11.1982C15.0983 12.4814 14.7561 12.9945 14.4995 13.3794C14.3286 13.636 14.243 13.7643 14.243 14.1491C14.243 15.8598 14.7561 16.6725 17.6647 17.7417C20.3163 18.7254 21.5995 19.8802 21.5995 21.2916V23.9006C21.6848 24.2434 21.4709 24.5 21.1717 24.5L21.1713 24.4999Z" fill="#8B39E5"/>
</svg>
