<svg width="38" height="30" viewBox="0 0 38 30" fill="none" xmlns="http://www.w3.org/2000/svg">
<path d="M1.15821 4.25438e-05C0.85069 -0.00123022 0.555534 0.118919 0.337924 0.334021C0.120545 0.548869 -0.00127565 0.840841 1.0075e-05 1.14476V21.1046C0.000782761 21.3971 0.115395 21.6784 0.319898 21.8899C0.5244 22.1015 0.803586 22.227 1.09924 22.241C1.39492 22.2547 1.68493 22.1557 1.90872 21.9643L6.92541 17.6788H23.3629C23.6688 17.6801 23.963 17.5609 24.1801 17.3479C24.3975 17.1351 24.5201 16.8454 24.5214 16.5429V1.14473C24.5224 0.840782 24.4009 0.54881 24.1832 0.333988C23.9658 0.118887 23.6704 -0.00126077 23.3629 9.9784e-06L1.15821 4.25438e-05ZM26.8291 7.7692V16.5426V16.5515C26.8217 18.4138 25.2382 19.9666 23.3539 19.9592L12.4101 19.9595V24.3027C12.4109 24.6038 12.532 24.8928 12.7473 25.1061C12.9628 25.3191 13.2547 25.4395 13.5596 25.4408H30.0069L35.0166 29.724H35.0164C35.2402 29.9144 35.5294 30.0127 35.8243 29.9987C36.1192 29.9847 36.3977 29.8597 36.6019 29.6489C36.8064 29.4384 36.9213 29.1584 36.9231 28.8667V8.9068C36.9226 8.60541 36.8012 8.31674 36.5859 8.10343C36.3706 7.89012 36.0785 7.76971 35.7736 7.76869L26.8291 7.7692Z" fill="#C2C2C2"/>
</svg>
