<svg width="25" height="24" viewBox="0 0 25 24" fill="none" xmlns="http://www.w3.org/2000/svg">
<path d="M5.12101 7.52397C5.22176 8.16772 5.66096 8.67288 6.22875 8.89044C6.66563 10.5281 7.28617 11.5708 7.99803 12.2045L7.78031 13.9134L10.3374 14.8886L12.8945 13.9134L12.6777 12.2045C13.3895 11.5708 14.0094 10.5281 14.447 8.89044C15.014 8.67272 15.4532 8.1668 15.5547 7.52397L15.6555 6.88186C15.7546 6.24902 15.5012 5.64398 15.0427 5.26203C15.3821 0.451474 11.6552 0 9.60086 0C7.39005 0 7.58516 1.79869 7.58516 1.79869C5.8082 2.0938 5.61775 4.03036 5.67499 5.22651C5.19015 5.60615 4.91821 6.22975 5.02038 6.88204L5.12101 7.52397Z" fill="#8B39E5"/>
<path d="M20.2323 14.8887C17.7163 14.8887 15.6758 16.9283 15.6758 19.4444C15.6758 21.9612 17.7163 24.0001 20.2323 24.0001C22.7484 24.0002 24.7882 21.9613 24.7882 19.4444C24.7882 16.9283 22.7484 14.8887 20.2323 14.8887ZM21.4324 21.491C21.2038 21.7009 20.9235 21.838 20.5958 21.8984V22.4601L19.8846 22.46V21.8936C19.7468 21.8619 19.6136 21.8123 19.4848 21.7456C19.3199 21.6588 19.1689 21.549 19.0348 21.4179C18.9023 21.287 18.7892 21.139 18.6993 20.9794L18.6312 20.8562L19.2347 20.4735L19.3137 20.6044C19.5654 21.0267 19.8784 21.2319 20.268 21.2319C20.4091 21.2319 20.5462 21.2025 20.6755 21.1436C20.8017 21.0871 20.9002 21.0065 20.9775 20.8981C21.0535 20.7936 21.0892 20.6766 21.0892 20.5395C21.0892 20.3078 21.0194 20.1466 20.8754 20.0461C20.7026 19.9252 20.4214 19.7927 20.0419 19.6532C19.6291 19.5015 19.3238 19.3396 19.1123 19.1598C18.8823 18.9645 18.7653 18.6678 18.7653 18.2782C18.7653 17.911 18.8862 17.6043 19.1225 17.368C19.327 17.1642 19.5825 17.0357 19.8848 16.9847V16.4292H20.5959V16.9939C20.7059 17.021 20.812 17.059 20.9142 17.1079C21.0544 17.1753 21.1869 17.2644 21.3085 17.372C21.4285 17.4797 21.5316 17.5967 21.6145 17.7206L21.6919 17.8383L21.1248 18.2605L21.0365 18.1396C20.952 18.0243 20.8693 17.9289 20.7903 17.8561C20.7182 17.7894 20.6369 17.7398 20.5478 17.7074C20.4572 17.674 20.3409 17.6571 20.2038 17.6571C20.0861 17.6571 19.9691 17.6796 19.8591 17.7245C19.753 17.7671 19.6701 17.8299 19.6034 17.9158C19.5406 17.9972 19.5096 18.0972 19.5096 18.2226C19.5096 18.4324 19.5731 18.5742 19.7025 18.6564C19.8675 18.7609 20.1457 18.8864 20.5307 19.0282C20.9428 19.1808 21.2627 19.3613 21.4811 19.5651C21.7158 19.7843 21.8351 20.112 21.8351 20.538C21.8336 20.9253 21.6988 21.2461 21.4324 21.4909L21.4324 21.491Z" fill="#8B39E5"/>
<path d="M16.5389 15.2478C15.2042 14.7148 13.9168 14.4336 13.9168 14.4336L11.4982 18.4757L10.987 16.8142C11.2372 16.6849 11.4107 16.4262 11.4107 16.1239C11.4107 15.6933 11.0614 15.3438 10.6305 15.3438H10.0457C9.61505 15.3438 9.26554 15.6931 9.26554 16.1239C9.26554 16.426 9.43904 16.6847 9.68922 16.8142L9.17799 18.4757L6.75947 14.4336C6.75947 14.4336 2.22072 15.4236 1.35182 17.217C0.759974 18.4379 0.158861 20.122 0 21.9883H15.2529C14.8626 21.2246 14.637 20.3615 14.637 19.4444C14.6366 17.7712 15.3749 16.2737 16.5391 15.248L16.5389 15.2478Z" fill="#8B39E5"/>
</svg>
