<svg width="30" height="30" viewBox="0 0 30 30" fill="none" xmlns="http://www.w3.org/2000/svg">
<path d="M22.5 4.45313H22.9688C23.2276 4.45313 23.4375 4.24323 23.4375 3.98438C23.4375 3.72552 23.2276 3.51562 22.9688 3.51562H22.5C22.2411 3.51562 22.0312 3.72552 22.0312 3.98438C22.0312 4.24323 22.2411 4.45313 22.5 4.45313Z" fill="#8B39E5"/>
<path d="M28.5938 3.98438C28.5938 4.24323 28.8036 4.45313 29.0625 4.45313H29.5313C29.7901 4.45313 30 4.24323 30 3.98438C30 3.72552 29.7901 3.51562 29.5313 3.51562H29.0625C28.8036 3.51562 28.5938 3.72552 28.5938 3.98438Z" fill="#8B39E5"/>
<path d="M26.0156 1.40625C26.2745 1.40625 26.4844 1.19636 26.4844 0.9375V0.46875C26.4844 0.209893 26.2745 0 26.0156 0C25.7568 0 25.5469 0.209893 25.5469 0.46875V0.9375C25.5469 1.19636 25.7568 1.40625 26.0156 1.40625Z" fill="#8B39E5"/>
<path d="M26.0156 6.5625C25.7568 6.5625 25.5469 6.77239 25.5469 7.03125V7.5C25.5469 7.75886 25.7568 7.96875 26.0156 7.96875C26.2745 7.96875 26.4844 7.75886 26.4844 7.5V7.03125C26.4844 6.77239 26.2745 6.5625 26.0156 6.5625Z" fill="#8B39E5"/>
<path d="M23.5302 2.16112C23.7133 2.3436 24.0096 2.34339 24.1922 2.1605C24.3751 1.97781 24.3754 1.68149 24.1929 1.49841L23.8614 1.16693H23.8616C23.6785 0.984034 23.3818 0.984034 23.1989 1.16714C23.0158 1.35004 23.0158 1.64677 23.1987 1.82987L23.5302 2.16112Z" fill="#8B39E5"/>
<path d="M28.1711 6.80179C28.3544 6.98427 28.6505 6.98385 28.8334 6.80117C29.0161 6.61827 29.0165 6.32216 28.834 6.13886L28.5025 5.80739V5.8076C28.3194 5.62512 28.0231 5.62533 27.8405 5.80823C27.6576 5.99092 27.6573 6.28723 27.8398 6.47032L28.1711 6.80179Z" fill="#8B39E5"/>
<path d="M28.1697 2.29888C28.2943 2.29888 28.4135 2.24949 28.5012 2.16139L28.8327 1.82992V1.83013C29.015 1.64681 29.0145 1.35071 28.8319 1.16804C28.6492 0.985351 28.3531 0.984933 28.1698 1.1672L27.8383 1.49868H27.8385C27.7044 1.63261 27.6644 1.83433 27.7368 2.00949C27.8094 2.18464 27.9804 2.29869 28.1698 2.2989L28.1697 2.29888Z" fill="#8B39E5"/>
<path d="M23.5293 5.80779L23.1978 6.13927V6.13906C23.1099 6.22695 23.0605 6.34623 23.0605 6.47053C23.0603 6.59504 23.1097 6.71411 23.1978 6.802C23.2857 6.8901 23.4048 6.93949 23.5293 6.93928C23.6536 6.93928 23.7729 6.88989 23.8608 6.802L24.1922 6.47053H24.192C24.3743 6.28742 24.3739 5.99132 24.1912 5.80866C24.0085 5.62599 23.7124 5.62555 23.5293 5.80782L23.5293 5.80779Z" fill="#8B39E5"/>
<path d="M24.8438 4.45313H26.0156C26.2745 4.45313 26.4844 4.24323 26.4844 3.98438V2.8125C26.4844 2.55364 26.2745 2.34375 26.0156 2.34375C25.7568 2.34375 25.5469 2.55364 25.5469 2.8125V3.51563H24.8438C24.5849 3.51563 24.375 3.72552 24.375 3.98438C24.375 4.24323 24.5849 4.45313 24.8438 4.45313Z" fill="#8B39E5"/>
<path d="M29.5313 13.8279H24.375C24.1164 13.8288 23.9071 14.038 23.9063 14.2967V15.7029H22.9688C22.7101 15.7038 22.5008 15.913 22.5 16.1717V18.0467C22.5008 18.3053 22.7101 18.5146 22.9688 18.5154H23.2031V19.4529H2.10938V3.99115C2.10457 3.81767 2.19434 3.65528 2.34376 3.56676C2.4668 3.49456 2.6202 3.49813 2.73989 3.57618L3.86028 4.26045L3.86007 4.26066C3.62737 4.7924 3.5558 5.38083 3.65458 5.95298C3.75335 6.52512 4.01807 7.05559 4.41567 7.47853L5.28513 8.39487C5.46133 8.58091 5.70638 8.68596 5.96254 8.68554C5.98828 8.68554 6.01402 8.68554 6.04227 8.68324C6.32457 8.65938 6.58115 8.50955 6.74058 8.27538L7.13901 7.68942C7.5544 7.97171 8.08867 8.01085 8.54066 7.79217C8.99267 7.5737 9.29382 7.13045 9.33062 6.62972C9.36724 6.12895 9.13412 5.64658 8.71873 5.36452L9.24837 4.58399C9.40783 4.34961 9.45241 4.0556 9.37016 3.78417C9.28771 3.51296 9.08703 3.29344 8.82422 3.18711L7.65234 2.71606C7.09338 2.49362 6.48004 2.44737 5.89413 2.58297C5.30816 2.71878 4.7777 3.02996 4.37339 3.47547L3.22975 2.77695C3.02928 2.65139 2.79846 2.58233 2.56198 2.57752C2.32551 2.5725 2.09219 2.63172 1.88672 2.7489C1.66783 2.87362 1.48639 3.05464 1.36063 3.2729C1.23507 3.49116 1.16978 3.73913 1.17188 3.99108V19.4529H0.9375C0.688896 19.4529 0.450332 19.5516 0.274554 19.7274C0.098775 19.9032 0 20.1418 0 20.3904V21.3279C0 21.5765 0.098775 21.815 0.274554 21.9908C0.450332 22.1666 0.688896 22.2654 0.9375 22.2654H29.0625C29.3111 22.2654 29.5497 22.1666 29.7254 21.9908C29.9012 21.815 30 21.5765 30 21.3279V20.3904C29.9994 20.183 29.9299 19.9819 29.8027 19.818C29.6754 19.6544 29.4976 19.5374 29.2969 19.4857V18.0466C29.296 17.788 29.0868 17.5787 28.8281 17.5779H28.5938V16.6404H29.5313C29.7899 16.6395 29.9992 16.4303 30 16.1716V14.2966C29.9992 14.038 29.7899 13.8287 29.5313 13.8279L29.5313 13.8279ZM8.19161 6.14044C8.40527 6.28609 8.46031 6.57717 8.31466 6.79085C8.16902 7.00453 7.87793 7.05954 7.66425 6.91389L8.19161 6.14044ZM28.3596 19.4529H24.1409V18.5154H28.3596V19.4529ZM29.0628 15.7029H24.844V14.7654H29.0628V15.7029Z" fill="#8B39E5"/>
<path d="M6.49875 11.1305C6.18987 11.4825 6.04715 11.9505 6.10721 12.4148L6.91812 18.5155H21.2056L22.0165 12.4148C22.0766 11.9505 21.9339 11.4826 21.625 11.1305C21.2956 10.7581 20.8216 10.5454 20.3242 10.5469H7.79923C7.30181 10.5454 6.82782 10.758 6.49847 11.1305H6.49875ZM14.062 13.3594C14.4349 13.3594 14.7927 13.5075 15.0564 13.7712C15.32 14.0349 15.4682 14.3927 15.4682 14.7656C15.4682 15.1385 15.32 15.4964 15.0564 15.76C14.7927 16.0236 14.4348 16.1718 14.062 16.1718C13.6891 16.1718 13.3312 16.0237 13.0676 15.76C12.8039 15.4963 12.6557 15.1385 12.6557 14.7656C12.6559 14.3927 12.8043 14.0353 13.068 13.7716C13.3317 13.5079 13.6891 13.3595 14.062 13.3593L14.062 13.3594Z" fill="#8B39E5"/>
<path d="M1.875 29.531C1.875 29.7898 2.08489 29.9997 2.34375 29.9997H27.6563C27.9151 29.9997 28.125 29.7898 28.125 29.531V23.2031H1.875V29.531Z" fill="#8B39E5"/>
<path d="M11.6294 7.5354C10.2981 7.7072 9.11491 8.46893 8.40723 9.60963H9.57449C10.2389 8.86466 11.1896 8.4384 12.1878 8.43775H15.9378C16.936 8.43838 17.8866 8.86465 18.551 9.60963H19.7183C19.0106 8.46893 17.8274 7.7072 16.4961 7.5354C17.2789 6.86784 17.7531 5.90774 17.8075 4.88029C17.8619 3.85284 17.4917 2.84811 16.7836 2.10149C16.0754 1.35502 15.0917 0.932129 14.0628 0.932129C13.0338 0.932129 12.0501 1.35505 11.3419 2.10149C10.6338 2.84816 10.2636 3.85279 10.318 4.88029C10.3724 5.90779 10.8466 6.8679 11.6294 7.5354V7.5354ZM11.665 4.92674C12.2501 4.93469 12.827 4.79176 13.3408 4.51198C12.8515 3.89633 12.5504 3.15217 12.4736 2.36955C12.7473 2.18205 13.0522 2.04498 13.3738 1.9642C13.3839 2.16196 13.4107 2.35846 13.4534 2.55183C13.495 2.7567 13.554 2.95738 13.6302 3.15199C13.7725 3.54038 14.0052 3.88924 14.3088 4.16985C14.3557 4.21442 14.4026 4.25418 14.4518 4.29415V4.29394C15.03 4.72147 15.7347 4.94264 16.4533 4.92217C16.5542 4.92217 16.7246 4.91485 16.8641 4.90669C16.7909 5.85549 16.2424 6.70278 15.4066 7.15792C14.5708 7.61328 13.5616 7.61453 12.7247 7.16127C11.8879 6.708 11.3371 5.86216 11.2617 4.91336C11.4197 4.92089 11.5878 4.92675 11.665 4.92675L11.665 4.92674Z" fill="#8B39E5"/>
</svg>
