<svg width="24" height="24" viewBox="0 0 24 24" fill="none" xmlns="http://www.w3.org/2000/svg">
<path d="M0 24.0003H11.2657V9.27734H0V24.0003ZM6.56457 10.9904H9.45299V13.8813L6.56457 13.8815V10.9904ZM6.56457 15.8553H9.45299V18.7478L6.56457 18.7476V15.8553ZM1.81173 10.9904H4.70148V13.8813L1.81173 13.8815V10.9904ZM1.81173 15.8553H4.70148V18.7478L1.81173 18.7476V15.8553Z" fill="#8B39E5"/>
<path d="M12.5723 0V24H23.8409L23.8408 0H12.5723ZM17.275 18.7472H14.3853V15.8547H17.275V18.7472ZM17.275 13.881H14.3853V10.9899H17.275V13.881ZM17.275 9.27684H14.3853V6.38862H17.275V9.27684ZM17.275 4.67556H14.3853V1.7858H17.275V4.67556ZM22.0277 18.7473H19.1393V15.8548H22.0277V18.7473ZM22.0277 13.8812H19.1393V10.9901H22.0277V13.8812ZM22.0277 9.27699H19.1393V6.38877H22.0277V9.27699ZM22.0277 4.6757H19.1393V1.78595H22.0277V4.6757Z" fill="#8B39E5"/>
</svg>
