<svg width="24" height="24" viewBox="0 0 24 24" fill="none" xmlns="http://www.w3.org/2000/svg">
<path d="M16.3751 6.46498C16.3751 7.0069 16.2977 7.54882 16.1041 8.05203H16.0654C16.0654 8.05203 16.1041 7.97461 16.1428 7.85849C16.1816 7.74236 16.2203 7.54882 16.259 7.27786C16.2977 7.04561 16.3364 6.69723 16.3364 6.34885C16.3364 6.00048 16.2977 5.57468 16.1816 5.14889C16.1428 5.07147 16.1428 4.95535 16.1041 4.87793C16.259 5.38114 16.3751 5.92306 16.3751 6.46498Z" fill="#C7C7C7"/>
<path d="M16.7636 10.7183C16.7658 11.2528 16.3345 11.6879 15.8 11.6903C15.2657 11.6926 14.8304 11.2612 14.8281 10.7268C14.8259 10.1923 15.2572 9.75715 15.7917 9.75489C16.3262 9.75247 16.7613 10.184 16.7636 10.7183Z" fill="#C7C7C7"/>
<path d="M13.4787 11.733C13.867 11.9582 13.9993 12.4557 13.7739 12.844C13.5486 13.2323 13.051 13.3643 12.6628 13.1391C12.2745 12.9138 12.1424 12.4163 12.3678 12.028C12.5931 11.6397 13.0905 11.5077 13.4787 11.733" fill="#C7C7C7"/>
<path d="M10.5212 12.2211C10.7213 12.5747 10.5967 13.0233 10.2433 13.2234C9.88976 13.4233 9.44097 13.2989 9.24105 12.9453C9.04095 12.5918 9.16537 12.143 9.51892 11.9431C9.87248 11.7431 10.3213 11.8676 10.5212 12.2211Z" fill="#C7C7C7"/>
<path d="M7.23531 10.7393C7.49175 10.7433 7.69654 10.9543 7.69256 11.2109C7.68858 11.4673 7.47758 11.6721 7.22098 11.6681C6.96453 11.6643 6.75975 11.4532 6.76373 11.1966C6.76753 10.9401 6.9787 10.7353 7.23531 10.7393Z" fill="#C7C7C7"/>
<path d="M18.3111 6.69679C18.3111 7.35484 18.195 8.01288 18.0402 8.63222L16.1434 8.05159C16.2983 7.54838 16.4144 7.00646 16.4144 6.46454C16.4144 5.92262 16.337 5.3807 16.1821 4.87749C15.8725 3.87107 15.2531 3.01949 14.4403 2.40015C14.4016 2.40015 14.4016 2.36144 14.3628 2.36144C14.0145 2.09048 13.5887 1.85823 13.1629 1.66469C12.8919 1.54856 12.5823 1.47114 12.2726 1.39373L12.1565 1.35502H12.0403C11.9629 1.35502 11.8855 1.31631 11.8081 1.31631H11.692H11.5758H11.3436C10.7242 1.31631 10.1049 1.39373 9.52428 1.54856C8.94365 1.7421 8.36303 2.01306 7.89852 2.40015C7.43402 2.74853 7.00823 3.17432 6.69856 3.63882L6.46631 3.9872C6.4276 4.02591 6.38889 4.10332 6.35018 4.18074C6.31148 4.21945 6.27277 4.29687 6.27277 4.37428C6.15664 4.60653 6.04052 4.83879 5.9631 5.07104L5.84697 5.41941C5.84697 5.45812 5.80826 5.53554 5.80826 5.57425C5.80826 5.61296 5.76956 5.69037 5.76956 5.72908V5.8065V5.88391C5.76956 5.92262 5.76956 6.00004 5.73085 6.03875C5.73085 6.15487 5.69214 6.23229 5.69214 6.34842C5.69214 6.46454 5.69214 6.54196 5.65343 6.65809V6.69679V6.77421V6.89034C5.65343 7.08388 5.65343 7.23871 5.69214 7.35484C5.73085 7.6258 5.76956 7.85805 5.80826 8.01288C5.80826 8.0903 5.84697 8.12901 5.84697 8.16772V8.24513L5.22764 8.39997C5.22764 8.39997 5.22764 8.36126 5.18893 8.32255C5.18893 8.28384 5.15022 8.20643 5.15022 8.12901C5.0728 8.12901 5.03409 8.01288 5.03409 7.85805C4.95668 7.47096 4.91797 7.08388 4.91797 6.69679C4.91797 3.01948 7.89852 0 11.6148 0C13.2792 0 14.7889 0.619336 15.9888 1.62576C16.492 2.05155 16.9565 2.59347 17.3049 3.1741C17.9243 4.18052 18.3113 5.41919 18.3113 6.69657L18.3111 6.69679Z" fill="#C7C7C7"/>
<path d="M14.7109 4.4522C14.7109 4.37478 14.6335 4.29736 14.4787 4.29736H14.44C14.3626 4.29736 14.3239 4.33607 14.2851 4.33607L14.2464 4.37478C14.2077 4.41349 14.169 4.41349 14.1303 4.4522C14.0142 4.52961 13.8981 4.56832 13.7432 4.68445C12.8529 5.26508 12.0401 5.92312 11.2272 6.54246L11.1885 6.58117L10.6078 7.04567C10.5691 7.08438 10.4917 7.12309 10.453 7.16179C10.3756 7.08438 10.2982 7.00696 10.182 6.92954C9.94979 6.736 9.67883 6.50375 9.40787 6.31021C9.25304 6.19408 9.0595 6.11666 8.90466 6.03925C8.74983 5.96183 8.6337 6.00054 8.55629 6.11666C8.51758 6.19408 8.51758 6.31021 8.51758 6.42633C8.55629 6.50375 8.55629 6.61987 8.595 6.736C8.82725 7.35534 9.21433 7.97467 9.71754 8.67143C9.87238 8.90368 10.1046 9.0198 10.3756 9.0198C10.6078 9.0198 10.8014 8.94239 10.9562 8.74884C11.111 8.59401 11.2659 8.43917 11.4207 8.24563C12.0013 7.6263 12.582 7.04567 13.1626 6.38762C13.4723 6.03925 13.7432 5.69087 14.0529 5.3812C14.169 5.34249 14.7496 4.72316 14.7109 4.4522Z" fill="#C7C7C7"/>
<path d="M20.982 16.5294C20.982 16.5294 15.4854 14.6714 15.3305 14.6714C15.3305 14.7488 15.2918 14.8262 15.2918 14.8649C15.0209 15.8714 14.7886 16.8391 14.479 17.8455C14.1306 19.0067 13.7048 20.168 13.3177 21.2905V21.3293C13.279 21.4454 13.2016 21.5615 13.1629 21.7163C13.0854 21.1744 13.008 20.5164 12.8919 19.8196C12.8145 19.0842 12.6984 18.3487 12.6596 17.8455C12.6596 17.8068 12.6209 17.7681 12.5435 17.7681H10.7242C10.6855 17.7681 10.6081 17.8068 10.6081 17.8455C10.5307 18.3487 10.4533 19.0454 10.3758 19.8196C10.2984 20.5164 10.1823 21.1744 10.1049 21.7163C10.0275 21.6002 9.98876 21.4841 9.95005 21.3293V21.2905C9.56297 20.1293 9.13718 19.0067 8.7888 17.8455C8.47913 16.8778 8.24688 15.8714 7.97592 14.8649C7.93721 14.7875 7.93721 14.7101 7.93721 14.6714C7.78238 14.6714 2.28577 16.5294 2.28577 16.5294C-0.152868 17.3423 0.00196576 18.9293 0.00196576 18.9293V22.1034C0.234217 24.0388 1.70514 24.0001 1.70514 24.0001H21.5239C21.5239 24.0001 22.9948 24.0388 23.2271 22.1034V18.9293C23.2271 18.9293 23.3819 17.3423 20.982 16.5294Z" fill="#C7C7C7"/>
<path d="M13.1241 15.9484L12.8919 15.4839C12.8532 15.3678 12.737 15.3291 12.6209 15.3291H10.5694C10.4532 15.3291 10.3371 15.4065 10.2984 15.4839L10.0661 15.9484C10.0274 16.0259 10.0274 16.142 10.0661 16.2194L10.5306 17.1871L10.5694 17.2258H12.6209C12.6596 17.2258 12.6596 17.2258 12.6596 17.1871L13.1241 16.2194C13.2015 16.142 13.1628 16.0259 13.1241 15.9484Z" fill="#C7C7C7"/>
</svg>
