<svg width="20" height="24" viewBox="0 0 20 24" fill="none" xmlns="http://www.w3.org/2000/svg">
<path d="M9.96815 0H9.65561C5.45286 0.138824 2.22287 3.71625 2.22287 7.919V10.4197H2.04915C0.902982 10.4197 0 11.3227 0 12.4689V21.9508C0 23.097 0.902982 24 2.04915 24H17.783C18.9291 24 19.8321 23.097 19.8321 21.9508L19.8323 12.4689C19.8323 11.3227 18.9294 10.4197 17.7832 10.4197H17.7137V7.7106C17.7137 3.47325 14.2404 0 9.96833 0H9.96815ZM11.4269 19.5891C11.4616 19.8323 11.2881 20.0407 11.0448 20.0407L9.89867 20.0405H8.7525C8.50925 20.0405 8.33578 19.8321 8.37043 19.5889L8.82203 17.4355C8.40531 17.0534 8.12744 16.4977 8.2316 15.8726C8.33578 15.1431 8.96111 14.5527 9.69037 14.4485H9.89872C10.8366 14.4485 11.6007 15.2126 11.6007 16.1505C11.6007 16.6714 11.3574 17.1576 10.9756 17.4704L11.4269 19.5891ZM14.3097 10.4197H5.59186V7.84947C5.59186 5.59199 7.25895 3.57744 9.51669 3.36911C9.65551 3.36911 9.79458 3.33446 9.9334 3.33446C12.33 3.33446 14.3096 5.27942 14.3096 7.71069L14.3097 10.4197Z" fill="#8B39E5"/>
<path d="M9.96815 0H9.65561C5.45286 0.138824 2.22287 3.71625 2.22287 7.919V10.4197H2.04915C0.902982 10.4197 0 11.3227 0 12.4689V21.9508C0 23.097 0.902982 24 2.04915 24H17.783C18.9291 24 19.8321 23.097 19.8321 21.9508L19.8323 12.4689C19.8323 11.3227 18.9294 10.4197 17.7832 10.4197H17.7137V7.7106C17.7137 3.47325 14.2404 0 9.96833 0H9.96815ZM11.4269 19.5891C11.4616 19.8323 11.2881 20.0407 11.0448 20.0407L9.89867 20.0405H8.7525C8.50925 20.0405 8.33578 19.8321 8.37043 19.5889L8.82203 17.4355C8.40531 17.0534 8.12744 16.4977 8.2316 15.8726C8.33578 15.1431 8.96111 14.5527 9.69037 14.4485H9.89872C10.8366 14.4485 11.6007 15.2126 11.6007 16.1505C11.6007 16.6714 11.3574 17.1576 10.9756 17.4704L11.4269 19.5891ZM14.3097 10.4197H5.59186V7.84947C5.59186 5.59199 7.25895 3.57744 9.51669 3.36911C9.65551 3.36911 9.79458 3.33446 9.9334 3.33446C12.33 3.33446 14.3096 5.27942 14.3096 7.71069L14.3097 10.4197Z" fill="#8B39E5"/>
</svg>
