<svg width="16" height="17" viewBox="0 0 16 17" fill="none" xmlns="http://www.w3.org/2000/svg">
<path fill-rule="evenodd" clip-rule="evenodd" d="M8.00005 6.89999C8.87526 6.89999 9.71463 6.55231 10.3335 5.93344C10.9524 5.31457 11.3 4.4752 11.3 3.59999C11.3 2.72477 10.9524 1.88541 10.3335 1.26654C9.71463 0.647666 8.87526 0.299988 8.00005 0.299988C7.12484 0.299988 6.28547 0.647666 5.6666 1.26654C5.04773 1.88541 4.70005 2.72477 4.70005 3.59999C4.70005 4.4752 5.04773 5.31457 5.6666 5.93344C6.28547 6.55231 7.12484 6.89999 8.00005 6.89999ZM3.32381 16.8C1.65384 16.8 0.247103 15.3962 0.886177 13.8533C1.27314 12.9191 1.84032 12.0703 2.55533 11.3553C3.27034 10.6403 4.11918 10.0731 5.05339 9.68612C5.98759 9.29915 6.98887 9.09999 8.00005 9.09999C9.01123 9.09999 10.0125 9.29915 10.9467 9.68612C11.8809 10.0731 12.7298 10.6403 13.4448 11.3553C14.1598 12.0703 14.727 12.9191 15.1139 13.8533C15.753 15.3962 14.3463 16.8 12.6763 16.8H3.32381Z" fill="#808080"/>
</svg>
