<svg width="64" height="46" viewBox="0 0 64 46" fill="none" xmlns="http://www.w3.org/2000/svg">
<path d="M25.1973 16.2592C29.885 16.2592 33.6851 12.6195 33.6851 8.12964C33.6851 3.63983 29.885 0.00012207 25.1973 0.00012207C20.5096 0.00012207 16.7095 3.63983 16.7095 8.12964C16.7095 12.6195 20.5096 16.2592 25.1973 16.2592Z" fill="#c2c2c2"/>
<path d="M54.6705 37.575C54.6705 38.8552 53.6011 39.8794 52.2645 39.8794H50.46C49.1233 39.8794 48.054 38.8552 48.054 37.575V37.4469C45.7817 37.3189 43.242 37.1269 40.9028 36.8068V43.208C40.9028 44.3602 41.8385 45.2564 43.0415 45.2564H59.683C60.886 45.2564 61.8216 44.3602 61.8216 43.208V36.8068C59.4825 37.1909 56.9428 37.3829 54.7373 37.4469V37.575H54.6705Z" fill="#c2c2c2"/>
<path d="M61.2201 29.0615H56.4749V27.5252C56.4749 25.9249 55.0714 24.5807 53.4006 24.5807H49.4574C47.7866 24.5807 46.3831 25.9249 46.3831 27.5252V29.0615H41.6379C40.4349 29.0615 39.4993 29.9577 39.4993 31.1099V34.3105C39.4993 34.6306 39.6998 34.8866 39.9671 34.8866C42.1058 35.2707 44.7791 35.5907 48.1876 35.7188C48.1876 34.4385 49.2569 33.4143 50.5936 33.4143H52.3313C53.6679 33.4143 54.7372 34.4385 54.7372 35.7188C58.0789 35.5907 60.8191 35.2707 62.8909 34.8226C63.1582 34.7586 63.3587 34.5025 63.3587 34.2465V31.0459C63.3587 30.0217 62.3562 29.0615 61.2201 29.0615ZM54.0021 29.0615H48.7223V27.5252C48.7223 27.2052 48.9896 26.8851 49.3906 26.8851H53.3338C53.6679 26.8851 54.0021 27.1412 54.0021 27.5252V29.0615Z" fill="#c2c2c2"/>
<path d="M52.2648 38.2154C52.6658 38.2154 52.9332 37.8953 52.9332 37.5752V35.8469C52.9332 35.4628 52.599 35.2068 52.2648 35.2068H50.4603C50.0593 35.2068 49.792 35.5268 49.792 35.8469V37.5752C49.792 37.9593 50.1262 38.2154 50.4603 38.2154H52.2648Z" fill="#c2c2c2"/>
<path d="M48.3214 15.8111L50.3933 9.98598C51.1284 7.87358 49.7918 5.56915 47.3858 5.18508C45.5144 4.86502 43.7099 6.08125 43.1084 7.80957L41.0366 13.6347C40.3015 15.8111 38.4301 17.4754 36.1578 17.9875C32.6825 18.8196 29.1403 19.2037 25.5981 19.2037H24.9298C21.3877 19.2037 17.7787 18.8196 14.3702 17.9875C12.031 17.4754 10.2265 15.8111 9.49134 13.6347L7.68684 8.44969C6.88484 6.08125 5.08035 4.86502 3.20902 5.18508C0.80302 5.56915 -0.533645 7.87358 0.20152 9.98598L2.20652 15.683C3.87735 20.3559 7.82051 24.0046 12.833 25.1568C13.635 25.3489 14.437 25.4769 15.239 25.6689L15.5732 39.6875C15.5732 40.9678 16.7093 41.992 17.9792 41.992H32.6825C34.0191 41.992 35.0885 40.9678 35.0885 39.6875L35.4226 25.6689C36.1578 25.5409 36.9598 25.4129 37.695 25.2208C42.6406 24.0046 46.6506 20.4839 48.3214 15.8111ZM27.269 34.5026L25.5313 36.3589C25.3976 36.4869 25.1303 36.4869 24.9966 36.3589L23.259 34.5026C23.1921 34.4386 23.1253 34.3105 23.1921 34.1825L24.6625 24.0686H23.9941C23.7936 24.0686 23.5931 23.8766 23.5931 23.6845V21.5721C23.5931 21.3801 23.7936 21.1881 23.9941 21.1881H26.7343C26.9348 21.1881 27.1353 21.3801 27.1353 21.5721V23.6845C27.1353 23.8766 26.9348 24.0686 26.7343 24.0686H26.066L27.5363 34.1825C27.3358 34.3105 27.3358 34.4386 27.269 34.5026Z" fill="#c2c2c2"/>
</svg>
