<svg width="22" height="26" viewBox="0 0 22 26" fill="none" xmlns="http://www.w3.org/2000/svg">
<path fill-rule="evenodd" clip-rule="evenodd" d="M0.889153 4.07684L3.14752 1.95491L4.17522 1.50588C5.88333 0.758897 9.02048 6.3743 7.68045 7.83315L5.8019 9.81982C4.12326 11.6463 11.1469 19.8569 13.2114 18.4818L15.465 16.9336C17.1138 15.8358 22.1755 19.8049 21.1729 21.3769L20.5699 22.3226L18.1238 24.2248C8.7308 25.1453 -1.47552 13.2138 0.889154 4.07683L0.889153 4.07684Z" fill="url(#paint0_linear_915_11469)"/>
<path fill-rule="evenodd" clip-rule="evenodd" d="M0.889153 4.07684L3.14752 1.95491L4.17522 1.50588C5.88333 0.758897 9.02048 6.3743 7.68045 7.83315L5.8019 9.81982C4.12326 11.6463 11.1469 19.8569 13.2114 18.4818L15.465 16.9336C17.1138 15.8358 22.1755 19.8049 21.1729 21.3769L20.5699 22.3226L18.1238 24.2248C8.7308 25.1453 -1.47552 13.2138 0.889154 4.07683L0.889153 4.07684Z" fill="#8B39E5"/>
<defs>
<linearGradient id="paint0_linear_915_11469" x1="21.9725" y1="19.4399" x2="-3.75701" y2="20.6455" gradientUnits="userSpaceOnUse">
<stop stop-color="#8B39E5"/>
<stop offset="1" stop-color="#EEEEFF" stop-opacity="0"/>
</linearGradient>
</defs>
</svg>
