<svg width="26" height="25" viewBox="0 0 26 25" fill="none" xmlns="http://www.w3.org/2000/svg">
<path d="M12.857 18.2144C12.3141 18.2144 11.8284 18.3858 11.3999 18.6428C10.9999 18.9286 10.6571 19.3286 10.457 19.8143C11.1998 20.2715 11.9998 20.5001 12.857 20.5001C13.7142 20.5001 14.5141 20.2715 15.2284 19.8143C14.8569 18.8715 13.914 18.2144 12.857 18.2144V18.2144Z" fill="#C7C7C7"/>
<path d="M1.94317 10.7569C2.25746 10.9283 2.62894 10.8998 2.94327 10.6997L3.94338 10.014H3.97188L12.5434 4.29965C12.7435 4.18545 12.9719 4.18545 13.1719 4.29965L21.7434 10.014H21.7719L22.772 10.6997C23.0863 10.8998 23.4578 10.9283 23.7721 10.7569C24.0865 10.5855 24.2863 10.2713 24.2863 9.89974C24.2863 9.58545 24.1149 9.27117 23.8578 9.09974L12.8578 1.75684L4.62914 7.24259C4.60064 7.24259 4.60064 7.24259 4.60064 7.27108L1.91486 9.07115C1.62906 9.24255 1.48637 9.55684 1.48637 9.87115C1.42897 10.2711 1.62907 10.5854 1.94316 10.7568L1.94317 10.7569Z" fill="#C7C7C7"/>
<path d="M7.14295 1.64276C7.14295 1.01419 6.62876 0.5 6.00018 0.5C5.37161 0.5 4.85742 1.01419 4.85742 1.64276V5.7284L7.1432 4.21411L7.14295 1.64276Z" fill="#C7C7C7"/>
<path d="M12.8567 11.3569C10.3424 11.3569 8.28516 13.4141 8.28516 15.9285C8.28516 16.5286 8.39935 17.1 8.62795 17.6429C8.85655 18.1858 9.17087 18.6715 9.57082 19.1C10.1994 17.8715 11.4566 17.1 12.8565 17.1C11.7422 17.1 10.8565 16.2144 10.8565 15.1001C10.8565 13.9858 11.7422 13.1001 12.8565 13.1001C13.9707 13.1001 14.8564 13.9858 14.8564 15.1001C14.8564 16.2144 13.9707 17.1 12.8565 17.1C13.5707 17.1 14.2278 17.3001 14.7992 17.6429C15.3706 17.9858 15.8278 18.5001 16.1421 19.1C16.9706 18.2428 17.4278 17.1573 17.4278 15.9571C17.4282 13.4142 15.371 11.357 12.8566 11.357L12.8567 11.3569Z" fill="#C7C7C7"/>
<path d="M13.7144 15.0714C13.7144 15.5449 13.3305 15.9285 12.8572 15.9285C12.3838 15.9285 12 15.5449 12 15.0714C12 14.598 12.3838 14.2144 12.8572 14.2144C13.3305 14.2144 13.7144 14.598 13.7144 15.0714Z" fill="#C7C7C7"/>
<path d="M25.143 23.357H20.8572V10.8141L12.8572 5.47119L4.85712 10.8141V23.357H0.571381C0.257083 23.357 0 23.6141 0 23.9284C0 24.2427 0.257098 24.4998 0.571381 24.4998H25.143C25.4573 24.4998 25.7143 24.2427 25.7143 23.9284C25.7143 23.6141 25.4572 23.357 25.143 23.357ZM16.3143 20.4712C16.3143 20.4712 16.2858 20.4712 16.2858 20.4997L16.2573 20.5282C15.2286 21.2714 14.0856 21.6427 12.8571 21.6427C11.6285 21.6427 10.4856 21.2712 9.48571 20.5284L9.45722 20.4999C9.45722 20.4999 9.42871 20.4999 9.42871 20.4714C8.71443 19.9285 8.14304 19.2429 7.77156 18.4999C7.37157 17.7284 7.17146 16.8427 7.17146 15.9286C7.17146 12.7856 9.7428 10.2142 12.8858 10.2142C16.0288 10.2142 18.6001 12.7856 18.6001 15.9286C18.5714 17.7284 17.7429 19.3856 16.3143 20.4712H16.3143Z" fill="#C7C7C7"/>
</svg>
