<svg width="17" height="15" viewBox="0 0 17 15" fill="none" xmlns="http://www.w3.org/2000/svg">
<path d="M9.57161 11.7611C9.57161 9.42708 11.4715 7.52716 13.8056 7.52716C15.0721 7.52716 16.194 8.08803 16.972 8.95651V3.3474C16.972 2.80455 16.5377 2.3704 15.995 2.3704H12.2134V1.79133C12.2134 0.796131 11.3992 0 10.4221 0L6.51377 0.000126213C5.51857 0.000126213 4.72244 0.814319 4.72244 1.79145V2.37052L0.977006 2.3704C0.434157 2.3704 0 2.80468 0 3.3474V14.0047C0 14.5476 0.434286 14.9817 0.977006 14.9817H11.0734C10.1506 14.2219 9.57161 13.0639 9.57161 11.7611ZM5.82617 1.79139C5.82617 1.41136 6.13375 1.10379 6.51377 1.10379H10.404C10.784 1.10379 11.0916 1.41137 11.0916 1.79139V2.37046H5.82623L5.82617 1.79139Z" fill="#C2C2C2"/>
<path d="M13.6246 8.93848C12.1771 8.93848 11.019 10.1145 11.019 11.544C11.019 12.9734 12.1951 14.1496 13.6246 14.1496C14.0589 14.1496 14.4931 14.041 14.8911 13.824L14.9635 13.7877L16.0129 14.8372C16.1034 14.9277 16.2482 15 16.3929 15C16.5377 15 16.6825 14.9457 16.773 14.8372C16.8815 14.7286 16.9358 14.6019 16.9358 14.4571C16.9358 14.3124 16.8815 14.1676 16.773 14.0771L15.7598 13.0639L15.814 12.9916C16.0854 12.5573 16.2483 12.0688 16.2483 11.5622C16.2482 10.1145 15.0721 8.9385 13.6246 8.9385V8.93848ZM13.6246 13.1905C12.7199 13.1905 11.978 12.4487 11.978 11.544C11.978 10.6393 12.7199 9.89739 13.6246 9.89739C14.5293 9.89739 15.2712 10.6393 15.2712 11.544C15.2712 12.4487 14.5293 13.1905 13.6246 13.1905Z" fill="#C2C2C2"/>
</svg>
