<svg width="32" height="31" viewBox="0 0 32 31" fill="none" xmlns="http://www.w3.org/2000/svg">
<path d="M25.1457 21.9093C24.9163 21.6799 24.8848 21.284 25.0608 21.0106C26.4435 18.8832 27.2542 16.3504 27.2542 13.6291C27.2542 6.11238 21.1391 0.000366211 13.6287 0.000366211C6.11201 0.000366211 0 6.11238 0 13.6291C0 21.1426 6.11201 27.2546 13.6287 27.2546C16.5543 27.2546 19.2631 26.315 21.4879 24.7375C21.7487 24.549 22.1415 24.5741 22.3709 24.8004L27.2417 29.6711C27.2731 29.7025 27.3077 29.734 27.3422 29.7591C27.3988 29.8062 27.6345 30.0262 27.8607 30.2556L28.4389 30.8307C28.6683 31.0569 29.0391 31.0569 29.2654 30.8307L31.2514 28.8447C31.4808 28.6153 31.4808 28.2445 31.2545 28.0151L25.1457 21.9093ZM21.8713 19.9767C21.4219 20.5612 20.916 21.0955 20.3566 21.57C18.5403 23.1129 16.1929 24.0493 13.6287 24.0493C7.8812 24.0493 3.20527 19.3734 3.20527 13.6291C3.20527 7.88471 7.8812 3.20564 13.6287 3.20564C19.373 3.20564 24.049 7.88156 24.049 13.6291C24.049 16.0173 23.2288 18.217 21.8713 19.9767Z" fill="#C2C2C2"/>
</svg>
