<svg width="40" height="20" viewBox="0 0 40 20" fill="none" xmlns="http://www.w3.org/2000/svg">
<g clip-path="url(#clip0_1392_46244)">
<path d="M9.80332 8.91834C12.2297 8.91834 14.2039 6.94444 14.2039 4.51777C14.2039 2.0911 12.2297 0.117188 9.80332 0.117188C7.37693 0.117188 5.40302 2.0911 5.40302 4.51777C5.40302 6.94444 7.37693 8.91834 9.80332 8.91834ZM9.80332 10.0472C4.42642 10.0472 0.255859 13.2462 0.255859 15.9986C0.255859 19.113 4.84448 19.5423 9.80332 19.5423C14.7622 19.5423 19.3511 19.113 19.3511 15.9986C19.3511 13.2462 15.1805 10.0472 9.80332 10.0472ZM38.4913 0.807218H21.9434C21.6269 0.807218 21.3703 1.06357 21.3703 1.38034V4.81995C21.3703 5.13672 21.6269 5.39307 21.9434 5.39307H38.4913C38.808 5.39307 39.0644 5.13672 39.0644 4.81995V1.38034C39.0644 1.06357 38.808 0.807218 38.4913 0.807218ZM37.9182 4.24688H35.0052V1.9534H37.9182V4.24688ZM38.4913 7.19571H21.9434C21.6269 7.19571 21.3703 7.452 21.3703 7.76878V11.2079C21.3703 11.5247 21.6269 11.7809 21.9434 11.7809H38.4913C38.808 11.7809 39.0644 11.5247 39.0644 11.2079V7.76878C39.0644 7.452 38.808 7.19571 38.4913 7.19571ZM37.9182 10.6348H28.4623V8.3419H37.9182V10.6348ZM38.4913 13.5842H21.9434C21.6269 13.5842 21.3703 13.8405 21.3703 14.1573V17.5964C21.3703 17.9132 21.6269 18.1694 21.9434 18.1694H38.4913C38.808 18.1694 39.0644 17.9132 39.0644 17.5964V14.1573C39.0644 13.8405 38.808 13.5842 38.4913 13.5842ZM37.9182 17.0233H30.7904V14.7304H37.9182V17.0233Z" fill="#8B39E5"/>
<path d="M9.80332 8.91834C12.2297 8.91834 14.2039 6.94444 14.2039 4.51777C14.2039 2.0911 12.2297 0.117188 9.80332 0.117188C7.37693 0.117188 5.40302 2.0911 5.40302 4.51777C5.40302 6.94444 7.37693 8.91834 9.80332 8.91834ZM9.80332 10.0472C4.42642 10.0472 0.255859 13.2462 0.255859 15.9986C0.255859 19.113 4.84448 19.5423 9.80332 19.5423C14.7622 19.5423 19.3511 19.113 19.3511 15.9986C19.3511 13.2462 15.1805 10.0472 9.80332 10.0472ZM38.4913 0.807218H21.9434C21.6269 0.807218 21.3703 1.06357 21.3703 1.38034V4.81995C21.3703 5.13672 21.6269 5.39307 21.9434 5.39307H38.4913C38.808 5.39307 39.0644 5.13672 39.0644 4.81995V1.38034C39.0644 1.06357 38.808 0.807218 38.4913 0.807218ZM37.9182 4.24688H35.0052V1.9534H37.9182V4.24688ZM38.4913 7.19571H21.9434C21.6269 7.19571 21.3703 7.452 21.3703 7.76878V11.2079C21.3703 11.5247 21.6269 11.7809 21.9434 11.7809H38.4913C38.808 11.7809 39.0644 11.5247 39.0644 11.2079V7.76878C39.0644 7.452 38.808 7.19571 38.4913 7.19571ZM37.9182 10.6348H28.4623V8.3419H37.9182V10.6348ZM38.4913 13.5842H21.9434C21.6269 13.5842 21.3703 13.8405 21.3703 14.1573V17.5964C21.3703 17.9132 21.6269 18.1694 21.9434 18.1694H38.4913C38.808 18.1694 39.0644 17.9132 39.0644 17.5964V14.1573C39.0644 13.8405 38.808 13.5842 38.4913 13.5842ZM37.9182 17.0233H30.7904V14.7304H37.9182V17.0233Z" fill="#8B39E5"/>
</g>
<defs>
<clipPath id="clip0_1392_46244">
<rect width="39.0909" height="20" fill="white"/>
</clipPath>
</defs>
</svg>
