<svg width="24" height="24" viewBox="0 0 24 24" fill="none" xmlns="http://www.w3.org/2000/svg">
<path d="M0.428711 13.0435V23.5864C0.429094 23.8149 0.61411 23.9999 0.842362 24.0001H23.1582C23.3864 23.9999 23.5716 23.8147 23.5718 23.5864V13.0435L14.1432 14.9942V15.8571C14.1432 15.9708 14.098 16.0798 14.0176 16.1602C13.9373 16.2405 13.8282 16.2857 13.7146 16.2857V17.5714C13.7146 17.6851 13.6694 17.7941 13.5891 17.8745C13.5087 17.9548 13.3997 18 13.286 18H10.7146C10.4779 18 10.286 17.8081 10.286 17.5714V16.2857C10.0493 16.2857 9.8574 16.0938 9.8574 15.8571V14.9942L0.428711 13.0435Z" fill="#8B39E5"/>
<path d="M6.42871 4.28564H7.28586V5.1428H6.42871V4.28564Z" fill="#8B39E5"/>
<path d="M11.1426 16.2856H12.8569V17.1428H11.1426V16.2856Z" fill="#8B39E5"/>
<path d="M24.0002 6.64286C24.0002 6.30038 23.7999 6 23.5717 6H0.428576C0.200319 6 0 6.30038 0 6.64286V12.0796L9.85822 14.1194C9.87065 13.8923 10.0583 13.7146 10.2856 13.7144H13.7143C13.9415 13.7146 14.1292 13.8923 14.1417 14.1194L23.9999 12.0796L24.0002 6.64286Z" fill="#8B39E5"/>
<path d="M10.7148 14.5718H13.2863V15.4289H10.7148V14.5718Z" fill="#8B39E5"/>
<path d="M16.7148 4.28564H17.572V5.1428H16.7148V4.28564Z" fill="#8B39E5"/>
<path d="M11.9997 0.857151C14.4141 0.857151 16.3498 1.95651 16.6674 3.4286H17.5368C17.2276 1.50271 14.8626 0 11.9996 0C9.13661 0 6.77195 1.50271 6.46289 3.4286H7.33229C7.6497 1.95651 9.58537 0.857151 11.9997 0.857151Z" fill="#8B39E5"/>
</svg>
