<svg width="42" height="62" viewBox="0 0 42 62" fill="none" xmlns="http://www.w3.org/2000/svg">
<path d="M23.6234 48.9043H28.2459C28.5025 48.9043 28.6739 49.0788 28.6739 49.3401C28.6739 49.6014 28.5025 49.7758 28.2459 49.7758H23.6238C23.3672 49.7758 23.1958 49.6014 23.1958 49.3401C23.1958 49.1224 23.4096 48.9043 23.6234 48.9043" fill="#C2C2C2"/>
<path d="M23.6234 52.1729H28.2459C28.5025 52.1729 28.6739 52.3473 28.6739 52.6086C28.6739 52.8699 28.5025 53.0444 28.2459 53.0444H23.6238C23.3672 53.0444 23.1958 52.8699 23.1958 52.6086C23.1958 52.3905 23.4096 52.1729 23.6234 52.1729" fill="#C2C2C2"/>
<path d="M3.63628 32.3059C4.62051 31.2603 5.69048 31.0422 9.1144 29.9095C10.4838 29.4301 11.6394 29.1688 12.3242 28.9511L14.6783 26.9904H17.3314V24.9861C15.1487 24.1582 13.5222 22.067 13.3513 19.5834C11.8105 19.4089 10.6119 18.1456 10.6119 16.6643C10.6119 15.183 11.8104 13.9629 13.3083 13.7452V8.21205C13.3083 4.76998 16.0905 1.98145 19.4717 1.98145H23.1523C26.5335 1.98145 29.2723 4.77008 29.2723 8.21162V13.3091C30.8131 13.4835 32.0116 14.7031 32.0116 16.2282C32.0116 17.7532 30.8132 18.9731 29.2723 19.1473C29.2723 21.5001 27.9881 23.5476 26.0625 24.6368V26.9897H27.9885L30.4707 29.2116C36.4626 31.4336 37.6611 31.4336 38.8163 32.7409C39.5867 33.5688 40.0576 34.7016 40.2286 36.0957V48.3387C40.2286 51.0836 38.3883 53.4797 35.7775 54.1336L32.1397 55.0487V55.3973C32.1397 57.1835 30.7274 58.6649 28.9299 58.6649H13.2226C11.4679 58.6649 10.0128 57.2271 10.0128 55.3973V54.5257L6.76014 53.7415C4.02082 53.088 2.1381 50.6916 2.1381 47.9465V35.7475C2.22297 34.6591 2.73672 33.2651 3.63565 32.3067L3.63628 32.3059ZM13.3084 14.6602C12.2385 14.8346 11.4681 15.6621 11.4681 16.6645C11.4681 17.6664 12.2814 18.4943 13.3084 18.6688V14.6602ZM29.3153 18.2763C30.3853 18.1018 31.1556 17.2743 31.1556 16.272C31.1556 15.27 30.3424 14.4421 29.3153 14.2676V18.2763ZM14.978 27.8612L13.0949 29.4298L16.6041 34.6144L18.273 31.6517H20.6271L17.4173 28.1661C17.3316 28.1229 17.3316 27.992 17.3316 27.9048V27.8611L14.978 27.8612ZM18.8297 40.9321V42.5006H22.2965V40.9321H18.8297ZM21.6118 31.4339L25.2496 27.5125V24.9856C24.6078 25.2033 23.923 25.3342 23.1954 25.3342C19.1723 25.3342 19.001 25.3778 18.1881 25.2033V27.6866L21.6118 31.4339ZM28.4166 8.21149C28.4166 5.24881 26.063 2.85238 23.1527 2.85238H19.4721C16.5618 2.85238 14.2078 5.24881 14.2078 8.21149V10.259C14.2506 10.1717 14.2506 10.2154 14.2934 10.1281C17.8884 6.33796 24.8217 6.33796 28.4167 10.0849L28.4166 8.21149ZM28.4166 11.5663L28.2452 11.2178C25.2065 7.33998 18.3589 7.07865 14.8919 10.6948L14.1644 11.8276L14.1648 12.8732H16.9041C16.9469 12.8295 18.6158 11.9148 18.6588 11.8712C19.472 11.5227 21.6119 10.782 23.8375 11.7404C24.4365 12.0016 25.0359 12.3938 25.5492 12.8732H28.4595V11.5663L28.4166 11.5663ZM28.4166 19.1473V13.7446H25.164C24.6931 13.2653 24.2226 12.8731 23.4951 12.5246C21.6119 11.6967 19.7287 12.307 19.0012 12.6555L17.118 13.7447H14.1649V19.1474C14.1649 22.1101 16.519 24.5065 19.4293 24.5065H23.1528C26.0631 24.5061 28.4167 22.1101 28.4167 19.1474L28.4166 19.1473ZM27.6891 27.8608H26.0625C26.0625 27.9044 26.0197 27.9917 25.9768 28.0353L22.5956 31.6514H24.6498L26.3196 34.6145L29.7008 29.6475L27.6891 27.8608ZM32.1401 54.1335L35.5641 53.262C37.7897 52.6958 39.3733 50.6478 39.3733 48.295V45.6372H32.1405L32.1401 54.1335ZM32.1401 44.7661H39.3733V36.139C39.2448 34.9626 38.8171 34.0042 38.1749 33.3072C37.2335 32.2616 36.1207 32.218 30.4284 30.1265L26.2339 36.2699L24.1369 32.5666H22.0399L22.1256 40.1041C29.5297 40.1041 29.4012 40.0168 30.2574 40.409V38.0125H31.1135V40.9752C31.7553 41.585 32.1405 42.413 32.1405 43.3717L32.1401 44.7661ZM10.8693 55.3531C10.8693 56.6604 11.8964 57.7495 13.2234 57.7495H28.9307C30.2149 57.7495 31.2848 56.7039 31.2848 55.3531V43.328C31.2848 42.0207 30.2577 40.9315 28.9307 40.9315H23.1531V42.9359C23.1531 43.1972 22.9817 43.3716 22.725 43.3716H18.4025C18.1459 43.3716 17.9745 43.1972 17.9745 42.9359V40.9315H13.2239C11.9397 40.9315 10.8698 41.9771 10.8698 43.328L10.8693 55.3531ZM2.99425 47.9028C2.99425 50.2556 4.62078 52.2595 6.97441 52.8698L10.0132 53.6104V45.6809H2.99415L2.99425 47.9028ZM2.99425 44.766H10.0133V43.3283C10.0133 42.2827 10.4841 41.3676 11.2546 40.7578V37.9692H12.1107V40.2784C12.8383 40.0171 12.3674 40.0608 21.2696 40.0608L21.1839 32.5229H18.7869L16.6899 36.2262L12.3674 29.8215C11.126 30.2136 11.7683 29.9524 8.04487 31.1288C5.73365 31.8695 4.92039 32.1308 4.23569 32.8714C3.59382 33.5684 3.16571 34.5272 2.99433 35.7032L2.99425 44.766Z" fill="#C2C2C2"/>
</svg>
