<svg width="39" height="58" viewBox="0 0 39 58" fill="none" xmlns="http://www.w3.org/2000/svg">
<path d="M1.49751 30.8245C2.48174 29.7789 3.55172 29.5608 6.97563 28.428C8.34503 27.9487 9.50064 27.6874 10.1854 27.4697L12.5395 25.509H15.1926V23.5046C13.01 22.6767 11.3835 20.5855 11.2125 18.1019C9.67171 17.9275 8.47317 16.6642 8.47317 15.1828C8.47317 13.7015 9.6716 12.4815 11.1696 12.2638V6.73061C11.1696 3.28853 13.9517 0.5 17.3329 0.5H21.0135C24.3947 0.5 27.1335 3.28864 27.1335 6.73018V11.8276C28.6743 12.0021 29.8728 13.2217 29.8728 14.7467C29.8728 16.2718 28.6744 17.4917 27.1335 17.6658C27.1335 20.0187 25.8493 22.0661 23.9237 23.1554V25.5082H25.8498L28.3319 27.7302C34.3238 29.9521 35.5223 29.9521 36.6775 31.2594C37.4479 32.0873 37.9189 33.2202 38.0898 34.6142V46.8573C38.0898 49.6022 36.2495 51.9983 33.6388 52.6522L30.001 53.5673V53.9158C30.001 55.7021 28.5887 57.1834 26.7912 57.1834H11.0838C9.32915 57.1834 7.87401 55.7457 7.87401 53.9158V53.0443L4.62137 52.26C1.88205 51.6066 -0.000660704 49.2102 -0.000660704 46.4651V34.2661C0.0842083 33.1777 0.59796 31.7837 1.49688 30.8253L1.49751 30.8245ZM11.1697 13.1787C10.0997 13.3532 9.32935 14.1807 9.32935 15.183C9.32935 16.185 10.1426 17.0129 11.1697 17.1874V13.1787ZM27.1765 16.7948C28.2465 16.6204 29.0169 15.7929 29.0169 14.7905C29.0169 13.7886 28.2036 12.9607 27.1765 12.7862V16.7948ZM12.8392 26.3798L10.9561 27.9483L14.4653 33.133L16.1343 30.1703H18.4883L15.2785 26.6846C15.1928 26.6414 15.1928 26.5106 15.1928 26.4233V26.3797L12.8392 26.3798ZM16.6909 39.4506V41.0192H20.1578V39.4506H16.6909ZM19.4731 29.9524L23.1109 26.0311V23.5042C22.469 23.7219 21.7843 23.8527 21.0567 23.8527C17.0336 23.8527 16.8622 23.8963 16.0494 23.7219V26.2051L19.4731 29.9524ZM26.2779 6.73005C26.2779 3.76737 23.9242 1.37094 21.0139 1.37094H17.3333C14.423 1.37094 12.069 3.76737 12.069 6.73005V8.77753C12.1118 8.6903 12.1118 8.73392 12.1547 8.64668C15.7497 4.85652 22.6829 4.85652 26.2779 8.60348L26.2779 6.73005ZM26.2779 10.0848L26.1065 9.73631C23.0677 5.85854 16.2201 5.59721 12.7532 9.21331L12.0256 10.3461L12.026 11.3917H14.7653C14.8082 11.3481 16.4771 10.4334 16.52 10.3898C17.3333 10.0412 19.4731 9.30053 21.6987 10.2589C22.2977 10.5202 22.8971 10.9123 23.4104 11.3917H26.3207V10.0849L26.2779 10.0848ZM26.2779 17.6659V12.2632H23.0252C22.5543 11.7838 22.0838 11.3917 21.3563 11.0432C19.4732 10.2153 17.5899 10.8255 16.8624 11.174L14.9793 12.2633H12.0262V17.666C12.0262 20.6287 14.3802 23.0251 17.2905 23.0251H21.014C23.9243 23.0247 26.278 20.6287 26.278 17.666L26.2779 17.6659ZM25.5503 26.3794H23.9238C23.9238 26.423 23.8809 26.5102 23.8381 26.5538L20.4569 30.17H22.5111L24.1808 33.1331L27.562 28.1661L25.5503 26.3794ZM30.0014 52.652L33.4254 51.7805C35.651 51.2143 37.2346 49.1664 37.2346 46.8135V44.1558H30.0018L30.0014 52.652ZM30.0014 43.2847H37.2346V34.6576C37.106 33.4811 36.6784 32.5228 36.0361 31.8258C35.0947 30.7802 33.9819 30.7365 28.2896 28.645L24.0952 34.7884L21.9981 31.0851H19.9011L19.9868 38.6226C27.391 38.6226 27.2624 38.5354 28.1186 38.9275V36.5311H28.9747V39.4938C29.6166 40.1036 30.0018 40.9315 30.0018 41.8902L30.0014 43.2847ZM8.73057 53.8716C8.73057 55.1789 9.75765 56.268 11.0846 56.268H26.792C28.0761 56.268 29.146 55.2225 29.146 53.8716V41.8465C29.146 40.5392 28.1189 39.4501 26.792 39.4501H21.0143V41.4544C21.0143 41.7157 20.8429 41.8902 20.5863 41.8902H16.2638C16.0071 41.8902 15.8357 41.7157 15.8357 41.4544V39.4501H11.0851C9.80095 39.4501 8.73108 40.4957 8.73108 41.8465L8.73057 53.8716ZM0.855489 46.4213C0.855489 48.7742 2.48202 50.7781 4.83564 51.3883L7.87439 52.129V44.1994H0.855385L0.855489 46.4213ZM0.855489 43.2846H7.87449V41.8468C7.87449 40.8013 8.34539 39.8861 9.11585 39.2764V36.4877H9.97195V38.797C10.6995 38.5357 10.2286 38.5793 19.1308 38.5793L19.0451 31.0414H16.6481L14.5511 34.7447L10.2286 28.3401C8.98725 28.7322 9.62958 28.4709 5.90611 29.6474C3.59488 30.388 2.78162 30.6493 2.09693 31.3899C1.45506 32.087 1.02695 33.0457 0.855567 34.2217L0.855489 43.2846Z" fill="#8B39E5"/>
</svg>
