<svg width="22" height="24" viewBox="0 0 22 24" fill="none" xmlns="http://www.w3.org/2000/svg">
<g clip-path="url(#clip0_878_11046)">
<path d="M9.14766 12.5847C7.1889 13.5113 5.62477 14.1417 4.36599 14.6519C-0.144916 16.4727 -0.378238 16.5695 -0.510742 24.1021H21.9573C21.8248 16.5695 21.5915 16.4727 17.0806 14.6519C15.8218 14.1417 14.2577 13.5113 12.2989 12.5847H9.14766Z" fill="#8B39E5"/>
<path d="M9.14766 12.5847C7.1889 13.5113 5.62477 14.1417 4.36599 14.6519C-0.144916 16.4727 -0.378238 16.5695 -0.510742 24.1021H21.9573C21.8248 16.5695 21.5915 16.4727 17.0806 14.6519C15.8218 14.1417 14.2577 13.5113 12.2989 12.5847H9.14766Z" fill="#8B39E5"/>
<path d="M10.7232 0C7.88016 0 6.09424 2.82364 6.09424 5.50361C6.09424 8.18358 7.88016 11.0072 10.7232 11.0072C13.5663 11.0072 15.3522 8.18358 15.3522 5.50361C15.3522 2.82364 13.5663 0 10.7232 0Z" fill="#8B39E5"/>
<path d="M10.7232 0C7.88016 0 6.09424 2.82364 6.09424 5.50361C6.09424 8.18358 7.88016 11.0072 10.7232 11.0072C13.5663 11.0072 15.3522 8.18358 15.3522 5.50361C15.3522 2.82364 13.5663 0 10.7232 0Z" fill="#8B39E5"/>
</g>
<defs>
<clipPath id="clip0_878_11046">
<rect width="21.4468" height="24" fill="white"/>
</clipPath>
</defs>
</svg>
