<svg width="20" height="12" viewBox="0 0 20 12" fill="none" xmlns="http://www.w3.org/2000/svg">
<path fill-rule="evenodd" clip-rule="evenodd" d="M0.611199 7.47197C0.220247 7.08316 0 6.55321 0 6.0002C0 5.44705 0.220054 4.91689 0.611005 4.52809C0.637094 4.50241 0.662993 4.47711 0.68965 4.45162C6.92263 -1.54007 13.1319 -1.43732 19.3412 4.48167C19.3417 4.48186 19.3419 4.48224 19.3425 4.48282C19.7616 4.87487 19.9996 5.42462 20 6.00041C20 6.57601 19.762 7.12614 19.3431 7.5184C19.3419 7.51821 19.3417 7.5184 19.3412 7.51859C13.1319 13.4372 6.92264 13.54 0.689664 7.54864C0.663008 7.52334 0.63711 7.49785 0.611397 7.47198L0.611199 7.47197ZM10.0156 2.29791C12.0462 2.29791 13.6947 3.95682 13.6947 5.99986C13.6947 8.04304 12.046 9.70181 10.0156 9.70181C7.98503 9.70181 6.3365 8.0429 6.3365 5.99986C6.3365 3.95668 7.98517 2.29791 10.0156 2.29791Z" fill="#808080"/>
<path fill-rule="evenodd" clip-rule="evenodd" d="M0.611199 7.47197C0.220247 7.08316 0 6.55321 0 6.0002C0 5.44705 0.220054 4.91689 0.611005 4.52809C0.637094 4.50241 0.662993 4.47711 0.68965 4.45162C6.92263 -1.54007 13.1319 -1.43732 19.3412 4.48167C19.3417 4.48186 19.3419 4.48224 19.3425 4.48282C19.7616 4.87487 19.9996 5.42462 20 6.00041C20 6.57601 19.762 7.12614 19.3431 7.5184C19.3419 7.51821 19.3417 7.5184 19.3412 7.51859C13.1319 13.4372 6.92264 13.54 0.689664 7.54864C0.663008 7.52334 0.63711 7.49785 0.611397 7.47198L0.611199 7.47197ZM10.0156 2.29791C12.0462 2.29791 13.6947 3.95682 13.6947 5.99986C13.6947 8.04304 12.046 9.70181 10.0156 9.70181C7.98503 9.70181 6.3365 8.0429 6.3365 5.99986C6.3365 3.95668 7.98517 2.29791 10.0156 2.29791Z" fill="#808080"/>
<path fill-rule="evenodd" clip-rule="evenodd" d="M11.8314 6.00038C11.8314 7.01824 11.0113 7.84346 9.99968 7.84346C8.98805 7.84346 8.16797 7.01829 8.16797 6.00038C8.16797 4.98246 8.98805 4.15729 9.99968 4.15729C11.0113 4.15729 11.8314 4.98246 11.8314 6.00038Z" fill="#808080"/>
<path fill-rule="evenodd" clip-rule="evenodd" d="M11.8314 6.00038C11.8314 7.01824 11.0113 7.84346 9.99968 7.84346C8.98805 7.84346 8.16797 7.01829 8.16797 6.00038C8.16797 4.98246 8.98805 4.15729 9.99968 4.15729C11.0113 4.15729 11.8314 4.98246 11.8314 6.00038Z" fill="#808080"/>
</svg>
