<svg width="24" height="24" viewBox="0 0 24 24" fill="none" xmlns="http://www.w3.org/2000/svg">
<path fill-rule="evenodd" clip-rule="evenodd" d="M11.3672 18.3624C9.93169 18.391 8.55984 18.5181 7.29485 18.7271C7.6934 19.9567 8.19938 21.0321 8.78806 21.9003C9.53567 23.0019 10.4065 23.7639 11.3671 23.9998L11.3672 18.3624ZM12.632 18.3624L12.632 23.9996C13.5928 23.7637 14.4637 23.0017 15.2111 21.9C15.8 21.0318 16.306 19.9564 16.7043 18.7269C15.4395 18.5179 14.0677 18.391 12.632 18.3624ZM17.9515 18.9668C17.5051 20.3876 16.9276 21.627 16.2559 22.616C16.0265 22.9549 15.7848 23.2649 15.5337 23.5454C17.694 22.8772 19.5959 21.6125 21.0482 19.9431C20.1571 19.5536 19.1113 19.2238 17.9515 18.9668ZM6.04796 18.9668C4.88818 19.2238 3.84279 19.5543 2.9517 19.9432C4.40368 21.6125 6.30548 22.8766 8.46566 23.5455C8.21479 23.2649 7.97312 22.955 7.7435 22.6161C7.07181 21.627 6.49461 20.3876 6.04796 18.9668ZM5.05069 12.6352L0.000102559 12.6352C0.120128 14.9623 0.897397 17.1166 2.14839 18.9127C3.15089 18.4449 4.35556 18.0475 5.70776 17.7438C5.32703 16.1878 5.09501 14.4608 5.05069 12.6352ZM23.9999 12.6352L18.9494 12.6352C18.9051 14.4608 18.6728 16.1886 18.2921 17.7439C19.6443 18.0476 20.8484 18.445 21.8515 18.9128C23.1025 17.1166 23.8797 14.9622 23.9999 12.6352ZM17.6837 12.6352L12.6323 12.6352L12.6323 17.091C14.1938 17.1216 15.6839 17.2646 17.0537 17.4998C17.4192 16.0232 17.6406 14.3762 17.6837 12.6352ZM11.3675 17.091L11.3675 12.6352L6.31625 12.6352C6.35913 14.3763 6.58055 16.0232 6.94603 17.4998C8.31582 17.2646 9.80591 17.1216 11.3675 17.091ZM2.14828 5.08672C0.897294 6.88293 0.120036 9.03699 1.88388e-08 11.3642L5.05059 11.3642C5.09487 9.53878 5.32691 7.81104 5.70766 6.25508C4.35628 5.95179 3.15202 5.55454 2.14828 5.08672ZM17.0538 6.49966C15.684 6.73488 14.1939 6.87787 12.6324 6.90828L12.6324 11.3641L17.6838 11.3641C17.6407 9.62301 17.4193 7.97627 17.0538 6.49966ZM21.8515 5.08672C20.8483 5.55455 19.6437 5.95167 18.2921 6.25497C18.6728 7.81093 18.905 9.53863 18.9493 11.3641L23.9999 11.3641C23.8797 9.03699 23.1024 6.88303 21.8515 5.08672ZM6.94598 6.49966C6.58048 7.97627 6.35908 9.62302 6.3162 11.3641L11.3674 11.3641L11.3674 6.90829C9.80586 6.87788 8.31577 6.73488 6.94598 6.49966ZM11.3673 -1.8844e-08C10.4067 0.235827 9.53588 0.997866 8.78827 2.09951C8.19953 2.96772 7.69358 4.04312 7.29505 5.27304C8.56005 5.48168 9.93107 5.60876 11.3674 5.63735L11.3673 -1.8844e-08ZM12.6321 -2.09407e-08L12.6321 5.63713C14.0678 5.60853 15.4396 5.48206 16.7045 5.27281C16.3061 4.04295 15.8002 2.96749 15.2113 2.09929C14.4639 0.99769 13.5929 0.235868 12.6321 -2.09407e-08ZM8.46561 0.454337C6.30532 1.12235 4.40347 2.38727 2.95165 4.0564C3.84192 4.44609 4.88751 4.77679 6.04791 5.03354C6.49456 3.61214 7.07186 2.37279 7.74355 1.38374C7.97319 1.0448 8.21474 0.734647 8.46561 0.454337ZM15.5339 0.454337C15.785 0.734672 16.0266 1.04481 16.256 1.38374C16.9277 2.37279 17.5052 3.61214 17.9517 5.03354C19.1123 4.77676 20.1577 4.44606 21.0481 4.0564C19.596 2.38727 17.6944 1.12312 15.5339 0.454337Z" fill="#808080"/>
<path fill-rule="evenodd" clip-rule="evenodd" d="M11.3672 18.3624C9.93169 18.391 8.55984 18.5181 7.29485 18.7271C7.6934 19.9567 8.19938 21.0321 8.78806 21.9003C9.53567 23.0019 10.4065 23.7639 11.3671 23.9998L11.3672 18.3624ZM12.632 18.3624L12.632 23.9996C13.5928 23.7637 14.4637 23.0017 15.2111 21.9C15.8 21.0318 16.306 19.9564 16.7043 18.7269C15.4395 18.5179 14.0677 18.391 12.632 18.3624ZM17.9515 18.9668C17.5051 20.3876 16.9276 21.627 16.2559 22.616C16.0265 22.9549 15.7848 23.2649 15.5337 23.5454C17.694 22.8772 19.5959 21.6125 21.0482 19.9431C20.1571 19.5536 19.1113 19.2238 17.9515 18.9668ZM6.04796 18.9668C4.88818 19.2238 3.84279 19.5543 2.9517 19.9432C4.40368 21.6125 6.30548 22.8766 8.46566 23.5455C8.21479 23.2649 7.97312 22.955 7.7435 22.6161C7.07181 21.627 6.49461 20.3876 6.04796 18.9668ZM5.05069 12.6352L0.000102559 12.6352C0.120128 14.9623 0.897397 17.1166 2.14839 18.9127C3.15089 18.4449 4.35556 18.0475 5.70776 17.7438C5.32703 16.1878 5.09501 14.4608 5.05069 12.6352ZM23.9999 12.6352L18.9494 12.6352C18.9051 14.4608 18.6728 16.1886 18.2921 17.7439C19.6443 18.0476 20.8484 18.445 21.8515 18.9128C23.1025 17.1166 23.8797 14.9622 23.9999 12.6352ZM17.6837 12.6352L12.6323 12.6352L12.6323 17.091C14.1938 17.1216 15.6839 17.2646 17.0537 17.4998C17.4192 16.0232 17.6406 14.3762 17.6837 12.6352ZM11.3675 17.091L11.3675 12.6352L6.31625 12.6352C6.35913 14.3763 6.58055 16.0232 6.94603 17.4998C8.31582 17.2646 9.80591 17.1216 11.3675 17.091ZM2.14828 5.08672C0.897294 6.88293 0.120036 9.03699 1.88388e-08 11.3642L5.05059 11.3642C5.09487 9.53878 5.32691 7.81104 5.70766 6.25508C4.35628 5.95179 3.15202 5.55454 2.14828 5.08672ZM17.0538 6.49966C15.684 6.73488 14.1939 6.87787 12.6324 6.90828L12.6324 11.3641L17.6838 11.3641C17.6407 9.62301 17.4193 7.97627 17.0538 6.49966ZM21.8515 5.08672C20.8483 5.55455 19.6437 5.95167 18.2921 6.25497C18.6728 7.81093 18.905 9.53863 18.9493 11.3641L23.9999 11.3641C23.8797 9.03699 23.1024 6.88303 21.8515 5.08672ZM6.94598 6.49966C6.58048 7.97627 6.35908 9.62302 6.3162 11.3641L11.3674 11.3641L11.3674 6.90829C9.80586 6.87788 8.31577 6.73488 6.94598 6.49966ZM11.3673 -1.8844e-08C10.4067 0.235827 9.53588 0.997866 8.78827 2.09951C8.19953 2.96772 7.69358 4.04312 7.29505 5.27304C8.56005 5.48168 9.93107 5.60876 11.3674 5.63735L11.3673 -1.8844e-08ZM12.6321 -2.09407e-08L12.6321 5.63713C14.0678 5.60853 15.4396 5.48206 16.7045 5.27281C16.3061 4.04295 15.8002 2.96749 15.2113 2.09929C14.4639 0.99769 13.5929 0.235868 12.6321 -2.09407e-08ZM8.46561 0.454337C6.30532 1.12235 4.40347 2.38727 2.95165 4.0564C3.84192 4.44609 4.88751 4.77679 6.04791 5.03354C6.49456 3.61214 7.07186 2.37279 7.74355 1.38374C7.97319 1.0448 8.21474 0.734647 8.46561 0.454337ZM15.5339 0.454337C15.785 0.734672 16.0266 1.04481 16.256 1.38374C16.9277 2.37279 17.5052 3.61214 17.9517 5.03354C19.1123 4.77676 20.1577 4.44606 21.0481 4.0564C19.596 2.38727 17.6944 1.12312 15.5339 0.454337Z" fill="#8B39E5"/>
</svg>
